<svg width="34" height="35" viewBox="0 0 34 35" fill="none" xmlns="http://www.w3.org/2000/svg">
<g clip-path="url(#clip0_4132_1301)">
<path d="M3.71571 28.7785C3.71571 27.2728 3.27857 26.5199 2.41643 26.4957C2.07735 26.4818 1.73889 26.5355 1.42071 26.6535C1.23176 26.7004 1.05684 26.792 0.910714 26.9207V30.4785C1.3326 30.7895 1.84377 30.9556 2.36786 30.9521C3.25429 30.9035 3.71571 30.1749 3.71571 28.7785ZM4.76 28.7785C4.79178 29.4511 4.60428 30.1159 4.22571 30.6728C4.043 30.9437 3.79453 31.1637 3.50358 31.3124C3.21263 31.4611 2.8887 31.5335 2.56214 31.5228C1.97159 31.5317 1.39342 31.3531 0.910714 31.0128V34.2428L0 33.9999V26.8114C0.163961 26.6209 0.356491 26.4571 0.570714 26.3257C1.16728 25.992 1.84235 25.8243 2.52571 25.8399C2.8499 25.8313 3.17088 25.906 3.45791 26.057C3.74494 26.208 3.98841 26.4301 4.165 26.7021C4.58314 27.3387 4.79123 28.0904 4.76 28.8514V28.7785ZM10.3336 30.9035C10.3823 31.6173 10.2788 32.3334 10.03 33.0042C9.76392 33.4415 9.35718 33.7755 8.87643 33.9514C8.39666 34.1401 7.88625 34.2389 7.37072 34.2428L7.21286 33.6842C7.77143 33.5992 8.14786 33.5142 8.36643 33.4657C8.75012 33.3584 9.07684 33.1057 9.27714 32.7614C9.44181 32.3069 9.50803 31.8226 9.47143 31.3407V31.2071C8.85485 31.4914 8.18324 31.6365 7.50429 31.6321C7.05985 31.6524 6.62478 31.5001 6.29 31.2071C6.106 31.0646 5.95913 30.8798 5.86188 30.6684C5.76463 30.457 5.71988 30.2252 5.73143 29.9928V26.1921L6.64214 25.8764V29.6892C6.63556 29.8668 6.66804 30.0437 6.73728 30.2073C6.80652 30.371 6.91083 30.5174 7.04286 30.6364C7.33491 30.8588 7.69624 30.9706 8.06286 30.9521C8.55077 30.9294 9.0205 30.7601 9.41072 30.4664V26.0099H10.3336V30.9035ZM13.8793 31.4985H13.5879C13.1514 31.5197 12.7215 31.3864 12.3736 31.1221C12.2271 30.9978 12.1122 30.8405 12.0383 30.6632C11.9644 30.4859 11.9337 30.2936 11.9486 30.1021V26.4592H11.3293V25.9007H11.9486V24.4678L12.8593 24.2492V26.0099H13.8793V26.5685H12.8593V30.1142C12.8396 30.2483 12.8537 30.3852 12.9004 30.5124C12.947 30.6396 13.0247 30.7532 13.1264 30.8428C13.3534 30.9814 13.6133 31.0568 13.8793 31.0614V31.4985ZM19.4286 31.4864H18.5179V27.9649C18.5323 27.6436 18.4475 27.3257 18.275 27.0542C18.1921 26.9178 18.0738 26.8062 17.9328 26.7314C17.7917 26.6566 17.6331 26.6213 17.4736 26.6292C16.8938 26.6801 16.3453 26.914 15.9071 27.2971V31.5228H14.9964V23.1928L15.9071 22.9014V26.6292C16.453 26.2066 17.1232 25.9761 17.8136 25.9735C18.0386 25.9661 18.2626 26.0054 18.4717 26.089C18.6807 26.1726 18.8701 26.2987 19.0279 26.4592C19.3298 26.791 19.4946 27.2249 19.4893 27.6735L19.4286 31.4864ZM24.2857 28.6449C24.3018 28.1485 24.1932 27.6559 23.97 27.2121C23.8494 26.9957 23.6733 26.8153 23.4599 26.6894C23.2465 26.5635 23.0035 26.4966 22.7557 26.4957C21.76 26.4957 21.25 27.2728 21.25 28.6449C21.2328 29.1884 21.3408 29.7285 21.5657 30.2235C21.6617 30.4663 21.8293 30.6741 22.0462 30.8194C22.263 30.9647 22.519 31.0406 22.78 31.0371C23.7514 31.0128 24.2857 30.2235 24.2857 28.6449ZM25.2814 28.6449C25.3017 29.3741 25.0843 30.0901 24.6621 30.6849C24.443 30.975 24.158 31.2088 23.8308 31.3671C23.5036 31.5254 23.1434 31.6038 22.78 31.5957C22.4153 31.6121 22.0523 31.5374 21.7237 31.3784C21.3951 31.2194 21.1113 30.9811 20.8979 30.6849C20.4724 30.0917 20.2547 29.3746 20.2786 28.6449C20.2487 27.9363 20.4872 27.2425 20.9464 26.7021C21.1687 26.4328 21.4492 26.2174 21.7669 26.0723C22.0845 25.9272 22.4309 25.856 22.78 25.8642C23.1327 25.8559 23.4827 25.9268 23.8042 26.0718C24.1258 26.2169 24.4107 26.4322 24.6379 26.7021C25.0612 27.2594 25.2799 27.9454 25.2571 28.6449H25.2814ZM30.5271 31.4864H29.6164V27.7828C29.6261 27.6071 29.5974 27.4314 29.5324 27.2678C29.4674 27.1043 29.3676 26.9568 29.24 26.8357C29.108 26.7123 28.9501 26.6199 28.7778 26.5653C28.6056 26.5106 28.4233 26.4952 28.2443 26.5199C27.8056 26.5343 27.3819 26.6826 27.03 26.9449V31.5471H26.1193V26.8357C26.5479 26.4939 27.0386 26.2382 27.5643 26.0828C27.9247 25.9849 28.2959 25.9319 28.6693 25.9249C28.8755 25.9115 29.0824 25.9115 29.2886 25.9249C29.6131 25.9961 29.9115 26.1558 30.1507 26.3864C30.2702 26.506 30.365 26.648 30.4295 26.8043C30.4941 26.9605 30.5273 27.128 30.5271 27.2971V31.4864Z" fill="#070505"/>
<path d="M14.8508 2.74582e-05C14.0364 0.000410791 13.2237 0.0735588 12.4223 0.218599C10.273 0.595027 9.89655 1.43288 9.89655 2.8536V4.79645H14.9601V5.44003H8.01441C7.27238 5.4262 6.54919 5.67422 5.97183 6.14055C5.39448 6.60688 4.99986 7.26169 4.85726 7.99003C4.38352 9.6694 4.38352 11.4471 4.85726 13.1265C5.20941 14.6322 6.07155 15.6886 7.55298 15.6886H9.31369V13.3693C9.33224 12.541 9.66954 11.7518 10.2554 11.166C10.8412 10.5802 11.6304 10.2429 12.4587 10.2243H17.4858C17.8217 10.2211 18.1537 10.1516 18.4627 10.0198C18.7717 9.88794 19.0515 9.69635 19.2862 9.45601C19.5209 9.21567 19.7058 8.93133 19.8303 8.61932C19.9548 8.3073 20.0164 7.97377 20.0115 7.63788V2.78074C19.9562 2.12348 19.6739 1.50596 19.2131 1.03406C18.7522 0.562157 18.1416 0.265273 17.4858 0.194313C16.6149 0.0520891 15.7332 -0.0129255 14.8508 2.74582e-05ZM12.143 1.53003C12.4006 1.53003 12.6477 1.63237 12.8299 1.81455C13.0121 1.99673 13.1144 2.24382 13.1144 2.50146C13.1144 2.75909 13.0121 3.00618 12.8299 3.18836C12.6477 3.37054 12.4006 3.47288 12.143 3.47288C11.8896 3.46655 11.6487 3.36141 11.4717 3.17991C11.2948 2.99842 11.1958 2.75494 11.1958 2.50146C11.1942 2.37548 11.2175 2.25042 11.2642 2.13342C11.3109 2.01642 11.3802 1.90977 11.4682 1.81956C11.5561 1.72935 11.661 1.65735 11.7768 1.60768C11.8926 1.558 12.017 1.53161 12.143 1.53003Z" fill="url(#paint0_linear_4132_1301)"/>
<path d="M20.6429 5.37927V7.61356C20.6337 8.45463 20.2979 9.25919 19.7066 9.85735C19.1152 10.4555 18.3145 10.8004 17.4736 10.8193H12.4222C11.7489 10.8351 11.1083 11.1129 10.6367 11.5936C10.165 12.0743 9.89946 12.7201 9.89648 13.3936V18.2507C9.89648 19.6228 11.1108 20.4243 12.4222 20.8371C14.0709 21.3515 15.8371 21.3515 17.4858 20.8371C18.7001 20.4607 20.0115 19.7321 20.0115 18.2507V16.2714H14.9601V15.6278H22.5372C23.9943 15.6278 24.5529 14.6078 25.0751 13.0778C25.5992 11.4058 25.5992 9.61344 25.0751 7.94142C24.7229 6.48427 24.0186 5.37927 22.5372 5.37927H20.6429ZM17.7893 17.5221C17.9834 17.5149 18.1751 17.5659 18.3399 17.6687C18.5046 17.7715 18.6348 17.9212 18.7136 18.0987C18.7923 18.2762 18.8161 18.4732 18.7819 18.6643C18.7476 18.8554 18.6569 19.0319 18.5214 19.1709C18.3858 19.31 18.2117 19.4052 18.0216 19.4444C17.8314 19.4835 17.6338 19.4648 17.4544 19.3906C17.275 19.3163 17.1219 19.1901 17.015 19.028C16.908 18.866 16.8521 18.6756 16.8543 18.4814C16.8635 18.2407 16.9641 18.0126 17.1355 17.8434C17.307 17.6742 17.5364 17.5767 17.7772 17.5707L17.7893 17.5221Z" fill="url(#paint1_linear_4132_1301)"/>
<path d="M32.2514 25.1964H32.4093V24.2979H32.7857V24.1643H31.875V24.2979H32.2514V25.1964ZM32.9557 25.1964H33.0893V24.2857L33.3807 25.1964H33.5386L33.8421 24.2857V25.1964H34V24.1643H33.8179L33.4657 25.0386L33.1621 24.1643H32.9557V25.1964Z" fill="#666666"/>
<path opacity="0.44" d="M21.7843 20.4607C21.7843 21.1771 18.7486 21.7721 15.0086 21.7721C11.2686 21.7721 8.23291 21.1771 8.23291 20.4607C8.23291 19.7442 11.2686 19.1371 15.0086 19.1371C18.7486 19.1371 21.7843 19.7321 21.7843 20.4607Z" fill="url(#paint2_radial_4132_1301)"/>
</g>
<defs>
<linearGradient id="paint0_linear_4132_1301" x1="61.9236" y1="105.622" x2="73.4885" y2="115.616" gradientUnits="userSpaceOnUse">
<stop stop-color="#5EA0D4"/>
<stop offset="1" stop-color="#326B9A"/>
</linearGradient>
<linearGradient id="paint1_linear_4132_1301" x1="77.8904" y1="121.744" x2="73.7894" y2="115.878" gradientUnits="userSpaceOnUse">
<stop stop-color="#FFD540"/>
<stop offset="1" stop-color="#FEE977"/>
</linearGradient>
<radialGradient id="paint2_radial_4132_1301" cx="0" cy="0" r="1" gradientUnits="userSpaceOnUse" gradientTransform="translate(85.5576 251.124) rotate(-90) scale(1.29504 5.6916)">
<stop stop-color="#B9B9B9" stop-opacity="0.5"/>
<stop offset="1" stop-color="#808181" stop-opacity="0"/>
</radialGradient>
<clipPath id="clip0_4132_1301">
<rect width="34" height="34.3157" fill="white"/>
</clipPath>
</defs>
</svg>
