<svg width="19" height="25" viewBox="0 0 19 25" fill="none" xmlns="http://www.w3.org/2000/svg">
<g clip-path="url(#clip0_4134_1586)">
<mask id="mask0_4134_1586" style="mask-type:luminance" maskUnits="userSpaceOnUse" x="0" y="0" width="19" height="25">
<path d="M18.9547 0H0.633301V25H18.9547V0Z" fill="white"/>
</mask>
<g mask="url(#mask0_4134_1586)">
<path fill-rule="evenodd" clip-rule="evenodd" d="M18.6744 12.0536C18.6937 14.3996 17.769 16.6574 16.1032 18.3313C14.4375 20.0052 12.1668 20.9586 9.78959 20.9821C7.4139 20.9562 5.14556 20.0019 3.48179 18.3281C1.81801 16.6545 0.894566 14.398 0.913871 12.0536C0.896955 9.70979 1.82118 7.45475 3.48445 5.78159C5.14771 4.10841 7.41466 3.15326 9.78959 3.125C10.9702 3.13783 12.1367 3.38016 13.2223 3.83817C14.308 4.29619 15.2915 4.96089 16.1166 5.79426C16.9419 6.62764 17.5924 7.61334 18.0313 8.69502C18.4702 9.7767 18.6887 10.9331 18.6744 12.0982" fill="#D33A33"/>
<path d="M1.27565 14.2765C1.27565 14.2765 0.624223 4.91937 9.35517 4.65152L8.74898 3.64258L4.00803 5.21402L2.66898 6.74973L1.48375 8.99973L0.805176 11.6069L1.00422 13.339" fill="#EF3F3B"/>
<path d="M3.70953 5.93744C2.08998 7.58648 1.18434 9.79278 1.18434 12.0892C1.18434 14.3856 2.08998 16.592 3.70953 18.241C4.49913 19.0459 5.44466 19.686 6.48993 20.123C7.53518 20.5601 8.65883 20.7854 9.79405 20.7854C10.9293 20.7854 12.0529 20.5601 13.0982 20.123C14.1435 19.686 15.0889 19.0459 15.8786 18.241C17.4981 16.592 18.4038 14.3856 18.4038 12.0892C18.4038 9.79278 17.4981 7.58648 15.8786 5.93744C15.0889 5.13253 14.1435 4.49251 13.0982 4.05541C12.0529 3.61831 10.9293 3.39307 9.79405 3.39307C8.65883 3.39307 7.53518 3.61831 6.48993 4.05541C5.44466 4.49251 4.49913 5.13253 3.70953 5.93744ZM3.31143 18.616C1.59396 16.8643 0.633789 14.5223 0.633789 12.0848C0.633789 9.64729 1.59396 7.30527 3.31143 5.55352C4.15447 4.69901 5.16245 4.01983 6.27586 3.55608C7.38926 3.09233 8.58554 2.85339 9.79405 2.85339C11.0026 2.85339 12.1988 3.09233 13.3122 3.55608C14.4257 4.01983 15.4336 4.69901 16.2767 5.55352C17.9942 7.30527 18.9543 9.64729 18.9543 12.0848C18.9543 14.5223 17.9942 16.8643 16.2767 18.616C15.4336 19.4705 14.4257 20.1498 13.3122 20.6135C12.1988 21.0773 11.0026 21.3161 9.79405 21.3161C8.58554 21.3161 7.38926 21.0773 6.27586 20.6135C5.16245 20.1498 4.15447 19.4705 3.31143 18.616Z" fill="#231F20"/>
<path fill-rule="evenodd" clip-rule="evenodd" d="M13.5355 12.098L12.1874 12.3033L10.3779 12.4998H9.19262H8.04357L7.13881 12.2408L6.36071 11.4015L5.74548 9.69619L5.62786 9.33011L4.82262 9.06225L4.34309 8.2944L3.99023 7.21404L4.36119 6.22297L5.26596 5.92832L5.98071 6.25869L6.31548 6.99082L6.72262 6.92832L6.85833 6.75869L6.72262 5.99082V5.01761L6.93071 3.69619V2.92832L7.43738 1.95511L8.52309 1.18726L10.414 0.374756L12.5131 0.678327L14.3226 1.9819L15.1731 3.31225L15.7159 4.27654L15.8517 6.68725L15.4446 8.74975L14.6936 10.589L13.9879 11.5623" fill="#F1D7B8"/>
<path fill-rule="evenodd" clip-rule="evenodd" d="M12.3865 17.9283L7.54608 18.1248V18.9283L7.94416 21.7319L7.74512 21.964L4.36131 20.7855L4.12608 20.3836L3.81845 16.6158L3.00416 14.3569L2.84131 13.8211L5.5556 12.0355L6.39702 11.6962L7.14798 12.589L7.79035 13.1605L8.53226 13.3926L8.86702 13.4908L9.27416 15.2765L9.58179 15.6426L10.3599 15.3748L9.81702 16.4105L12.7665 17.7765L12.3865 17.9819" fill="#345162"/>
<path fill-rule="evenodd" clip-rule="evenodd" d="M4.36101 6.22335L5.26577 5.92871L5.98053 6.25906L6.3153 6.99121L6.72244 6.92871L6.82196 6.52692L6.62292 5.75906L6.82196 3.91979L6.65911 2.91979L7.2653 2.21442L8.58625 1.17871L8.2153 0.678711L6.35149 1.57156L5.57338 2.17871L5.13006 3.07156L4.46053 3.96442L4.25244 5.03585L4.36101 6.22335Z" fill="#6E6C6E"/>
<path fill-rule="evenodd" clip-rule="evenodd" d="M5.74537 3.08034C6.01206 2.61374 6.37698 2.20895 6.81552 1.89322C7.25407 1.5775 7.75607 1.35816 8.28774 1.24998C10.3235 0.651765 8.38726 0.81248 8.38726 0.81248L6.1887 1.65176L5.33822 2.48212L4.96726 3.15176L5.74537 3.08926M4.72298 5.99105C4.62073 5.68174 4.59475 5.35281 4.6472 5.0316C4.69966 4.71039 4.82903 4.40617 5.02458 4.14421C5.22012 3.88226 5.47619 3.67015 5.7715 3.52549C6.06681 3.38082 6.39285 3.3078 6.72251 3.31247L6.62298 2.9107L4.75916 3.33926L4.21631 5.12497L4.36108 6.2232L4.72298 5.99105Z" fill="#DCD9D8"/>
<path fill-rule="evenodd" clip-rule="evenodd" d="M5.81787 9.09793L6.2612 8.66935C6.26452 8.73254 6.28967 8.79272 6.33248 8.83983C6.37528 8.88694 6.43315 8.91815 6.49645 8.92828C6.55163 10.244 7.11874 11.488 8.07978 12.4015C8.20645 12.5086 6.99407 12.2408 6.99407 12.2408L5.90835 10.5622M12.0336 8.46399C12.0336 8.46399 12.115 7.44614 12.3955 7.52649C12.4721 7.54899 12.5396 7.59475 12.5883 7.65727C12.637 7.71979 12.6645 7.79588 12.6669 7.8747C12.6669 7.8747 11.9974 8.30328 12.0336 8.46399Z" fill="#F7E4CE"/>
<path d="M14.8563 4.74976C14.8563 4.74976 14.2953 4.87476 14.2411 5.35691C14.1868 5.83904 14.8563 5.45512 14.9559 5.41941M10.7668 4.78548C10.7668 4.78548 10.0249 4.88369 10.0249 5.35691C10.0249 5.83012 10.8663 5.78548 11.1016 5.58904" fill="#F7E4CE"/>
<path fill-rule="evenodd" clip-rule="evenodd" d="M6.15218 6.95543C6.15218 6.95543 4.86742 6.18756 4.72266 6.92864C4.5779 7.6697 4.29742 8.19649 4.9398 9.00006L4.49647 8.86614L4.08932 7.7947L3.95361 6.7947L4.72266 5.99114L5.62742 6.06256L6.13409 6.45543V6.95543M6.74932 4.8572C6.93486 4.00643 7.36034 3.22475 7.97667 2.60231C8.593 1.97989 9.37506 1.54206 10.2327 1.33935C12.6303 0.875063 13.8517 1.43756 14.3583 1.97328C14.3583 1.97328 12.2322 -0.526723 10.1965 0.241134C8.16076 1.00899 6.67695 2.42864 6.71314 3.32149V4.8572M14.5665 2.31256C14.5665 2.31256 13.5893 2.31256 13.5531 3.15185C13.5557 3.2455 13.5805 3.33725 13.6256 3.4197C13.6256 3.4197 14.4036 2.52685 14.8741 3.01793M10.2688 3.50899C10.2688 3.50899 10.1512 2.17864 8.99313 2.94649C8.25124 3.44649 8.32361 4.15185 8.45932 4.27685C8.59503 4.40185 8.55885 4.67864 8.65837 4.50006C8.7579 4.32149 8.73076 3.71435 9.1017 3.5447C9.47266 3.37506 10.0788 3.18756 10.3141 3.5447" fill="#F7E4CE"/>
<path fill-rule="evenodd" clip-rule="evenodd" d="M7.13866 12.5714L3.95391 13.9374C3.95391 13.9374 5.27487 19.116 4.59629 20.7231L4.12581 20.5535V18.5803L3.22105 14.8481L2.8501 13.8124L6.17058 11.6071L7.14772 12.5714M7.46439 15.4285L7.91676 15.9731V17.9285H7.37391L7.31058 16.366C7.31058 16.1964 7.37391 15.5981 7.37391 15.5981M7.43724 18.2499L5.91724 18.3124L6.35153 18.616L7.43724 18.8214" fill="#49738C"/>
<path fill-rule="evenodd" clip-rule="evenodd" d="M12.6851 17.9285H13.9427L14.2413 20.9999L12.9565 21.1607L12.6851 17.9285Z" fill="#345162"/>
<path fill-rule="evenodd" clip-rule="evenodd" d="M13.0288 17.9286L14.9198 17.8305L15.6979 15.7947C15.6979 15.6965 16.3765 12.9911 16.3765 12.9911L14.8565 11.4019L14.5488 11.134L13.7346 11.9376V15.0447L13.0288 17.9286Z" fill="#345162"/>
<path fill-rule="evenodd" clip-rule="evenodd" d="M13.8703 17.6786L12.6851 17.9286L12.8661 18.8215C13.3094 19.0269 14.0513 18.4911 14.0513 18.4911M13.9155 11.8125L16.2861 13.5446L16.3494 12.7411L14.5398 11.1072L13.8974 11.8125" fill="#49738C"/>
<path fill-rule="evenodd" clip-rule="evenodd" d="M8.64971 24.4911L7.95304 21.6875L7.60019 19.6161L7.5459 18.0804L10.7126 17.9108H12.685L12.504 21.4286L12.8116 24.1073V24.6073L10.2421 24.8125L8.6859 24.4733" fill="white"/>
<path fill-rule="evenodd" clip-rule="evenodd" d="M12.2415 17.9287C12.1546 19.9142 12.2698 21.9034 12.5853 23.8662C11.8148 24.2997 10.9613 24.5704 10.0791 24.6609L12.9201 24.5627L13.2638 24.3662L12.8657 18.8216L12.7663 17.652" fill="#DCD9D8"/>
<path fill-rule="evenodd" clip-rule="evenodd" d="M14.3043 20.6877L15.6253 20.3217L18.1224 20.1877L18.5024 19.0539L17.8238 17.0806L17.0457 16.9824L15.9599 17.3127L14.9195 17.8127L14.3676 17.7146L13.9424 17.8842" fill="white"/>
<path fill-rule="evenodd" clip-rule="evenodd" d="M14.2773 20.0179C14.6001 19.8585 14.9399 19.7358 15.2907 19.6518L14.9197 17.8125L15.363 17.6429L15.6707 19.5804L17.7336 19.6875C17.9754 19.2031 18.0786 18.6629 18.0321 18.125L18.4121 19.1875V19.7946L17.8692 20.5893L17.263 20.7231H16.2497L15.9059 20.2946L14.7207 20.4643L14.3497 20.5893" fill="#DCD9D8"/>
<path d="M12.9473 17.6429L12.2053 15.7768L11.4272 14.6785C11.4272 14.6785 11.5901 14.2054 11.8344 14.2054H12.6125L13.3544 14.4731L13.2821 15.7054L12.9473 17.6429Z" fill="white"/>
<path fill-rule="evenodd" clip-rule="evenodd" d="M13.0918 17.0355C12.7259 16.3711 12.4084 15.6819 12.1419 14.973C12.1419 14.973 12.3138 14.5711 12.549 14.6694C12.7843 14.7676 13.2999 15.0355 13.2999 15.0355V14.3569L12.1419 14.1248L11.3638 14.223L12.6847 17.2944H12.9562" fill="#DCD9D8"/>
<path d="M8.95747 12.5716L8.05272 12.4645L7.14795 12.1967V12.5716L7.57319 13.036L8.92128 13.6431" fill="white"/>
<path fill-rule="evenodd" clip-rule="evenodd" d="M7.43748 12.7051C7.87496 12.9058 8.3487 13.0181 8.83081 13.0354V13.4373L7.88081 13.2408L7.30176 12.839L7.40129 12.7051" fill="#DCD9D8"/>
<path fill-rule="evenodd" clip-rule="evenodd" d="M14.2952 14.3572C13.7724 14.3505 13.2526 14.2785 12.748 14.143C12.748 13.9645 12.748 13.777 12.748 13.652C12.9159 13.5772 13.0976 13.5376 13.2818 13.5359C13.0984 13.4506 12.8913 13.4286 12.6937 13.4734C12.6771 13.3676 12.6435 13.2651 12.5942 13.1697C12.9199 13.0537 13.6799 12.2769 14.1052 12.5537C14.3133 12.6697 14.4037 13.3395 14.4128 13.6697C14.4469 13.9075 14.3992 14.1496 14.277 14.3572" fill="#D33A33"/>
<path d="M14.2952 14.3572C13.7724 14.3505 13.2526 14.2785 12.748 14.143C12.748 13.9645 12.748 13.777 12.748 13.652C12.9159 13.5772 13.0976 13.5376 13.2818 13.5359C13.0984 13.4506 12.8913 13.4286 12.6937 13.4734C12.6771 13.3676 12.6435 13.2651 12.5942 13.1697C12.9199 13.0537 13.6799 12.2769 14.1052 12.5537C14.3133 12.6697 14.4037 13.3395 14.4128 13.6697C14.4523 13.9055 14.4109 14.1475 14.2952 14.3572Z" stroke="#D33A33" stroke-width="0.26"/>
<path fill-rule="evenodd" clip-rule="evenodd" d="M11.5539 13.3929V13.5269C11.3729 13.6429 11.0834 13.634 10.8934 13.7322C11.1422 13.7455 11.3855 13.8092 11.6082 13.9197V14.2411C11.2818 14.5125 10.9405 14.7659 10.5858 15C10.2715 15.1659 9.92714 15.2691 9.57245 15.3036C9.45482 15.3036 9.44578 15.1519 9.40053 15.0179C9.23951 14.6627 9.12987 14.2871 9.07482 13.9019C9.07482 13.384 9.00245 12.5179 9.56339 12.625C10.031 12.7211 10.482 12.8835 10.9024 13.1072C11.0966 13.2584 11.3274 13.3567 11.572 13.3929" fill="#D33A33"/>
<path d="M11.5539 13.3929V13.5269C11.3729 13.6429 11.0834 13.634 10.8934 13.7322C11.1422 13.7455 11.3855 13.8092 11.6082 13.9197V14.2411C11.2818 14.5125 10.9405 14.7659 10.5858 15C10.2715 15.1659 9.92714 15.2691 9.57245 15.3036C9.45482 15.3036 9.44578 15.1519 9.40053 15.0179C9.23951 14.6627 9.12987 14.2871 9.07482 13.9019C9.07482 13.384 9.00245 12.5179 9.56339 12.625C10.031 12.7211 10.482 12.8835 10.9024 13.1072C11.0966 13.2584 11.3274 13.3567 11.572 13.3929H11.5539Z" stroke="#D33A33" stroke-width="0.26"/>
<path fill-rule="evenodd" clip-rule="evenodd" d="M11.8798 14.0087C11.8164 13.8126 11.7858 13.6075 11.7893 13.4016C12.5584 12.9016 12.6941 14.2945 11.8798 14.0087Z" fill="#D33A33"/>
<path d="M11.8798 14.0091C11.8164 13.813 11.7858 13.6079 11.7893 13.402C12.5584 12.902 12.6941 14.2591 11.8798 14.0091Z" stroke="#D33A33" stroke-width="0.26"/>
<path fill-rule="evenodd" clip-rule="evenodd" d="M12.9834 14.241C12.9834 14.241 12.7482 13.9018 12.9111 13.8035C13.0739 13.7053 13.2549 13.8035 13.3544 13.6339C13.4539 13.4643 13.3544 13.3749 13.3544 13.1695C13.3544 12.9643 13.5534 12.9374 13.7253 12.9018C13.8972 12.866 14.3678 12.8035 14.4311 12.9731L14.232 12.366L13.8249 12.2321L12.5401 12.9731L12.4677 13.3393V14.0714M9.41867 15.3393L9.29201 13.7768C9.21057 12.9999 9.48201 13.1339 10.1968 13.1339C10.4348 13.156 10.6657 13.2259 10.8753 13.3393C11.0653 13.7053 10.5587 13.6249 11.0925 13.9106C11.6263 14.1964 12.3049 13.7678 12.133 13.241C12.0334 13.116 11.6082 13.1964 11.4634 13.1249L10.6672 12.7143C10.3325 12.5445 9.55438 12.2946 9.19248 12.5356C8.28772 13.1428 9.25582 14.6695 9.58153 15.3035" fill="#EF3F3B"/>
<path fill-rule="evenodd" clip-rule="evenodd" d="M10.3141 3.50873C9.40938 3.29445 8.9389 3.89266 8.65844 4.50873C8.4051 4.44623 8.49557 4.10695 8.577 3.93731C8.6899 3.66437 8.87916 3.42877 9.12268 3.25802C9.3662 3.08727 9.65392 2.98842 9.95223 2.97302C10.1875 2.97302 10.5041 3.22302 10.3232 3.50873M14.847 4.53552H14.8922C15.0783 4.96726 15.2961 5.38503 15.5437 5.78552C15.3718 6.19623 14.2137 6.55337 14.2318 5.78552C14.476 5.67837 14.9104 5.78552 15.1366 5.62481C14.9406 5.29291 14.8289 4.91921 14.8108 4.53552M10.7937 4.53552C10.9157 4.89962 11.0992 5.24074 11.3365 5.54445C11.4632 5.66052 11.7075 5.81231 11.5808 6.1516C11.497 6.28357 11.3737 6.38656 11.228 6.44623C10.7846 6.57123 9.76223 6.44623 10.1151 5.92837C10.486 5.92837 10.9746 6.16052 11.246 5.92837C11.038 5.59802 10.667 4.94623 10.8027 4.56231M14.6751 8.19623C13.9711 8.74831 13.0842 9.02204 12.187 8.9641C12.0626 8.8433 11.9853 8.68307 11.9688 8.5116C11.9522 8.34013 11.9974 8.1684 12.0965 8.0266C12.2141 8.23195 12.1418 8.59802 12.4675 8.65158C13.0827 8.74981 13.7975 8.2766 14.277 8.11587C14.5485 7.6516 14.277 7.49087 14.0056 7.22302C13.3596 6.63362 12.9488 5.83546 12.8475 4.97302C13.0466 4.82123 13.0646 5.19623 13.0918 5.25873C13.4704 5.96195 13.9487 6.60832 14.5122 7.17837C14.6299 7.30337 14.8289 7.42837 14.847 7.50873C14.9104 7.75873 14.6841 8.05337 14.7112 8.22302M5.98034 7.7766C5.77223 7.66052 5.71796 7.14266 5.47367 7.13373C5.22938 7.12481 5.19319 7.80337 5.19319 8.20516C5.07395 8.02775 5.00154 7.82371 4.98258 7.61164C4.96362 7.39956 4.99869 7.18616 5.08462 6.99087C4.88557 6.89266 4.7951 7.09802 4.68652 7.16945C4.83129 6.14266 6.20652 6.69623 5.98034 7.7766ZM15.1275 8.66945C14.9941 9.01546 14.7611 9.31552 14.4574 9.53281C14.1537 9.7501 13.7923 9.87516 13.4175 9.89266C13.3896 9.6972 13.3896 9.49885 13.4175 9.30337C14.001 9.19305 14.5572 8.97167 15.0551 8.65158M10.7394 8.99981C11.5115 9.27822 12.3364 9.38494 13.1551 9.31231C13.1943 9.5062 13.2095 9.70408 13.2004 9.9016C12.196 9.9016 11.0018 9.70516 10.7484 9.00873M10.6399 9.57124C11.038 10.5623 12.4041 10.4641 13.5622 10.4641C13.5069 10.6065 13.4007 10.724 13.2637 10.7944C12.6466 11.0132 11.9717 11.0132 11.3546 10.7944C11.0655 10.586 10.8223 10.3217 10.6399 10.0177C10.5675 9.9016 10.1241 9.62481 10.6399 9.62481" fill="#231F20"/>
<path fill-rule="evenodd" clip-rule="evenodd" d="M14.6031 15L13.1284 17.3037C13.363 16.4292 13.4875 15.5295 13.4993 14.625C13.6975 14.548 13.9169 14.5425 14.1188 14.6095C14.3207 14.6765 14.4922 14.8117 14.6031 14.9912" fill="#82B1C4"/>
<path fill-rule="evenodd" clip-rule="evenodd" d="M17.1183 17.8484C16.5935 17.9466 16.2135 18.4466 15.7158 18.4199C15.888 18.2229 16.1046 18.0686 16.3481 17.9694C16.5917 17.8701 16.8554 17.8286 17.1183 17.8484ZM17.3444 18.652C16.8955 18.719 16.4412 18.7459 15.9873 18.7324C16.1954 18.4199 16.9825 18.527 17.3444 18.652ZM17.4983 19.3484C17.0187 19.3484 16.4216 19.3484 15.9602 19.3484C16.2316 19.0627 17.1816 19.2412 17.4983 19.3484Z" fill="#231F20"/>
<path fill-rule="evenodd" clip-rule="evenodd" d="M13.6981 21.2586C13.8411 21.8661 13.9318 22.4844 13.9696 23.1069C13.7283 23.2154 13.4657 23.2702 13.2006 23.2676L13.1191 21.3479C13.3 21.3479 13.5534 21.2229 13.6981 21.2676" fill="#DCD9D8"/>
<path fill-rule="evenodd" clip-rule="evenodd" d="M12.9199 12.4908C12.6847 12.6515 12.4766 12.848 12.2414 13.0087C12.032 13.0406 11.8182 13.0285 11.6139 12.9731C11.4097 12.9177 11.2196 12.8202 11.0562 12.6872C11.0562 12.6872 11.1014 12.6872 11.1014 12.6426C11.6533 12.8837 12.3499 12.5444 12.9109 12.4908" fill="#F1D7B8"/>
<path fill-rule="evenodd" clip-rule="evenodd" d="M10.043 16.1875C10.1877 15.5446 10.7849 15.2144 11.3187 14.8571C11.8455 15.6156 12.2713 16.4379 12.5853 17.3036C11.6995 17.0234 10.847 16.6491 10.043 16.1875Z" fill="#82B1C4"/>
<path fill-rule="evenodd" clip-rule="evenodd" d="M13.1283 21.3482C13.1283 21.875 13.1735 22.7233 13.2007 23.2768C13.4691 23.2731 13.7338 23.2154 13.9788 23.1071C13.9381 22.4844 13.8442 21.8661 13.6983 21.2589C13.5625 21.2589 13.3002 21.3571 13.1283 21.3392V21.3482ZM7.59115 18.3483C7.77587 20.3284 8.17628 22.2831 8.78544 24.1786C10.1745 24.5936 11.6534 24.6184 13.0559 24.25C12.8298 23.1875 12.9292 21.9017 12.8025 20.7589L12.6126 18.1786C10.9396 17.9621 9.24152 18.0286 7.59115 18.375V18.3483ZM13.0198 18.1607C13.0198 19.0536 13.0198 19.9464 13.1283 20.8929L14.0331 20.7321C13.9888 19.8332 13.8829 18.9384 13.7164 18.0536C13.4722 18.0405 13.2276 18.0676 12.9925 18.1339L13.0198 18.1607ZM14.8292 18.0179C14.655 17.9955 14.4787 17.9955 14.3046 18.0179L14.6212 20.3661C14.8269 20.3464 15.0285 20.2951 15.2183 20.2143C15.2653 19.4613 15.1288 18.7081 14.8202 18.0179H14.8292ZM17.5435 20.4732C17.8239 20.372 18.0539 20.1677 18.1854 19.9032C18.3168 19.6388 18.3398 19.3344 18.2492 19.0536C18.1628 18.5185 18.0078 17.9964 17.7879 17.5C17.6521 17.2946 17.2721 17.0179 16.9646 17.2143C16.4759 17.5179 15.6073 17.6161 15.2454 17.9911C15.4157 18.6976 15.5217 19.4177 15.5621 20.1429C16.1882 20.0671 16.8223 20.0821 17.444 20.1875C17.0596 20.251 16.6812 20.3465 16.3131 20.4732C16.7159 20.581 17.1406 20.581 17.5435 20.4732ZM12.5945 17.3036C12.275 16.4401 11.8497 15.6185 11.3278 14.8571C10.794 15.2143 10.1969 15.5446 10.0521 16.1964C10.8533 16.6551 11.7028 17.0264 12.5854 17.3036H12.5945ZM13.4992 14.625C13.4875 15.5295 13.3629 16.4291 13.1283 17.3036C13.671 16.5688 14.1637 15.7992 14.6031 15C14.4921 14.8205 14.3206 14.6854 14.1187 14.6184C13.9168 14.5515 13.6974 14.557 13.4992 14.6339V14.625ZM12.4678 14.2679C12.2597 14.2679 12.0788 14.5 11.8073 14.3929L11.6173 14.5983C12.1452 15.4161 12.5964 16.2799 12.9654 17.1786C13.1609 16.3323 13.255 15.4663 13.2459 14.5983C12.9021 14.5983 12.7121 14.2857 12.4678 14.2589V14.2679ZM11.7983 13.375C11.7948 13.5809 11.8254 13.786 11.8888 13.9821C12.7121 14.2679 12.5673 12.9018 11.8073 13.4018L11.7983 13.375ZM10.8935 13.0804C10.4719 12.8595 10.0212 12.6973 9.55449 12.5982C8.98449 12.4911 9.03878 13.3571 9.06592 13.875C9.12096 14.2603 9.2306 14.636 9.39163 14.9911C9.43686 15.125 9.44592 15.2589 9.55449 15.2768C9.91228 15.2434 10.2598 15.1402 10.5769 14.9732C10.9282 14.7382 11.2664 14.485 11.5902 14.2142V13.8929C11.3682 13.781 11.1245 13.717 10.8754 13.7054C11.0745 13.6071 11.364 13.6161 11.545 13.5V13.3661C11.3004 13.33 11.0696 13.2315 10.8754 13.0804H10.8935ZM7.51878 12.4821C7.22925 12.7679 8.34211 13.1696 8.69496 13.1964C8.69496 13.0089 8.80353 12.8304 8.78544 12.6964C8.3602 12.625 7.8083 12.6964 7.51878 12.4821ZM11.1378 12.6161C11.1378 12.6161 11.1378 12.6161 11.0926 12.6608C11.2538 12.7914 11.4409 12.8874 11.6419 12.9428C11.8428 12.9981 12.0532 13.0115 12.2597 12.9821L12.9383 12.4643C12.3864 12.5714 11.6897 12.8839 11.1378 12.6429V12.6161ZM14.4492 13.6071C14.4492 13.2768 14.3498 12.6071 14.1417 12.4911C13.7164 12.25 12.9564 12.9911 12.6307 13.1071C12.6799 13.2025 12.7136 13.305 12.7302 13.4107C12.9288 13.3687 13.1359 13.3939 13.3183 13.4821C13.1344 13.4777 12.952 13.5144 12.7846 13.5892C12.7745 13.7529 12.7745 13.9169 12.7846 14.0804C13.2802 14.2363 13.7941 14.3292 14.3135 14.3571C14.4389 14.1376 14.4867 13.8831 14.4492 13.6339V13.6071ZM7.0302 12.7143C6.93972 12.6517 6.31544 11.8214 6.24305 11.8839C5.11624 12.3757 4.06539 13.0219 3.12163 13.8036C3.99283 15.8534 4.44188 18.0539 4.44259 20.2767C5.45092 20.915 6.58635 21.3321 7.77211 21.5L7.37401 18.3125C7.02115 18.1607 6.51449 18.3125 6.18878 18.2589C6.18878 17.875 6.68639 18.0893 6.73163 17.8304C6.77686 17.5714 6.45115 17.6161 6.55972 17.3036C6.81305 17.3929 6.94878 17.5983 7.2202 17.6786C7.47353 17.1339 7.2202 16.1786 7.2202 15.7232C7.2202 15.6429 7.2202 15.25 7.44639 15.3214C7.67259 15.3929 7.44639 16.3482 7.44639 16.7679C7.40435 17.1145 7.44461 17.466 7.56401 17.7946C8.94649 17.6019 10.3392 17.4885 11.735 17.4554C11.3713 17.3358 11.0148 17.1956 10.6673 17.0357C10.4412 16.9107 9.76259 16.6517 9.65401 16.4375C9.54544 16.2232 9.93449 15.9196 9.99782 15.625C9.31925 15.9911 9.18353 15.2767 9.02068 14.7321C8.90416 14.3825 8.8164 14.0243 8.7583 13.6608C8.15917 13.4149 7.58381 13.116 7.03925 12.7679L7.0302 12.7143ZM13.8521 11.9821C14.7569 11.5357 14.965 13.6607 14.594 14.3482C14.6483 14.5536 14.8473 14.6339 14.9288 14.8125L13.2912 17.4911C13.6892 17.25 14.2592 17.4464 14.7117 17.2589C14.8835 17.1875 15.0102 16.8036 15.1369 16.5C15.5216 15.6151 15.8243 14.6976 16.0417 13.7589C16.1109 13.5145 16.1505 13.2626 16.1592 13.0089C16.1592 12.7142 15.7159 12.5 15.5079 12.3036L14.4945 11.3571C14.3317 11.5982 13.9879 11.75 13.8612 11.9375L13.8521 11.9821ZM4.87686 3.83929C4.51764 4.45849 4.40782 5.18845 4.56925 5.88392C4.74374 5.76772 4.94607 5.69874 5.15604 5.68384C5.366 5.66894 5.57624 5.70865 5.76579 5.79901C5.95533 5.88938 6.11754 6.02723 6.23623 6.1988C6.3549 6.37038 6.42588 6.56967 6.44211 6.77679C6.83115 6.77679 6.58686 6.30358 6.51449 6C6.2883 5.01786 6.90353 3.95536 6.51449 3.0625C5.87495 3.09491 5.27388 3.37386 4.84068 3.83929H4.87686ZM8.07068 1.02679C6.95387 1.29722 5.98334 1.97724 5.35639 2.92858C5.68211 2.92858 5.89925 2.72321 6.26115 2.69642C6.39955 2.70991 6.53895 2.70991 6.67734 2.69642C6.95782 2.63392 7.18401 2.02679 7.39211 1.80358C7.6002 1.58036 7.83544 1.49107 8.00734 1.29464C8.11592 1.24107 8.26972 1.24107 8.27878 1.08036C8.25794 1.05819 8.23277 1.04043 8.20478 1.02815C8.17678 1.01587 8.14655 1.00933 8.11592 1.00893L8.07068 1.02679ZM13.3454 1.28571C12.2869 0.705358 10.5135 0.267857 9.39163 0.8125C8.34751 1.24077 7.46279 1.97665 6.8583 2.91964C7.24734 3.8125 6.74068 4.64286 6.71353 5.55358C6.71353 6.03571 6.93972 6.44643 6.95782 6.99108C6.83115 7.20536 6.42401 7.23214 6.14353 7.22321C6.04401 6.75 5.88115 6.23214 5.39259 6.17858C5.24302 6.16515 5.09224 6.18151 4.9492 6.22666C4.80616 6.27181 4.67375 6.34485 4.55984 6.44144C4.44593 6.53802 4.35284 6.6562 4.28608 6.78896C4.2193 6.92171 4.18022 7.06635 4.17115 7.21429C4.17115 7.91071 4.70497 9.05357 5.51925 9C5.83592 9 5.91734 8.65179 6.26115 8.65179C6.44211 9.02679 5.97163 9.13393 5.92639 9.40179C5.92929 9.5555 5.95054 9.70834 5.98972 9.85714C6.15762 10.5113 6.42939 11.1351 6.79496 11.7054C7.21115 12.2857 8.02544 12.375 8.89401 12.4286C9.04782 12.0982 9.62686 12.125 9.99782 12.2143C9.53114 11.9741 9.1187 11.6431 8.78544 11.2411C8.35075 10.8605 8.06303 10.3431 7.97115 9.77679C8.56905 10.8554 9.5287 11.6951 10.6854 12.1518C11.2189 12.2751 11.7738 12.2773 12.3082 12.1582C12.8427 12.0392 13.3426 11.8019 13.7706 11.4643C14.0734 11.2113 14.3304 10.9094 14.5307 10.5714C15.4221 9.1568 15.8399 7.50126 15.725 5.83929C15.7473 5.19684 15.6523 4.55566 15.4446 3.94642C15.1912 3.44642 14.3407 3 13.8431 3.45536C13.7525 2.97321 14.2592 2.66964 14.8473 2.84821C14.4658 2.24871 13.9676 1.72979 13.3817 1.32142L13.3454 1.28571ZM15.2998 17.2767C16.1231 16.875 17.6521 16.1964 18.1679 17.2767C18.3813 17.7589 18.5538 18.2576 18.6835 18.7679C18.8192 19.3483 18.5206 20.5536 17.9235 20.7679C17.331 20.9256 16.7067 20.9256 16.114 20.7679C16.0229 20.688 15.9491 20.5909 15.8969 20.4821C15.466 20.4445 15.0325 20.5184 14.6392 20.6964C14.6392 21.0357 14.4402 21.0893 14.2231 21.1608C14.0692 21.7858 14.5488 22.6071 14.4312 23.1786C14.3498 23.5804 13.8431 23.6429 13.4721 23.7232C13.4488 23.925 13.4488 24.1286 13.4721 24.3304C13.4002 24.4884 13.2831 24.6224 13.1353 24.7159C12.9875 24.8094 12.8153 24.8585 12.6397 24.8571C11.256 25.0651 9.8441 24.9984 8.48686 24.6607C8.1702 23.8839 7.91686 22.9375 7.64544 22.0536C6.62018 22.0301 5.62263 21.7205 4.7683 21.1608C4.46972 21.0268 4.05353 20.9464 3.95401 20.7142C3.89256 20.3846 3.87432 20.0485 3.89972 19.7143C3.86809 18.6684 3.73479 17.6279 3.50163 16.6071C3.37496 16.1339 3.15782 15.7142 3.01305 15.25C2.82562 14.8011 2.67436 14.3384 2.56068 13.8661C2.46115 13.2411 3.06734 13.2054 3.46544 12.9733C4.06259 12.5536 4.53305 12.3214 5.17544 11.9375C5.47448 11.7976 5.7542 11.6205 6.00782 11.4107C6.13449 11.1429 5.78163 10.7768 5.69115 10.5714C5.55163 10.2918 5.46574 9.98906 5.43782 9.67857C5.19615 9.64118 4.96508 9.55435 4.75941 9.42366C4.55374 9.29296 4.37803 9.12129 4.24353 8.91964C3.9809 8.54486 3.812 8.11401 3.75067 7.66239C3.68934 7.21076 3.73732 6.75122 3.89068 6.32142C3.95895 6.22819 4.01946 6.12965 4.07163 6.02679C4.0708 5.80121 4.04346 5.5765 3.9902 5.35714C3.9902 4.26786 4.1802 3.33929 4.89496 3.00892C5.21163 1.85714 6.2883 1.44642 7.30163 0.857144C7.69325 0.653279 8.10189 0.483009 8.52305 0.348215C9.37249 0.0484375 10.2786 -0.0621939 11.1765 0.0242493C12.0743 0.110693 12.9417 0.39207 13.7164 0.848215C14.4121 1.36535 14.9991 2.01131 15.4446 2.75C16.2679 4.38392 16.2046 7.11608 15.6346 9.10714C15.5442 9.44232 15.4293 9.77058 15.2907 10.0893C15.1731 10.3125 14.8383 10.7679 14.8835 10.9821C14.9288 11.1964 15.6525 11.7321 15.7883 11.875C15.924 12.0179 16.6117 12.5 16.6479 12.8393C16.64 13.2511 16.5509 13.6575 16.3854 14.0357L15.3088 17.2767" fill="#231F20"/>
<path fill-rule="evenodd" clip-rule="evenodd" d="M9.82563 9.24985C9.82563 9.18735 10.1151 9.09806 10.4499 9.24985C10.4499 9.24985 10.0518 9.31235 10.079 9.98199H9.9161C9.9161 9.98199 9.73515 9.37485 9.82563 9.26771" fill="#F7E4CE"/>
<path fill-rule="evenodd" clip-rule="evenodd" d="M12.7935 14.991C12.7935 15.028 12.7825 15.0643 12.7616 15.0952C12.7407 15.126 12.7111 15.15 12.6763 15.1643C12.6416 15.1784 12.6034 15.1822 12.5665 15.1749C12.5297 15.1677 12.4958 15.1498 12.4692 15.1235C12.4426 15.0974 12.4246 15.0639 12.4172 15.0275C12.4099 14.9912 12.4137 14.9535 12.428 14.9193C12.4424 14.885 12.4668 14.8557 12.498 14.8352C12.5293 14.8145 12.566 14.8035 12.6036 14.8035C12.6533 14.8057 12.7003 14.8262 12.7355 14.8608C12.7706 14.8955 12.7914 14.942 12.7935 14.991ZM12.9745 15.8839C12.9745 15.9335 12.9545 15.9813 12.9189 16.0164C12.8832 16.0517 12.8349 16.0714 12.7845 16.0714C12.7599 16.0714 12.7356 16.0665 12.7131 16.0569C12.6905 16.0474 12.6701 16.0335 12.6533 16.0159C12.6363 15.9984 12.6232 15.9777 12.6147 15.9549C12.6061 15.9323 12.6024 15.908 12.6036 15.8839C12.6036 15.8365 12.6226 15.791 12.6566 15.7575C12.6905 15.7242 12.7365 15.7053 12.7845 15.7053C12.8091 15.704 12.8335 15.7078 12.8566 15.7163C12.8795 15.7247 12.9005 15.7377 12.9184 15.7543C12.9361 15.771 12.9503 15.7912 12.96 15.8134C12.9696 15.8357 12.9745 15.8597 12.9745 15.8839Z" fill="#1D1919"/>
</g>
</g>
<defs>
<clipPath id="clip0_4134_1586">
<rect width="19" height="25" fill="white"/>
</clipPath>
</defs>
</svg>
