<svg width="1107" height="569" viewBox="0 0 1107 569" fill="none" xmlns="http://www.w3.org/2000/svg">
<g clip-path="url(#clip0_4109_1294)">
<ellipse cx="716" cy="517" rx="267" ry="37" fill="#E1D9EE"/>
<ellipse cx="716" cy="502" rx="267" ry="25" fill="#BEAFD6"/>
<path d="M822.249 241.096C785.347 206.535 742.112 197.625 730.688 195.793C738.387 175.047 750.278 144.207 753.239 139.644C754.196 139.519 756.144 139.314 759.014 139.314C767.408 139.314 785.369 141.055 811.36 152.742C848.889 169.619 858.946 188.601 860.917 193.244L822.249 241.096Z" fill="white"/>
<path d="M759.014 141.59C767.226 141.59 784.823 143.308 810.427 154.825C844.379 170.097 855.359 187.155 858.252 192.936L821.999 237.774C800.187 217.927 776.668 206.968 760.415 201.198C748.877 197.101 739.447 195.008 733.786 193.995C742.294 171.155 751.543 147.655 754.652 141.772C755.666 141.681 757.123 141.59 759.014 141.59ZM759.014 137.038C754.447 137.038 752.101 137.516 752.101 137.516C749.435 138.403 727.567 197.648 727.567 197.648C727.567 197.648 779.458 202.939 822.465 244.442L863.514 193.665C863.514 193.665 856.668 170.609 812.306 150.671C786.304 138.984 768.183 137.038 759.014 137.038Z" fill="#A0C6F4"/>
<path d="M735.187 202.257C735.187 202.257 786.212 207.412 817.659 236.249" stroke="#2A1E17" stroke-miterlimit="10" stroke-linecap="round" stroke-linejoin="round"/>
<path d="M779.253 199.764L798.285 162.779L817.853 201.358L779.253 199.764Z" fill="#A0C6F4"/>
<path d="M782.955 199.241L801.987 162.256L821.554 200.823L782.955 199.241Z" stroke="#2A1E17" stroke-miterlimit="10" stroke-linecap="round" stroke-linejoin="round"/>
<path d="M765.084 134.785C765.084 134.785 822.294 139.94 857.864 182.16" stroke="#2A1E17" stroke-miterlimit="10" stroke-linecap="round" stroke-linejoin="round"/>
<path d="M794.322 298.679C791.178 296.369 789.117 294.822 789.117 294.822C789.982 293.661 803.752 279.003 811.725 267.191C811.725 267.202 795.597 299.624 794.322 298.679Z" fill="#2A1E17"/>
<path d="M599.229 191.855C600.767 194.405 601.439 193.392 605.87 193.05C610.3 192.709 616.599 195.941 618.82 201.392C621.041 206.843 620.357 207.685 619.161 208.368C617.965 209.051 609.446 210.075 609.104 211.77" stroke="#2A1E17" stroke-miterlimit="10" stroke-linecap="round" stroke-linejoin="round"/>
<path d="M714.002 468.913L710.038 462.21L695.949 485.664L699.651 488.509L714.002 468.913Z" fill="#F9865F"/>
<path d="M620.505 410.761C620.505 410.761 613.204 398.903 616.336 393.099L639.616 395.591L620.505 410.761Z" fill="#F9865F"/>
<path d="M620.505 410.761L621.894 413.959L617.589 430.71C617.042 432.815 617.748 435.057 619.4 436.48L640.687 405.037C642.714 402.055 642.247 398.038 639.605 395.58L634.844 391.165L620.505 410.761Z" fill="black"/>
<path d="M609.115 211.77C615.778 211.611 624.229 211.19 622.543 206.126C620.858 201.062 614.514 188.396 600.152 192.197C600.152 192.197 595.083 196.419 601.416 204.009C607.748 211.611 609.115 211.77 609.115 211.77Z" fill="#2A1E33"/>
<path d="M642.851 395.876C642.851 395.876 631.473 362.305 641.097 347.568C649.047 335.403 675.004 355.193 678.569 357.855L697.145 324.33C697.145 324.33 692.851 318.321 682.327 312.438C671.803 306.554 628.306 288.938 607.862 321.166C600.311 333.081 600.197 384.177 614.684 403.762L642.851 395.876Z" fill="#3D4C88"/>
<path d="M642.851 395.876C642.851 395.876 631.473 362.305 641.097 347.568C649.047 335.403 675.004 355.192 678.569 357.855" stroke="#2A1E17" stroke-miterlimit="10" stroke-linecap="round" stroke-linejoin="round"/>
<path d="M697.145 324.33C688.694 333.218 663.649 376.507 658.011 397.196C650.471 424.872 653.307 447.826 694.719 492.765L714.742 463.632C714.742 463.632 700.665 442.272 703.296 422.152C707.1 393.031 727.84 364.797 738.33 346.885L697.145 324.33Z" fill="#273270"/>
<path d="M700.323 328.097L733.626 354.202L743.58 339.09L700.323 328.097Z" fill="#2A1E17"/>
<path d="M891.577 300.637C896.771 301.752 900.723 303.721 903.445 306.566C906.167 309.411 904.926 310.89 903.935 311.755C902.944 312.62 899.117 311.63 895.78 308.671C892.443 305.701 891.577 300.637 891.577 300.637Z" fill="#FF8A66"/>
<path d="M789.116 294.822C789.982 293.661 803.752 279.003 811.725 267.191C811.725 267.191 835.814 294.162 838.433 295.038C839.401 295.356 845.312 295.288 852.647 295.208C865.039 295.083 881.52 294.958 885.165 296.779C890.973 299.681 894.458 301.126 895.905 305.189C897.351 309.251 897.932 311.903 894.459 312.153C890.392 312.438 887.784 307.226 887.784 307.226C887.784 307.226 884.458 309.229 875.882 312.449C875.882 312.449 845.005 324.421 824.367 318.629C818.729 317.047 789.116 294.822 789.116 294.822Z" fill="#FC97B7"/>
<path d="M601.951 187.087C599.297 188.1 597.692 189.295 599.229 191.855C600.767 194.404 601.439 193.392 605.869 193.05C610.3 192.709 616.598 195.941 618.819 201.392C621.04 206.843 620.357 207.685 619.161 208.368C617.965 209.05 609.446 210.075 609.104 211.77C608.762 213.477 612.555 218.496 620.391 218.154L622.27 217.813C622.27 217.813 638.751 233.893 641.131 236.283C643.512 238.661 661.04 250.531 670.699 252.943C678.034 254.775 692.909 252.408 701.838 250.667C706.177 249.825 709.116 249.119 709.116 249.119C709.116 249.119 702.407 237.057 701.052 218.496C701.052 218.496 685.016 221.068 674.355 223.412C674.355 223.412 649.48 209.551 637.384 203.429C637.384 203.429 626.826 190.49 621.883 188.794C616.951 187.087 605.528 185.733 601.951 187.087Z" fill="#FC97B7"/>
<path d="M701.849 250.679C706.189 249.837 709.127 249.131 709.127 249.131C709.127 249.131 701.018 238.912 699.651 220.362C699.651 220.362 695.984 224.311 697.123 234.815C698.569 248.027 701.849 250.679 701.849 250.679Z" fill="#2A1E17"/>
<path d="M699.264 218.28C699.264 218.28 699.491 240.949 705.573 250.417L707.749 249.541C707.749 249.541 679.093 283.032 669.833 304.916C668.318 308.5 729.321 347.431 738.33 346.885C738.33 346.885 768.057 301.559 778.216 288.13L789.139 296.586C789.139 296.586 810.563 274.907 811.713 267.202C811.713 267.202 791.018 242.041 774.082 234.667C757.146 227.304 742.02 214.672 723.831 215.025C708.102 215.321 699.264 218.28 699.264 218.28Z" fill="#7957E9"/>
<path d="M789.15 296.586L778.216 288.119L779.959 283.385L789.15 296.586Z" fill="#2A1E17"/>
<path d="M805.768 206.922C803.854 212.863 798.331 230.058 792.169 232.186C786.007 234.314 779.595 231.64 779.595 231.64L773.034 234.997C772.305 237.193 767.123 239.082 760.437 239.344C755.483 239.537 752.465 233.176 753.934 228.578C754.606 226.462 757.123 216.049 757.123 216.049C757.123 216.049 762.431 196.521 767.317 192.481C772.203 188.453 776.793 184.458 789.834 189.716C809.8 197.796 805.768 206.922 805.768 206.922Z" fill="#F9865F"/>
<path d="M766.166 207.776C765.289 211.429 761.485 218.724 759.002 217.415C756.519 216.106 755.642 212.738 757.396 206.319C759.15 199.901 760.608 185.289 765.574 182.672C770.54 180.043 772.738 183.104 772.738 183.104C772.738 183.104 770.551 172.441 776.975 170.984C776.975 170.984 779.162 169.96 778.285 177.266C778.285 177.266 780.768 170.552 788.809 171.428C796.85 172.304 799.617 183.548 799.617 183.548C799.617 183.548 800.198 180.487 803.854 180.487C807.511 180.487 813.057 185.892 811.747 191.878C811.747 191.878 821.098 188.953 826.064 196.407C831.03 203.85 830.449 212.032 818.467 215.241C805.939 218.598 806.041 203.998 804.151 202.097C802.248 200.197 800.21 198.012 793.194 200.641C786.178 203.269 778.877 195.531 778.877 195.531C778.877 195.531 777.704 204.874 776.542 205.75C775.369 206.627 773.034 207.799 773.615 203.417C774.196 199.036 774.925 199.48 774.492 198.308C774.059 197.136 772.077 193.46 767.92 196.703C763.251 200.322 766.166 207.776 766.166 207.776Z" fill="#2A1E33"/>
<path d="M768.159 209.403C765.369 207.059 763.444 202.94 765.893 198.82C768.341 194.7 772.362 194.143 773.581 195.702C774.799 197.261 775.278 199.89 774.127 203.008" stroke="#2A1E33" stroke-miterlimit="10" stroke-linecap="round" stroke-linejoin="round"/>
<path d="M699.651 488.509L701.04 491.707L696.735 508.458C696.188 510.564 696.894 512.806 698.546 514.228L719.833 482.785C721.86 479.804 721.393 475.786 718.751 473.328L713.99 468.913L699.651 488.509Z" fill="black"/>
<path d="M772.749 183.093C772.749 183.093 771.121 177.79 766.234 176.401" stroke="#2A1E33" stroke-miterlimit="10" stroke-linecap="round" stroke-linejoin="round"/>
<path d="M669.172 303.311L728.148 221" stroke="#2A1E17" stroke-miterlimit="10" stroke-linecap="round" stroke-linejoin="round"/>
<path d="M752.453 226.758C750.323 229.523 749.355 241.393 759.139 242.166C768.923 242.94 775.164 238.65 775.164 238.65" stroke="#2A1E17" stroke-miterlimit="10" stroke-linecap="round" stroke-linejoin="round"/>
<path d="M621.883 188.794C621.883 188.794 628.625 197.705 629.685 200.88" stroke="#2A1E17" stroke-miterlimit="10" stroke-linecap="round" stroke-linejoin="round"/>
<path d="M874.311 308.318C874.311 308.318 878.809 312.028 887.784 307.226C891.042 305.485 888.718 301.377 884.607 302.401C880.484 303.425 875.598 301.889 875.598 301.889" stroke="#2A1E17" stroke-miterlimit="10" stroke-linecap="round" stroke-linejoin="round"/>
<path d="M893.126 301.149C893.126 301.149 897.443 306.19 897.329 309.183" stroke="#2A1E17" stroke-miterlimit="10" stroke-linecap="round" stroke-linejoin="round"/>
<path d="M829.526 300.603C829.526 300.603 833.433 295.402 838.433 295.049" stroke="#2A1E17" stroke-miterlimit="10" stroke-linecap="round" stroke-linejoin="round"/>
<path d="M664.776 231.822C664.776 231.822 667.054 224.721 674.366 223.412" stroke="#2A1E17" stroke-miterlimit="10" stroke-linecap="round" stroke-linejoin="round"/>
<path d="M684.583 339.568L675.87 356.228C675.87 356.228 647.122 404.844 656.872 436.241" stroke="#2A1E17" stroke-miterlimit="10" stroke-linecap="round" stroke-linejoin="round"/>
<path d="M710.05 395.33L738.33 346.885C738.33 346.885 775.403 293.16 779.196 285.581L792.283 261.398" stroke="#2A1E17" stroke-miterlimit="10" stroke-linecap="round" stroke-linejoin="round"/>
<path d="M673.113 308.478C673.113 308.478 723.41 345.121 738.33 346.885" stroke="#2A1E17" stroke-miterlimit="10" stroke-linecap="round" stroke-linejoin="round"/>
<path d="M699.264 218.28C699.264 218.28 699.218 241.279 705.425 250.701" stroke="#2A1E17" stroke-miterlimit="10" stroke-linecap="round" stroke-linejoin="round"/>
<path d="M810.107 263.561C808.524 273.04 787.533 292.944 787.533 292.944" stroke="#2A1E17" stroke-miterlimit="10" stroke-linecap="round" stroke-linejoin="round"/>
<path d="M653.432 381.594C655.08 381.594 656.416 380.259 656.416 378.613C656.416 376.966 655.08 375.631 653.432 375.631C651.784 375.631 650.448 376.966 650.448 378.613C650.448 380.259 651.784 381.594 653.432 381.594Z" fill="#2A1E17"/>
<path d="M933.662 442.739L932.01 431.325L941.76 437.8L936.657 438.915L933.662 442.739Z" stroke="#2A1E17" stroke-miterlimit="10" stroke-linecap="round" stroke-linejoin="round"/>
<path d="M610.494 247.879C592.031 231.606 561.518 272.198 673.17 401.395C737.579 475.934 788.183 482.615 795.039 456.68C807.34 410.158 762.92 398.403 779.447 416.622C803.479 443.115 871.839 448.714 922.773 423.985C973.036 399.586 942.136 361.702 939.015 359.494" stroke="#2A1E17" stroke-miterlimit="10" stroke-linecap="round" stroke-linejoin="round"/>
<path d="M923.582 426.739C925.23 426.739 926.566 425.404 926.566 423.757C926.566 422.111 925.23 420.776 923.582 420.776C921.934 420.776 920.598 422.111 920.598 423.757C920.598 425.404 921.934 426.739 923.582 426.739Z" fill="#2A1E17"/>
<path d="M880.119 448.122L968.662 398.255" stroke="#2A1E17" stroke-miterlimit="10" stroke-linecap="round" stroke-linejoin="round"/>
<path d="M612.339 253.273C613.987 253.273 615.323 251.939 615.323 250.292C615.323 248.645 613.987 247.31 612.339 247.31C610.691 247.31 609.354 248.645 609.354 250.292C609.354 251.939 610.691 253.273 612.339 253.273Z" fill="#2A1E17"/>
<path d="M688.501 195.087C692.042 195.087 694.913 192.219 694.913 188.68C694.913 185.142 692.042 182.273 688.501 182.273C684.959 182.273 682.088 185.142 682.088 188.68C682.088 192.219 684.959 195.087 688.501 195.087Z" fill="#FF6D66"/>
<path d="M572.224 139.837C570.664 139.837 569.411 141.101 569.411 142.648C569.411 144.196 570.675 145.459 572.224 145.459C573.773 145.459 575.038 144.196 575.038 142.648C575.038 141.101 573.773 139.837 572.224 139.837Z" fill="#A0C6F4"/>
<path d="M949.664 489.408C951.218 489.408 952.478 488.15 952.478 486.597C952.478 485.045 951.218 483.787 949.664 483.787C948.111 483.787 946.851 485.045 946.851 486.597C946.851 488.15 948.111 489.408 949.664 489.408Z" fill="#FAD8B0"/>
<path d="M899.333 359.483L869.048 345.28C866.6 344.131 866.645 340.649 869.117 339.556L925.45 314.793C926.247 314.441 927.158 314.441 927.955 314.782L966.657 331.374L899.333 359.483Z" fill="#2A1E33"/>
<path d="M897.466 312.825C897.545 325.343 899.345 359.494 899.345 359.494L966.669 331.397L965.154 283.885C965.063 280.972 962.033 279.083 959.368 280.301L901.395 306.691C898.992 307.772 897.443 310.173 897.466 312.825Z" fill="#C6CBCB"/>
<path d="M899.333 359.483L966.657 331.386L965.143 283.874C965.143 283.874 964.698 278.685 959.357 280.289" stroke="#2A1E17" stroke-miterlimit="10" stroke-linecap="round" stroke-linejoin="round"/>
<path d="M931.919 325.331L936.475 314.6" stroke="#2A1E17" stroke-miterlimit="10" stroke-linecap="round" stroke-linejoin="round"/>
<path d="M936.475 325.331L941.019 314.6" stroke="#2A1E17" stroke-miterlimit="10" stroke-linecap="round" stroke-linejoin="round"/>
<path d="M584.366 442.432C585.92 442.432 587.179 441.173 587.179 439.621C587.179 438.069 585.92 436.81 584.366 436.81C582.812 436.81 581.553 438.069 581.553 439.621C581.553 441.173 582.812 442.432 584.366 442.432Z" fill="#FF6D66"/>
<path d="M821.873 457.487C824.037 457.487 825.791 455.735 825.791 453.573C825.791 451.411 824.037 449.658 821.873 449.658C819.709 449.658 817.955 451.411 817.955 453.573C817.955 455.735 819.709 457.487 821.873 457.487Z" fill="#FF6D66"/>
<path d="M613.558 481.351C618.136 483.548 631.473 489.09 649.127 488.976C650.095 488.965 650.836 489.818 650.722 490.785L648.262 510.279C648.171 510.973 647.647 511.531 646.963 511.656C641.975 512.589 621.883 515.343 606.849 502.609C606.382 502.211 606.188 501.574 606.348 500.982L611.314 482.398C611.576 481.42 612.646 480.919 613.558 481.351Z" fill="#FFF7DC"/>
<path d="M615.323 487.087C615.323 487.087 624.002 499.275 627.1 501.027C630.198 502.769 646.917 492.822 646.917 492.822" stroke="#2A1E17" stroke-miterlimit="10" stroke-linecap="round" stroke-linejoin="round"/>
<path d="M635.289 499.32L644.412 508.686" stroke="#2A1E17" stroke-miterlimit="10" stroke-linecap="round" stroke-linejoin="round"/>
<path d="M622.612 497.511L611.952 500.413" stroke="#2A1E17" stroke-miterlimit="10" stroke-linecap="round" stroke-linejoin="round"/>
<path d="M892.887 250.804H882.693V260.989H892.887V250.804Z" fill="#FFE1C0"/>
<path d="M884.071 388.16L887.101 393.395L890.131 398.641H884.071H878.012L881.042 393.395L884.071 388.16Z" fill="#A0C6F4"/>
<path d="M639.127 155.917L639.913 132.122C639.833 129.903 640.733 129.197 642.1 128.89C648.569 127.456 668.239 123.075 689.628 129.402C692.396 130.221 692.305 131.678 692.259 132.998L691.496 155.69C691.439 157.351 689.697 158.558 687.749 158.273C681.508 157.363 673.011 157.078 664.378 157.146C655.46 157.226 647.521 157.886 641.963 158.956C639.867 159.354 639.07 157.772 639.127 155.917Z" stroke="#2A1E17" stroke-miterlimit="10" stroke-linecap="round" stroke-linejoin="round"/>
<path d="M646.325 152.435L658.774 137.869L672.555 151.456C667.806 149.92 646.325 152.435 646.325 152.435Z" stroke="#2A1E17" stroke-miterlimit="10" stroke-linecap="round" stroke-linejoin="round"/>
<path d="M666.417 144.617L676.474 136.56L684.959 142.614L685.278 152.071L672.567 151.468" stroke="#2A1E17" stroke-miterlimit="10" stroke-linecap="round" stroke-linejoin="round"/>
<path d="M651.751 136.823C651.867 135.678 650.87 134.641 649.525 134.505C648.179 134.369 646.994 135.186 646.879 136.33C646.763 137.475 647.76 138.513 649.105 138.648C650.451 138.784 651.635 137.967 651.751 136.823Z" stroke="#2A1E17" stroke-miterlimit="10" stroke-linecap="round" stroke-linejoin="round"/>
<path d="M879.903 465.112L888.251 480.521C889.128 481.897 888.821 482.683 888.058 483.388C884.481 486.7 873.616 496.794 857.67 500.72C855.609 501.232 855.119 500.265 854.663 499.411L846.702 484.72C846.121 483.639 846.77 482.227 848.114 481.681C852.42 479.94 857.921 476.97 863.376 473.715C869.014 470.358 873.809 466.99 876.942 464.247C878.149 463.2 879.242 463.906 879.903 465.112Z" stroke="#2A1E17" stroke-miterlimit="10" stroke-linecap="round" stroke-linejoin="round"/>
<path d="M876.622 469.994L874.128 483.866L860.312 480.35C863.912 479.576 876.622 469.994 876.622 469.994Z" stroke="#2A1E17" stroke-miterlimit="10" stroke-linecap="round" stroke-linejoin="round"/>
<path d="M866.771 482.421L863.377 491.275L855.734 490.58L852.01 484.697L860.324 480.35" stroke="#2A1E17" stroke-miterlimit="10" stroke-linecap="round" stroke-linejoin="round"/>
<path d="M881.264 482.595C882.168 482.182 882.617 481.227 882.267 480.461C881.916 479.695 880.9 479.409 879.996 479.821C879.092 480.234 878.643 481.19 878.993 481.956C879.344 482.722 880.361 483.008 881.264 482.595Z" stroke="#2A1E17" stroke-miterlimit="10" stroke-linecap="round" stroke-linejoin="round"/>
<path d="M839.242 202.029L873.172 227.976C873.912 228.545 874.983 228.397 875.541 227.646L880.666 220.704C881.202 219.975 881.065 218.963 880.37 218.405L846.919 191.662C846.167 191.059 845.074 191.218 844.516 191.992L838.912 199.73C838.365 200.447 838.513 201.472 839.242 202.029Z" fill="white" stroke="#2A1E17" stroke-miterlimit="10" stroke-linecap="round" stroke-linejoin="round"/>
<path d="M841.748 200.868L849.983 206.638L854.835 200.846L846.6 193.983L841.748 200.868Z" fill="#FF6D66"/>
<path d="M853.081 208.891L861.315 215.423L865.734 209.995L857.443 203.27L853.081 208.891Z" fill="#FAD8B0"/>
<path d="M864.094 217.927L872.318 223.697L876.236 218.667L868.445 212.146L864.094 217.927Z" fill="#A0C6F4"/>
<path d="M906.953 165.75L914.687 230.684C914.858 232.106 916.167 233.119 917.58 232.926L930.678 231.139C932.044 230.957 933.013 229.717 932.887 228.351L926.543 163.098C926.407 161.642 925.063 160.595 923.616 160.811L909.14 162.927C907.75 163.11 906.782 164.361 906.953 165.75Z" fill="white" stroke="#2A1E17" stroke-miterlimit="10" stroke-linecap="round" stroke-linejoin="round"/>
<path d="M910.905 167.263L913.354 182.455L924.903 181.591L923.65 165.238L910.905 167.263Z" fill="#FF6D66"/>
<path d="M914.197 188.248L915.814 204.26L926.498 203.304L925.028 187.03L914.197 188.248Z" fill="#91BA83"/>
<path d="M916.019 209.984L918.468 225.176L928.183 224.095L927.021 208.584L916.019 209.984Z" fill="#FAD8B0"/>
<path d="M890.074 179.565L911.486 242.462C911.851 243.543 913.035 244.112 914.106 243.725L927.523 238.9C928.559 238.525 929.106 237.41 928.776 236.363L908.662 172.851C908.309 171.736 907.101 171.144 906.008 171.553L891.293 177.004C890.256 177.38 889.709 178.518 890.074 179.565Z" fill="white" stroke="#2A1E17" stroke-miterlimit="10" stroke-linecap="round" stroke-linejoin="round"/>
<path d="M894.414 180.714L899.972 195.065L911.088 191.821L906.464 176.083L894.414 180.714Z" fill="#A0C6F4"/>
<path d="M901.999 200.561L906.919 215.89L917.17 212.738L912.341 197.113L901.999 200.561Z" fill="#F9865F"/>
<path d="M908.309 221.443L913.867 235.782L923.149 232.71L918.787 217.791L908.309 221.443Z" fill="#FAD8B0"/>
<path d="M728.683 286.105H620.551C617.1 286.105 614.309 283.305 614.309 279.868V265.256C614.309 261.808 617.111 259.02 620.551 259.02H728.683C732.134 259.02 734.925 261.82 734.925 265.256V279.868C734.925 283.317 732.134 286.105 728.683 286.105Z" fill="#7595EC"/>
<path d="M688.171 271.106H629.218C628.079 271.106 627.157 270.184 627.157 269.046C627.157 267.908 628.079 266.986 629.218 266.986H688.171C689.31 266.986 690.232 267.908 690.232 269.046C690.232 270.184 689.31 271.106 688.171 271.106Z" fill="white"/>
<path d="M627.737 276.454H727.954" stroke="#2A1E17" stroke-miterlimit="10" stroke-linecap="round" stroke-linejoin="round"/>
<path d="M578.17 209.904L576.461 208.038L570.812 213.193L572.52 215.059C573.238 215.845 574.468 215.901 575.254 215.184L578.044 212.635C578.842 211.918 578.887 210.701 578.17 209.904Z" fill="#91BA83"/>
<path d="M568.318 197.83L576.359 206.627C576.769 207.082 576.746 207.787 576.29 208.197L570.732 213.273C570.277 213.682 569.571 213.66 569.161 213.204L561.119 204.408C560.709 203.952 560.732 203.247 561.188 202.837L566.746 197.762C567.202 197.341 567.908 197.375 568.318 197.83Z" stroke="#2A1E17" stroke-miterlimit="10" stroke-linecap="round" stroke-linejoin="round"/>
<path d="M552.714 244.374H542.611V253.592H552.714V244.374Z" fill="#FF6D66"/>
<path d="M542.611 238.445V244.374H536.563" stroke="#2A1E17" stroke-miterlimit="10" stroke-linecap="round" stroke-linejoin="round"/>
<path d="M885.575 140.281H875.472V149.499H885.575V140.281Z" fill="#FAD8B0"/>
<path d="M875.472 134.352V140.281H869.424" stroke="#2A1E17" stroke-miterlimit="10" stroke-linecap="round" stroke-linejoin="round"/>
<path d="M602.02 197.261C497.281 153.88 416.643 237.432 614.081 365.366C629.628 375.438 653.467 378.977 653.467 378.977" stroke="#2A1E17" stroke-miterlimit="10" stroke-linecap="round" stroke-linejoin="round"/>
<path d="M505.687 203.156C507.335 203.156 508.671 201.821 508.671 200.174C508.671 198.528 507.335 197.193 505.687 197.193C504.039 197.193 502.703 198.528 502.703 200.174C502.703 201.821 504.039 203.156 505.687 203.156Z" fill="#2A1E17"/>
<path d="M486.677 183.798L489.946 180.657L497.463 184.959L501.233 196.601L489.707 191.776L486.677 183.798Z" stroke="#2A1E17" stroke-miterlimit="10" stroke-linecap="round" stroke-linejoin="round"/>
<path d="M489.946 180.657L486.677 183.798L484.844 181.579L487.987 178.575L489.946 180.657Z" stroke="#2A1E17" stroke-miterlimit="10" stroke-linecap="round" stroke-linejoin="round"/>
<path d="M501.234 196.601L493.739 188.373" stroke="#2A1E17" stroke-miterlimit="10" stroke-linecap="round" stroke-linejoin="round"/>
<path d="M519.4 405.515L527.543 447.428C527.725 448.349 528.625 448.941 529.536 448.748L537.976 446.961C538.853 446.779 539.434 445.925 539.275 445.038L532.019 402.841C531.86 401.896 530.937 401.282 530.003 401.486L520.675 403.558C519.787 403.762 519.217 404.627 519.4 405.515Z" fill="white" stroke="#2A1E17" stroke-miterlimit="10" stroke-linecap="round" stroke-linejoin="round"/>
<path d="M522.042 406.323L524.365 416.087L531.848 414.983L530.242 404.388L522.042 406.323Z" fill="#FF6D66"/>
<path d="M525.186 419.831L527.008 430.175L533.921 429.049L532.19 418.511L525.186 419.831Z" fill="#FAD8B0"/>
<path d="M527.418 433.897L529.741 443.672L536.017 442.5L534.514 432.463L527.418 433.897Z" fill="#A0C6F4"/>
<path d="M752.522 510.575L786.93 501.369L788.24 505.09L753.445 514.114L752.522 510.575Z" stroke="#2A1E17" stroke-miterlimit="10" stroke-linecap="round" stroke-linejoin="round"/>
<path d="M747.75 505.761L748.74 508.879" stroke="#2A1E17" stroke-miterlimit="10" stroke-linecap="round" stroke-linejoin="round"/>
<path d="M746.781 507.798L749.686 506.797" stroke="#2A1E17" stroke-miterlimit="10" stroke-linecap="round" stroke-linejoin="round"/>
<path d="M746.076 517.676L747.955 523.571" stroke="#2A1E17" stroke-miterlimit="10" stroke-linecap="round" stroke-linejoin="round"/>
<path d="M744.481 521.42L749.652 519.77" stroke="#2A1E17" stroke-miterlimit="10" stroke-linecap="round" stroke-linejoin="round"/>
<path d="M738.216 507.969L740.654 515.764" stroke="#2A1E17" stroke-miterlimit="10" stroke-linecap="round" stroke-linejoin="round"/>
<path d="M735.791 512.817L743.034 510.507" stroke="#2A1E17" stroke-miterlimit="10" stroke-linecap="round" stroke-linejoin="round"/>
<path d="M501.655 137.118L479.878 127.308L480.778 124.816L502.68 134.887L501.655 137.118Z" stroke="#2A1E17" stroke-width="0.6707" stroke-miterlimit="10" stroke-linecap="round" stroke-linejoin="round"/>
<path d="M502.087 141.647L502.896 139.599" stroke="#2A1E17" stroke-width="0.6707" stroke-miterlimit="10" stroke-linecap="round" stroke-linejoin="round"/>
<path d="M503.454 140.998L501.529 140.281" stroke="#2A1E17" stroke-width="0.6707" stroke-miterlimit="10" stroke-linecap="round" stroke-linejoin="round"/>
<path d="M508.022 136.162L509.548 132.315" stroke="#2A1E17" stroke-width="0.6707" stroke-miterlimit="10" stroke-linecap="round" stroke-linejoin="round"/>
<path d="M510.436 134.899L507.054 133.567" stroke="#2A1E17" stroke-width="0.6707" stroke-miterlimit="10" stroke-linecap="round" stroke-linejoin="round"/>
<path d="M507.976 144.549L510.015 139.462" stroke="#2A1E17" stroke-width="0.6707" stroke-miterlimit="10" stroke-linecap="round" stroke-linejoin="round"/>
<path d="M511.29 143.058L506.552 141.18" stroke="#2A1E17" stroke-width="0.6707" stroke-miterlimit="10" stroke-linecap="round" stroke-linejoin="round"/>
<path d="M583.022 320.848C567.68 309.809 552.6 292.648 559.206 275.032C559.206 275.032 569.787 267.987 586.541 276.796C603.295 285.604 603.295 285.604 603.295 285.604L583.022 320.848Z" fill="#D75CAB"/>
<path d="M559.206 275.02C552.589 292.648 567.668 309.798 583.022 320.836C592.224 327.459 598.671 330.418 608.591 334.048L576.848 396.604C576.848 396.604 538.932 380.74 532.759 349.901C526.575 319.084 559.206 275.02 559.206 275.02Z" fill="#FA6AB1"/>
<path d="M550.63 300.625C550.63 300.625 552.532 318.321 570.243 327.801" stroke="#2A1E17" stroke-miterlimit="10" stroke-linecap="round" stroke-linejoin="round"/>
<path d="M579.73 334.128L597.441 343.607" stroke="#2A1E17" stroke-miterlimit="10" stroke-linecap="round" stroke-linejoin="round"/>
<path d="M553.158 325.912C553.158 325.912 558.853 338.555 577.202 346.771" stroke="#2A1E17" stroke-miterlimit="10" stroke-linecap="round" stroke-linejoin="round"/>
<path d="M538.603 327.801C538.603 327.801 539.24 341.07 548.09 345.497" stroke="#2A1E17" stroke-miterlimit="10" stroke-linecap="round" stroke-linejoin="round"/>
<path d="M558.853 281.666C558.853 281.666 557.213 298.714 583.022 320.848" stroke="#2A1E17" stroke-miterlimit="10" stroke-linecap="round" stroke-linejoin="round"/>
<path d="M568.341 284.83C568.341 284.83 576.564 284.193 588.58 293.046" stroke="#2A1E17" stroke-miterlimit="10" stroke-linecap="round" stroke-linejoin="round"/>
<path d="M529.662 339.249C529.138 347.704 530.185 378.351 574.605 397.89" stroke="#2A1E17" stroke-miterlimit="10" stroke-linecap="round" stroke-linejoin="round"/>
<path d="M813.296 322.202L794.458 359.927C794.458 359.927 807.237 364.627 797.248 379.261C797.248 379.261 820.87 389.048 836.326 363.625C851.782 338.214 813.296 322.202 813.296 322.202Z" fill="#22D6E8"/>
<path d="M770.176 437.504C760.642 437.504 750.574 433.612 740.244 425.942L775.494 367.608L796.463 380.798L796.599 380.854C796.793 380.934 801.463 382.835 808.046 382.835C813.342 382.835 820.028 381.594 826.531 376.997L800.768 421.037C800.711 421.106 789.618 437.504 770.176 437.504Z" fill="white"/>
<path d="M776.064 369.964L795.426 382.152L795.666 382.311L795.927 382.425C796.132 382.516 801.11 384.542 808.035 384.542C812.078 384.542 816.884 383.859 821.816 381.651L799.333 420.081C798.593 421.151 788.16 435.808 770.164 435.808C761.383 435.808 752.089 432.338 742.51 425.487L776.064 369.964ZM836.326 363.636C827.59 377.998 816.258 381.116 808.046 381.116C801.725 381.116 797.249 379.261 797.249 379.261L774.936 365.218L738 426.363C750.369 435.888 761.155 439.2 770.187 439.2C790.825 439.2 802.249 421.879 802.249 421.879L836.326 363.636Z" fill="#22D6E8"/>
<path d="M794.458 359.927C794.458 359.927 808.513 364.888 797.248 379.261" stroke="#2A1E17" stroke-miterlimit="10" stroke-linecap="round" stroke-linejoin="round"/>
<path d="M774.492 363.91C774.492 363.91 793.638 381.423 804.23 381.31C814.823 381.196 827.249 378.67 834.584 366.038" stroke="#2A1E17" stroke-miterlimit="10" stroke-linecap="round" stroke-linejoin="round"/>
<path d="M776.85 386.579C776.85 386.579 789.994 398.232 804.675 394.488" stroke="#2A1E17" stroke-miterlimit="10" stroke-linecap="round" stroke-linejoin="round"/>
<path d="M790.643 404.001C790.643 404.001 797.533 409.168 807.169 404.286" stroke="#2A1E17" stroke-miterlimit="10" stroke-linecap="round" stroke-linejoin="round"/>
<path d="M758.934 411.182C758.934 411.182 774.834 426.989 799.88 416.565" stroke="#2A1E17" stroke-miterlimit="10" stroke-linecap="round" stroke-linejoin="round"/>
<path d="M767.59 395.762C767.59 395.762 774.082 400.394 778.149 401.873" stroke="#2A1E17" stroke-miterlimit="10" stroke-linecap="round" stroke-linejoin="round"/>
<path d="M816.531 333.149C816.531 333.149 831.053 337.895 832.796 357.036" stroke="#2A1E17" stroke-miterlimit="10" stroke-linecap="round" stroke-linejoin="round"/>
<path d="M823.832 356.809C823.832 356.809 830.518 367.142 819.219 377.486" stroke="#2A1E17" stroke-miterlimit="10" stroke-linecap="round" stroke-linejoin="round"/>
<path d="M739.344 429.253C739.344 429.253 775.802 460.457 802.271 423.973" stroke="#2A1E17" stroke-miterlimit="10" stroke-linecap="round" stroke-linejoin="round"/>
<path d="M476.142 310.424H484.639" stroke="#FF6D66" stroke-miterlimit="10" stroke-linecap="round" stroke-linejoin="round"/>
<path d="M949.664 208.277H958.172" stroke="#FF6D66" stroke-miterlimit="10" stroke-linecap="round" stroke-linejoin="round"/>
<path d="M721.713 150H730.21" stroke="#FAD8B0" stroke-miterlimit="10"/>
<path d="M965.895 252.329L974.266 253.831" stroke="#FAD8B0" stroke-miterlimit="10"/>
<path d="M631.986 464.247H640.483" stroke="#A0C6F4" stroke-miterlimit="10" stroke-linecap="round" stroke-linejoin="round"/>
<path d="M984.209 361.19C985.762 361.19 987.022 359.931 987.022 358.379C987.022 356.827 985.762 355.568 984.209 355.568C982.655 355.568 981.396 356.827 981.396 358.379C981.396 359.931 982.655 361.19 984.209 361.19Z" fill="#91BA83"/>
<path d="M455.299 226.189C456.853 226.189 458.112 224.93 458.112 223.378C458.112 221.826 456.853 220.567 455.299 220.567C453.745 220.567 452.486 221.826 452.486 223.378C452.486 224.93 453.745 226.189 455.299 226.189Z" fill="#91BA83"/>
<path d="M1016.97 542.564C1018.61 542.564 1019.95 541.229 1019.95 539.583C1019.95 537.936 1018.61 536.601 1016.97 536.601C1015.32 536.601 1013.98 537.936 1013.98 539.583C1013.98 541.229 1015.32 542.564 1016.97 542.564Z" fill="#2A1E17"/>
<path d="M1106.43 409.134C997.421 451.934 953.89 541.665 971.749 548.744C989.608 555.822 1016.2 539.844 1016.2 539.844" stroke="#2A1E17" stroke-miterlimit="10" stroke-linecap="round" stroke-linejoin="round"/>
</g>
<defs>
<clipPath id="clip0_4109_1294">
<rect width="1107" height="569" fill="white"/>
</clipPath>
</defs>
</svg>
