<svg width="13" height="8" viewBox="0 0 13 8" fill="none" xmlns="http://www.w3.org/2000/svg">
<g clip-path="url(#clip0_4112_1510)">
<path d="M0 2.66903C0.081111 2.44413 0.218754 2.27699 0.465774 2.23152C0.535824 2.21923 0.607103 2.218 0.678383 2.218C2.62628 2.21677 4.57417 2.21063 6.52206 2.22292C6.95711 2.22537 7.17955 1.9464 7.17709 1.56911C7.17464 1.25573 7.17341 0.942346 7.17709 0.628962C7.18324 0.24307 7.445 -0.00517876 7.82844 0.000966017C7.9796 0.00342393 8.10004 0.0759323 8.2131 0.165646C9.11392 0.880898 10.0135 1.59738 10.9131 2.31263C11.2486 2.57931 11.5829 2.846 11.9172 3.11268C12.2785 3.40026 12.2822 3.80827 11.9159 4.09461C10.6661 5.07041 9.41379 6.04251 8.16149 7.01584C7.95994 7.17192 7.7375 7.19281 7.51383 7.08466C7.29384 6.97774 7.17586 6.7934 7.17586 6.54146C7.17586 6.23177 7.17586 5.92207 7.17586 5.6136C7.17586 5.49439 7.16849 5.37519 7.11196 5.26704C7.02102 5.09253 6.88092 4.98929 6.6806 4.977C6.62898 4.97332 6.57736 4.97332 6.52575 4.97332C4.61718 4.97332 2.70984 4.96717 0.801278 4.97823C0.42276 4.97823 0.137643 4.88115 0 4.5014C0 3.89061 0 3.27982 0 2.66903Z" fill="#F15D3B"/>
</g>
<defs>
<clipPath id="clip0_4112_1510">
<rect width="12.19" height="7.15252" fill="white"/>
</clipPath>
</defs>
</svg>
