<svg width="40" height="40" viewBox="0 0 40 40" fill="none" xmlns="http://www.w3.org/2000/svg">
<g clip-path="url(#clip0_4119_1535)">
<path d="M39.6646 16.7927C39.0812 15.9667 38.3062 15.5208 37.2917 15.5188C35.2604 15.5135 33.2302 15.5188 31.199 15.5156C30.7625 15.5146 30.7365 15.4865 30.7344 15.0479C30.7302 14.3969 30.7448 13.7458 30.7292 13.0948C30.7083 12.2063 30.1365 11.4396 29.3104 11.124C28.8937 10.9646 28.4667 10.9729 28.0385 10.9896C27.7198 11.001 27.5979 10.8854 27.6031 10.5615C27.6167 9.72813 27.5854 8.8948 27.6156 8.0625C27.6365 7.4948 27.4323 7.07084 27.0365 6.67813C24.9562 4.61667 22.8885 2.54167 20.8208 0.466671C20.6062 0.251046 20.3854 0.0604207 20.0792 -0.0010376C13.5687 -0.0010376 7.05833 -0.0010376 0.547917 -0.0010376C0.320833 0.138546 0.138542 0.320837 0 0.546879C0 12.1094 0 23.6719 0 35.2344C0.169792 35.726 0.354167 35.8656 0.876042 35.8927C1.01875 35.9 1.16146 35.8969 1.30417 35.8969C3.21354 35.8969 5.12292 35.8969 7.03229 35.8969C7.14896 35.8969 7.26562 35.899 7.38333 35.9C7.59271 35.9021 7.68854 36.0052 7.69167 36.2125C7.69687 36.524 7.69375 36.8365 7.69479 37.1479C7.69896 38.6698 8.46667 39.6542 9.92083 39.999C13.4885 39.999 17.0562 39.999 20.624 39.999C20.675 39.9635 20.724 39.9271 20.776 39.8927C21.0906 39.6844 21.2323 39.3958 21.1427 39.0229C21.0583 38.6708 20.7583 38.4427 20.3625 38.4396C19.451 38.4313 18.5396 38.4365 17.6281 38.4365C15.324 38.4365 13.0187 38.4365 10.7146 38.4365C9.78125 38.4375 9.375 38.0385 9.375 37.1188C9.37396 33.4865 9.375 29.8531 9.375 26.2208C9.375 26.1302 9.375 26.0406 9.375 25.8917C10.0292 26.0771 10.6583 26.251 11.2844 26.4333C14.275 27.3042 17.2635 28.1833 20.2573 29.0406C20.549 29.124 20.6469 29.2323 20.6302 29.5333C20.5552 30.9188 21.0521 32.0354 22.2708 32.7552C24.3865 34.0052 27.101 32.4969 27.1854 30.0417C27.1958 29.7458 27.0635 29.3688 27.2458 29.176C27.424 28.9885 27.7948 28.9833 28.0812 28.899C31.4333 27.9229 34.7854 26.9469 38.1375 25.9719C38.224 25.9469 38.3125 25.9292 38.4365 25.9C38.4365 26.0458 38.4365 26.1719 38.4365 26.2979C38.4365 29.8917 38.4365 33.4854 38.4365 37.0781C38.4365 38.0354 38.0417 38.4344 37.0958 38.4344C33.9187 38.4354 30.7417 38.4333 27.5656 38.4354C26.9292 38.4354 26.526 38.8792 26.6625 39.4073C26.7375 39.6969 26.9646 39.8427 27.1865 39.9969C30.7021 39.9969 34.2177 39.9969 37.7333 39.9969C38.8979 39.975 39.9375 38.8552 39.999 37.8094C39.999 31.1688 39.999 24.5281 39.999 17.8875C39.9312 17.5115 39.9031 17.1313 39.6646 16.7927ZM28.4344 12.6573C28.8865 12.6573 29.0594 12.8396 29.0625 13.3031C29.0667 13.9802 29.051 14.6573 29.0698 15.3333C29.0771 15.5792 29.0062 15.6323 28.7677 15.6313C27.1406 15.6198 25.5146 15.625 23.8875 15.625C22.2865 15.625 20.6865 15.6177 19.0854 15.6313C18.8167 15.6333 18.7333 15.575 18.7427 15.2948C18.7656 14.6323 18.7479 13.9677 18.751 13.3042C18.7531 12.8396 18.925 12.6573 19.3771 12.6573C22.3958 12.6552 25.4146 12.6552 28.4344 12.6573ZM20.6281 2.83855C21.9625 4.17292 23.3229 5.53334 24.6646 6.875C23.4437 6.875 22.1469 6.87292 20.849 6.87813C20.6865 6.87917 20.6229 6.84063 20.624 6.66355C20.6323 5.36459 20.6281 4.06667 20.6281 2.83855ZM7.8125 18.5031C7.81146 23.6063 7.80729 28.7094 7.82187 33.8125C7.82292 34.1667 7.72708 34.2292 7.39687 34.226C5.57396 34.2094 3.75208 34.2094 1.92917 34.226C1.61354 34.2292 1.55521 34.1344 1.55625 33.8406C1.56458 28.5177 1.5625 23.1927 1.5625 17.8688C1.5625 12.5698 1.56667 7.27188 1.55417 1.97292C1.55312 1.63125 1.63229 1.55313 1.97396 1.55313C7.53229 1.56563 13.0917 1.56459 18.651 1.55417C18.9802 1.55313 19.0823 1.61146 19.0771 1.96771C19.0552 3.77709 19.0667 5.58646 19.0667 7.39584C19.0667 8.18959 19.3177 8.43646 20.124 8.43646C21.9469 8.43646 23.7687 8.4448 25.5917 8.42813C25.8885 8.42605 25.9594 8.50313 25.949 8.79063C25.926 9.45417 25.9281 10.1188 25.9479 10.7823C25.9562 11.0448 25.8729 11.099 25.625 11.0979C23.5677 11.0875 21.5115 11.0917 19.4542 11.0927C18.0427 11.0938 17.1906 11.9406 17.1885 13.3427C17.1875 14.0063 17.175 14.6708 17.1948 15.3344C17.2021 15.5854 17.1219 15.6302 16.8896 15.6292C14.8198 15.6198 12.75 15.6229 10.6802 15.624C8.9125 15.626 7.81354 16.7302 7.8125 18.5031ZM25.6229 29.901C25.6104 30.8875 24.8562 31.6427 23.9 31.6396C22.9448 31.6365 22.2021 30.8792 22.1885 29.8885C22.1844 29.551 22.1875 29.2125 22.1875 28.875C22.1875 28.576 22.2083 28.275 22.1812 27.9792C22.1531 27.6708 22.224 27.5583 22.5677 27.5688C23.4896 27.5969 24.4125 27.5885 25.3344 27.5719C25.5823 27.5677 25.6354 27.6396 25.6302 27.875C25.6146 28.55 25.6312 29.226 25.6229 29.901ZM38.1187 24.3635C34.6021 25.374 31.0885 26.3948 27.5781 27.426C27.2542 27.5208 27.1687 27.4875 27.1792 27.1281C27.2052 26.2375 26.9687 26.0156 26.0885 26.0156C24.6177 26.0156 23.1469 26.0156 21.676 26.0156C20.8677 26.0156 20.6271 26.2563 20.626 27.0604C20.626 27.2021 20.626 27.3448 20.626 27.5229C19.4646 27.1885 18.3323 26.8646 17.201 26.5365C14.7083 25.8125 12.2187 25.0823 9.72396 24.3677C9.45312 24.2906 9.36667 24.1823 9.36875 23.8969C9.38333 22.0875 9.375 20.2781 9.37708 18.4688C9.37812 17.601 9.79583 17.1885 10.675 17.1885C19.5 17.1875 28.326 17.1875 37.151 17.1885C38.0229 17.1885 38.4375 17.6052 38.4385 18.4802C38.4396 20.2896 38.4333 22.099 38.4458 23.9083C38.4458 24.1688 38.3854 24.2875 38.1187 24.3635Z" fill="#FEBC06"/>
</g>
<defs>
<clipPath id="clip0_4119_1535">
<rect width="40" height="40" fill="white"/>
</clipPath>
</defs>
</svg>
