<svg width="42" height="51" viewBox="0 0 42 51" fill="none" xmlns="http://www.w3.org/2000/svg">
<g clip-path="url(#clip0_4119_1529)">
<path d="M27.5859 24.274C26.1436 24.2493 24.7014 24.263 23.2605 24.2713C22.0476 24.2781 20.9377 24.6462 19.9048 25.2712C19.4172 25.5652 19.0614 26.138 18.5601 26.2657C18.0587 26.3934 17.4598 26.072 16.8994 26.0528C13.2992 25.9251 10.4971 27.3838 8.78013 30.5485C7.07551 33.6899 7.37358 36.8135 9.40099 39.7653C9.49851 39.9068 9.81581 40.0634 9.52873 40.257C9.21143 40.4699 9.14001 41.0839 8.54936 40.8642C7.85708 40.6059 7.23484 40.7323 6.70326 41.2515C6.32278 41.6238 5.94917 42.0029 5.5728 42.3792C3.93412 44.0179 2.28581 45.6484 0.660862 47.2994C-0.49295 48.4725 -0.072633 50.2787 1.46304 50.8515C1.53858 50.8803 1.61001 50.9243 1.68281 50.96C1.95753 50.96 2.23224 50.96 2.50696 50.96C2.88332 50.8117 3.2748 50.6963 3.57286 50.3982C5.63599 48.3337 7.70186 46.2733 9.76087 44.2047C10.1606 43.8023 10.4037 43.2515 10.1784 42.7487C9.90784 42.143 10.2361 41.893 10.5685 41.5468C10.7828 41.3243 10.9078 41.3326 11.1551 41.5139C15.6618 44.8338 21.8855 43.2199 24.1766 38.1307C24.3332 37.7846 24.5214 37.7077 24.8648 37.709C27.2851 37.7214 29.7067 37.7187 32.127 37.7145C33.4635 37.7132 34.1283 37.0511 34.1283 35.7311C34.1297 34.0828 34.153 32.4345 34.12 30.7875C34.0486 27.2519 31.1187 24.3358 27.5859 24.274ZM8.35706 43.294C6.44366 45.2088 4.52888 47.1222 2.61685 49.0384C2.37784 49.2774 2.11274 49.4573 1.82017 49.1744C1.50699 48.8735 1.68144 48.5974 1.93967 48.3406C3.84483 46.4409 5.74313 44.5358 7.65104 42.6388C7.73757 42.5523 7.80351 42.316 8.0013 42.4671C8.21696 42.632 8.41201 42.8256 8.62354 43.0138C8.49717 43.1484 8.42849 43.2226 8.35706 43.294ZM16.2703 41.5935C12.4407 41.5743 9.35841 38.4604 9.37077 34.6226C9.38313 30.7862 12.4957 27.6681 16.3046 27.6777C20.1905 27.6874 23.3264 30.8301 23.2934 34.683C23.2591 38.5442 20.1411 41.6128 16.2703 41.5935ZM32.4868 35.7613C32.4896 36.0182 32.3893 36.0827 32.1558 36.0827C29.8235 36.0786 27.4897 36.0717 25.1574 36.0868C24.7247 36.0896 24.8483 35.8259 24.8703 35.6116C25.0763 33.7105 24.7027 31.9317 23.7426 30.2793C22.9239 28.87 21.766 27.8055 20.3169 27.0006C21.1809 26.3303 22.1204 25.9443 23.1794 25.9264C24.6368 25.9017 26.0955 25.8948 27.5529 25.9237C30.1586 25.9759 32.3467 28.0651 32.4566 30.6667C32.5294 32.363 32.4731 34.0635 32.4868 35.7613Z" fill="#3BA0AA"/>
<path d="M19.2548 6.10146C19.932 6.60007 20.5981 7.11517 21.2987 7.57669C21.6297 7.79509 21.7011 7.98602 21.5638 8.35689C21.2726 9.14258 21.0281 9.94475 20.7726 10.7428C20.572 11.3719 20.7108 11.8884 21.1517 12.2222C21.616 12.5724 22.1558 12.5559 22.7176 12.1548C23.3591 11.6961 24.0129 11.251 24.6228 10.751C24.9991 10.442 25.2683 10.409 25.6584 10.7373C26.2614 11.2428 26.9194 11.6851 27.5595 12.1452C28.124 12.5518 28.6597 12.5765 29.1267 12.2345C29.5828 11.9007 29.7256 11.3637 29.5168 10.7098C29.2545 9.8953 28.9949 9.07939 28.705 8.27447C28.6007 7.98465 28.6377 7.82531 28.9001 7.64674C29.5814 7.18385 30.238 6.68798 30.9042 6.20448C31.5525 5.73471 31.7585 5.27456 31.5841 4.6853C31.4179 4.1235 30.9303 3.82543 30.1624 3.82406C29.3561 3.82269 28.5471 3.79659 27.7422 3.83505C27.3521 3.85428 27.212 3.71417 27.1144 3.36253C26.9166 2.65377 26.646 1.96697 26.4496 1.2582C26.2972 0.706023 26.0252 0.270596 25.5142 -0.00137329C25.2738 -0.00137329 25.0335 -0.00137329 24.7931 -0.00137329C24.2725 0.262355 24.0019 0.69366 23.8494 1.25271C23.6475 1.99444 23.3673 2.71558 23.153 3.45457C23.0651 3.75813 22.9223 3.84192 22.6146 3.8323C21.7396 3.80758 20.8633 3.81719 19.9883 3.82543C19.3413 3.83093 18.8853 4.14548 18.7163 4.67568C18.5391 5.23336 18.7122 5.70038 19.2548 6.10146ZM23.0596 5.47923C23.9524 5.48198 24.3013 5.23473 24.5747 4.39959C24.745 3.879 24.9126 3.35841 25.0829 2.8392C25.0925 2.80761 25.1159 2.78014 25.1667 2.6936C25.3645 3.30622 25.5458 3.87626 25.7312 4.44492C25.9867 5.22237 26.3466 5.47785 27.1749 5.47923C27.7586 5.47923 28.341 5.47923 29.0965 5.47923C28.4963 5.91328 28.0155 6.25942 27.5375 6.60969C26.8727 7.09594 26.734 7.51763 26.9839 8.30057C27.1556 8.83764 27.3342 9.37334 27.5087 9.91041C27.5183 9.94201 27.5196 9.97497 27.5361 10.089C27.0059 9.70025 26.5238 9.34175 26.0362 8.99148C25.3562 8.50386 24.9318 8.50661 24.2588 8.99423C23.7739 9.34587 23.289 9.69888 22.7148 10.1165C22.9291 9.45301 23.1159 8.88022 23.3 8.30744C23.5541 7.51488 23.425 7.10143 22.7615 6.61381C22.2835 6.26217 21.8 5.91603 21.1957 5.47923C21.914 5.47785 22.4868 5.47648 23.0596 5.47923Z" fill="#3BA0AA"/>
<path d="M31.1528 14.3636C31.7256 14.7853 32.2887 15.2207 32.8808 15.6108C33.1596 15.7949 33.2214 15.957 33.1047 16.2715C32.8588 16.9349 32.6514 17.6149 32.4357 18.2893C32.2654 18.8222 32.3835 19.259 32.7558 19.5406C33.1486 19.8373 33.6046 19.8222 34.0799 19.4829C34.6225 19.0942 35.176 18.7179 35.6911 18.2962C36.0098 18.0352 36.2364 18.0077 36.5675 18.2838C37.0784 18.711 37.6334 19.0846 38.1759 19.4747C38.6539 19.8181 39.1072 19.8401 39.5014 19.5503C39.886 19.2687 40.0083 18.814 39.8311 18.2605C39.61 17.5709 39.3902 16.8814 39.1443 16.2014C39.0564 15.957 39.0866 15.821 39.3091 15.6712C39.8847 15.2798 40.441 14.8595 41.0041 14.4515C41.5522 14.0545 41.7266 13.6644 41.5797 13.1672C41.4396 12.6919 41.0275 12.4406 40.3778 12.4392C39.6951 12.4378 39.0111 12.4158 38.3311 12.4488C38.0001 12.4653 37.8834 12.3472 37.7996 12.0491C37.632 11.4502 37.4026 10.8692 37.2378 10.2689C37.1087 9.80192 36.8793 9.4338 36.4466 9.20303C36.2433 9.20303 36.04 9.20303 35.8367 9.20303C35.3958 9.42555 35.1678 9.79093 35.0387 10.2634C34.8683 10.8912 34.6307 11.501 34.4494 12.126C34.3752 12.3829 34.2543 12.4529 33.9934 12.4461C33.253 12.4255 32.5126 12.4337 31.7723 12.4406C31.2256 12.4461 30.8396 12.7112 30.6968 13.1603C30.547 13.6287 30.6926 14.0243 31.1528 14.3636ZM34.3697 13.8375C35.1252 13.8403 35.4205 13.6315 35.6513 12.9241C35.7955 12.4845 35.937 12.0436 36.0812 11.6041C36.0895 11.578 36.1087 11.5546 36.1526 11.4804C36.3188 11.9983 36.4727 12.4804 36.6306 12.9612C36.8463 13.6177 37.1512 13.8348 37.8518 13.8361C38.3449 13.8361 38.838 13.8361 39.4767 13.8361C38.9699 14.2043 38.5633 14.4968 38.1581 14.7922C37.5963 15.2029 37.4781 15.56 37.6897 16.2221C37.8353 16.6767 37.9864 17.13 38.1333 17.5833C38.1416 17.6094 38.1416 17.6382 38.1567 17.7344C37.7089 17.4061 37.301 17.1025 36.8889 16.8058C36.3133 16.3938 35.9548 16.3965 35.3862 16.8086C34.9755 17.1066 34.5661 17.4047 34.0799 17.7577C34.2612 17.1959 34.4192 16.7124 34.5744 16.2275C34.7887 15.5572 34.6802 15.207 34.1197 14.7949C33.7145 14.4968 33.3066 14.2043 32.7956 13.8348C33.4013 13.8361 33.8848 13.8361 34.3697 13.8375Z" fill="#3BA0AA"/>
<path d="M9.17574 14.3636C9.74852 14.7853 10.3117 15.2207 10.9037 15.6108C11.1825 15.7949 11.2444 15.957 11.1276 16.2715C10.8817 16.9349 10.6743 17.6149 10.4587 18.2893C10.2883 18.8222 10.4065 19.259 10.7787 19.5406C11.1716 19.8373 11.6276 19.8222 12.1028 19.4829C12.6454 19.0942 13.199 18.7179 13.7141 18.2962C14.0327 18.0352 14.2594 18.0077 14.5904 18.2838C15.1014 18.711 15.6563 19.0846 16.1989 19.4747C16.6769 19.8181 17.1302 19.8401 17.5244 19.5503C17.909 19.2687 18.0312 18.814 17.854 18.2605C17.6329 17.5709 17.4131 16.8814 17.1673 16.2014C17.0793 15.957 17.1096 15.821 17.3321 15.6712C17.9076 15.2798 18.4639 14.8595 19.0271 14.4515C19.5752 14.0545 19.7496 13.6644 19.6026 13.1672C19.4625 12.6919 19.0504 12.4406 18.4007 12.4392C17.7181 12.4378 17.034 12.4158 16.3541 12.4488C16.0231 12.4653 15.9063 12.3472 15.8225 12.0491C15.6549 11.4502 15.4255 10.8692 15.2607 10.2689C15.1316 9.80192 14.9022 9.4338 14.4695 9.20303C14.2662 9.20303 14.063 9.20303 13.8597 9.20303C13.4187 9.42555 13.1907 9.79093 13.0616 10.2634C12.8913 10.8912 12.6537 11.501 12.4723 12.126C12.3982 12.3829 12.2773 12.4529 12.0163 12.4461C11.2759 12.4255 10.5356 12.4337 9.79522 12.4406C9.24854 12.4461 8.86256 12.7112 8.71971 13.1603C8.56998 13.6287 8.71558 14.0243 9.17574 14.3636ZM12.3927 13.8375C13.1481 13.8403 13.4435 13.6315 13.6742 12.9241C13.8185 12.4845 13.9599 12.0436 14.1042 11.6041C14.1124 11.578 14.1316 11.5546 14.1756 11.4804C14.3418 11.9983 14.4956 12.4804 14.6536 12.9612C14.8692 13.6177 15.1742 13.8348 15.8747 13.8361C16.3678 13.8361 16.8609 13.8361 17.4997 13.8361C16.9928 14.2043 16.5862 14.4968 16.181 14.7922C15.6192 15.2029 15.5011 15.56 15.7126 16.2221C15.8582 16.6767 16.0093 17.13 16.1563 17.5833C16.1645 17.6094 16.1645 17.6382 16.1796 17.7344C15.7319 17.4061 15.3239 17.1025 14.9118 16.8058C14.3363 16.3938 13.9778 16.3965 13.4091 16.8086C12.9984 17.1066 12.5891 17.4047 12.1028 17.7577C12.2842 17.1959 12.4421 16.7124 12.5973 16.2275C12.8116 15.5572 12.7031 15.207 12.1427 14.7949C11.7375 14.4968 11.3295 14.2043 10.8185 13.8348C11.4243 13.8361 11.9078 13.8361 12.3927 13.8375Z" fill="#3BA0AA"/>
<path d="M25.157 13.4488C22.4126 13.4405 20.1516 15.707 20.1558 18.4624C20.1613 21.1999 22.3933 23.4279 25.135 23.432C27.8794 23.4361 30.1198 21.2219 30.1404 18.4843C30.161 15.7385 27.9028 13.457 25.157 13.4488ZM25.1625 21.7851C23.3136 21.7906 21.8151 20.3153 21.8041 18.4788C21.7931 16.6218 23.3123 15.0875 25.1556 15.0957C26.9797 15.1026 28.4921 16.6204 28.4934 18.4459C28.4962 20.281 27.0017 21.7782 25.1625 21.7851Z" fill="#3BA0AA"/>
</g>
<defs>
<clipPath id="clip0_4119_1529">
<rect width="41.6279" height="50.96" fill="white"/>
</clipPath>
</defs>
</svg>
