<svg width="273" height="102" viewBox="0 0 273 102" fill="none" xmlns="http://www.w3.org/2000/svg">
<g clip-path="url(#clip0_4099_1305)">
<g clip-path="url(#clip1_4099_1305)">
<path d="M13.596 69.9268H4V68.0581H11.6954V59.322H20.3642V50.0252H28.4768V41.2891H37.0993V32.9268H39V43.2045H30.3311V51.8939H22.2649V61.1906H13.596V69.9268Z" fill="#3D3D3D"/>
</g>
<g clip-path="url(#clip2_4099_1305)">
<path d="M155.238 25.7192L155.991 24L142.761 18.1574L142.007 19.8766L155.238 25.7192Z" fill="#1EBEC4"/>
<path d="M152.721 15.6181L151.112 14.9078L145.293 28.1923L146.902 28.9026L152.721 15.6181Z" fill="#1EBEC4"/>
</g>
<g clip-path="url(#clip3_4099_1305)">
<path d="M188.72 76.9268H160.022L174.355 51.9268L188.72 76.9268ZM161.935 75.7918H186.775L174.355 54.1651L161.935 75.7918Z" fill="#1EBEC4"/>
<path d="M190.442 68.4539L174.229 68.6913L174.233 69.0065L190.447 68.7691L190.442 68.4539Z" fill="#45273C"/>
<path d="M172.22 68.7142L165.697 68.8096L165.701 69.1248L172.224 69.0294L172.22 68.7142Z" fill="#45273C"/>
<path d="M162.874 68.8668L159.989 68.9091L159.993 69.2243L162.879 69.182L162.874 68.8668Z" fill="#45273C"/>
<path d="M158.828 68.9055L156.978 68.9329L156.982 69.2481L158.832 69.2208L158.828 68.9055Z" fill="#45273C"/>
<path d="M155.566 68.9708L153.998 68.9938L154.003 69.309L155.571 69.286L155.566 68.9708Z" fill="#45273C"/>
<path d="M196.966 64.8285L180.752 65.0659L180.757 65.3811L196.97 65.1438L196.966 64.8285Z" fill="#45273C"/>
<path d="M178.775 65.1198L172.252 65.2152L172.257 65.5304L178.78 65.435L178.775 65.1198Z" fill="#45273C"/>
<path d="M169.429 65.241L166.543 65.2832L166.548 65.5984L169.433 65.5562L169.429 65.241Z" fill="#45273C"/>
<path d="M165.352 65.3117L163.501 65.339L163.506 65.6542L165.356 65.6269L165.352 65.3117Z" fill="#45273C"/>
<path d="M162.09 65.3455L160.521 65.3684L160.526 65.6836L162.094 65.6607L162.09 65.3455Z" fill="#45273C"/>
</g>
<g clip-path="url(#clip4_4099_1305)">
<path d="M126 63.309C126.196 69.9102 119.571 76.267 112.209 80.57C109.657 82.0858 106.957 83.3572 104.454 84.2863C96.405 87.269 89.632 87.0734 84.6259 86.8779C84.5277 86.8779 84.4786 86.8779 84.4295 86.8779C84.2823 86.8779 84.086 86.8779 83.9387 86.8779C75.6443 86.5356 67.2516 84.7752 59.8897 80.9123C59.6933 80.8145 59.497 80.7167 59.3007 80.6189C52.9694 77.2449 46.589 72.404 46.0001 64.6781C45.7056 60.8641 46.8835 57.05 49.1903 53.9695C51.6443 50.6933 55.2762 48.8352 58.5154 46.4881C60.8222 44.8255 61.8528 42.3806 62.8835 39.8868C63.6197 38.1265 64.4541 36.415 65.3866 34.7525C65.9265 33.8723 66.4663 32.9922 67.0553 32.112C71.178 26.0976 78.0492 21.6967 85.313 20.6699C92.8713 19.5941 100.086 23.1148 105.043 28.787C108.037 32.2098 110.098 36.4151 110.982 40.8648C111.718 44.4832 110.982 49.0308 113.779 51.8668C117.068 55.143 121.779 54.165 124.479 58.2725C125.902 60.2773 125.951 62.3799 126 63.309Z" fill="#DFEAF7"/>
<path d="M99.3499 50.1554C106.074 44.4343 108.086 33.9213 103.473 27.1733C100.822 23.3104 96.7487 21.7456 94.7364 21.1589C93.9021 19.9364 91.7917 17.247 88.2088 16.269C81.9757 14.5576 76.5279 19.4963 75.7917 20.1809C68.626 26.7332 65.9266 42.7229 75.6935 50.4977C82.0739 55.5831 92.4297 56.0721 99.3499 50.1554Z" fill="#002D53"/>
<path d="M90.7114 40.6204H83.0059V50.1066H90.7114V40.6204Z" fill="#FFB3AE"/>
<path d="M90.7114 40.6204V45.1679C86.6378 45.4613 84.331 44.9234 83.0059 44.141V40.6204H90.7114Z" fill="#FF7A72"/>
<path d="M98.368 34.9481C97.6318 36.9041 95.865 38.0287 94.3926 37.4908C92.9202 36.953 92.3312 34.8992 93.0674 32.9433C93.8036 30.9874 95.5705 29.8627 97.0429 30.4006C98.5153 30.9385 99.1042 32.9922 98.368 34.9481Z" fill="#FFB3AE"/>
<path d="M76.6256 34.9481C77.3618 36.9041 79.1287 38.0287 80.6011 37.4908C82.0735 36.953 82.6624 34.8992 81.9263 32.9433C81.1901 30.9874 79.4232 29.8627 77.9508 30.4006C76.5275 30.9385 75.9385 32.9922 76.6256 34.9481Z" fill="#FFB3AE"/>
<path d="M94.6869 33.1389C95.9139 36.5129 92.0366 43.3097 87.0305 43.3097C82.8096 43.3097 79.374 38.7622 79.374 33.1389C79.374 27.0266 85.5581 22.2346 87.0305 22.9681C87.6194 23.2615 87.1286 24.2883 87.6685 26.0487C88.9446 30.1561 93.6072 30.205 94.6869 33.1389Z" fill="#FFB3AE"/>
<path d="M108.528 76.707H64.5522V68.1499C64.5522 56.072 74.3682 46.2435 86.54 46.2435C98.6627 46.2435 108.528 56.072 108.528 68.1499V76.707Z" fill="#FFB042"/>
<path d="M115.105 63.0645H102.982V76.8048H115.105V63.0645Z" fill="#3D71F2"/>
<path d="M118.933 70.0079C118.933 71.1815 117.951 72.1594 116.773 72.1594C116.086 72.1594 115.497 71.866 115.104 71.3771V74.311C115.644 74.5065 116.184 74.6043 116.773 74.6043C119.325 74.6043 121.387 72.5506 121.387 70.0079C121.387 67.4652 119.325 65.4115 116.773 65.4115C116.184 65.4115 115.595 65.5093 115.104 65.7049V68.6388C115.497 68.1498 116.086 67.8564 116.773 67.8564C117.951 67.8075 118.933 68.7855 118.933 70.0079Z" fill="#3D71F2"/>
<path d="M123.89 76.8048H50.0737V80.5211H123.89V76.8048Z" fill="#D18C7E"/>
<path d="M62.7365 68.3455C62.4911 61.8421 62.5893 53.6272 64.7488 53.1382C64.8469 53.1382 65.0923 53.0893 65.3377 53.1871C67.1046 54.1162 65.0923 61.4509 62.7365 68.3455Z" fill="#40C1B0"/>
<path d="M62.7362 68.3455C59.5461 62.7711 57.9755 61.7442 57.1902 61.9887C56.8958 62.0865 56.6504 62.3799 56.6013 62.6244C56.0614 64.4336 61.3129 67.5631 62.7362 68.3455Z" fill="#40C1B0"/>
<path d="M62.7363 68.3454C62.7363 68.3454 65.7302 59.7883 67.7915 60.2773C69.8529 60.8151 62.7363 68.3454 62.7363 68.3454Z" fill="#40C1B0"/>
<path d="M58.0736 76.707H66.2208L66.957 66.7318H57.3374L58.0736 76.707Z" fill="#FF828A"/>
<path d="M103.325 74.9957C103.325 76.0225 102.491 76.8538 101.46 76.8538H71.5706C70.5399 76.8538 69.7056 76.0225 69.7056 74.9957V56.4144C69.7056 55.3875 70.5399 54.5563 71.5706 54.5563H101.46C102.491 54.5563 103.325 55.3875 103.325 56.4144V74.9957Z" fill="white"/>
<path d="M112.209 80.5701C109.657 82.0859 106.957 83.3573 104.454 84.2863C96.4051 87.2691 89.6321 87.0735 84.6259 86.8779C84.5278 86.8779 84.4787 86.8779 84.4296 86.8779C84.2824 86.8779 84.0861 86.8779 83.9388 86.8779C75.6443 86.5356 67.2517 84.7753 59.8897 80.9124C59.6934 80.8146 59.4971 80.7168 59.3008 80.619H112.209V80.5701Z" fill="#BC7F72"/>
<path d="M81.643 64.669C81.3043 64.669 81.0151 64.4109 80.9808 64.0658C80.9447 63.6978 81.212 63.3709 81.5783 63.3346C83.4138 63.153 84.7592 61.5051 84.5784 59.6613C84.5422 59.2933 84.8096 58.9664 85.1759 58.93C85.5422 58.8937 85.8676 59.1623 85.9038 59.5303C86.1578 62.1083 84.2758 64.4119 81.7096 64.6661C81.6868 64.668 81.6649 64.669 81.643 64.669Z" fill="#50B0BB"/>
<path d="M81.8951 61.8081C82.6412 61.8081 83.2462 61.2004 83.2462 60.4508C83.2462 59.7012 82.6412 59.0935 81.8951 59.0935C81.1489 59.0935 80.5439 59.7012 80.5439 60.4508C80.5439 61.2004 81.1489 61.8081 81.8951 61.8081Z" fill="#50B0BB"/>
<path d="M91.7462 64.669C91.7244 64.669 91.7025 64.668 91.6806 64.6661C90.438 64.5428 89.3162 63.9416 88.5245 62.9714C87.7319 62.0012 87.3628 60.7796 87.4855 59.5303C87.5217 59.1623 87.8461 58.8937 88.2134 58.93C88.5797 58.9664 88.8471 59.2942 88.8109 59.6613C88.7234 60.554 88.9869 61.4286 89.554 62.1216C90.1211 62.8156 90.9223 63.2457 91.8119 63.3337C92.1782 63.37 92.4456 63.6978 92.4094 64.0649C92.3742 64.4109 92.084 64.669 91.7462 64.669Z" fill="#FCB349"/>
<path d="M91.4942 61.8081C92.2404 61.8081 92.8453 61.2004 92.8453 60.4508C92.8453 59.7012 92.2404 59.0935 91.4942 59.0935C90.748 59.0935 90.1431 59.7012 90.1431 60.4508C90.1431 61.2004 90.748 61.8081 91.4942 61.8081Z" fill="#FCB349"/>
<path d="M88.1757 71.8811C87.8418 71.8811 87.5535 71.6297 87.5145 71.2875C87.2214 68.7134 89.0682 66.3811 91.6296 66.0867C91.995 66.0446 92.3252 66.3084 92.367 66.6755C92.4089 67.0425 92.1463 67.3742 91.7809 67.4163C89.9484 67.6266 88.6286 69.2955 88.838 71.1355C88.8798 71.5025 88.6172 71.8342 88.2519 71.8763C88.2271 71.8801 88.2014 71.8811 88.1757 71.8811Z" fill="#747C75"/>
<path d="M91.5098 71.6623C92.256 71.6623 92.8609 71.0546 92.8609 70.3049C92.8609 69.5553 92.256 68.9476 91.5098 68.9476C90.7636 68.9476 90.1587 69.5553 90.1587 70.3049C90.1587 71.0546 90.7636 71.6623 91.5098 71.6623Z" fill="#747C75"/>
<path d="M85.2729 71.9269C85.2548 71.9269 85.2358 71.926 85.2168 71.925C84.8505 71.8944 84.5774 71.5714 84.6078 71.2033C84.6811 70.3087 84.4042 69.4398 83.8267 68.7545C83.2491 68.0701 82.4413 67.6514 81.5507 67.5778C81.1844 67.5472 80.9113 67.2241 80.9418 66.8561C80.9722 66.4881 81.2948 66.2148 81.6601 66.2444C82.9047 66.3476 84.035 66.9326 84.8428 67.8894C85.6507 68.8472 86.0379 70.063 85.9352 71.3133C85.9066 71.6622 85.6155 71.9269 85.2729 71.9269Z" fill="#F15D3B"/>
<path d="M81.9126 71.8123C82.6588 71.8123 83.2637 71.2046 83.2637 70.455C83.2637 69.7053 82.6588 69.0977 81.9126 69.0977C81.1664 69.0977 80.5615 69.7053 80.5615 70.455C80.5615 71.2046 81.1664 71.8123 81.9126 71.8123Z" fill="#F15D3B"/>
</g>
</g>
<defs>
<clipPath id="clip0_4099_1305">
<rect width="273" height="100.848" fill="white" transform="translate(0 0.926758)"/>
</clipPath>
<clipPath id="clip1_4099_1305">
<rect width="35" height="37" fill="white" transform="translate(4 32.9268)"/>
</clipPath>
<clipPath id="clip2_4099_1305">
<rect width="14" height="14" fill="white" transform="translate(142 14.9268)"/>
</clipPath>
<clipPath id="clip3_4099_1305">
<rect width="43" height="25" fill="white" transform="translate(154 51.9268)"/>
</clipPath>
<clipPath id="clip4_4099_1305">
<rect width="80" height="71" fill="white" transform="translate(46 15.9268)"/>
</clipPath>
</defs>
</svg>
