<svg width="46" height="41" viewBox="0 0 46 41" fill="none" xmlns="http://www.w3.org/2000/svg">
<g clip-path="url(#clip0_4120_1539)">
<path d="M45.0271 1.95441C44.3398 0.728349 43.3307 0.0139317 41.8924 0.0127528C35.4297 0.00803715 28.9657 0.0268996 22.5018 -0.000215197C20.5495 -0.00846754 18.8377 1.74928 18.9592 3.57187C18.9922 4.07055 18.9651 4.57276 18.9639 5.0738C18.9615 5.75167 18.9568 5.75638 18.2695 5.75638C13.6753 5.75756 9.08111 5.75521 4.4881 5.75756C2.05012 5.75874 0.455058 7.06615 0 9.42868C0 16.8558 0 24.2829 0 31.71C0.124964 31.8479 0.103744 32.0106 0.0742711 32.1733L0.0424406 32.1792C0.0424406 32.1981 0.0436195 32.2169 0.0459773 32.2358C0.0365461 32.7498 0.174478 33.2225 0.440911 33.6623C1.2968 35.0793 2.56058 35.7949 4.20516 35.8197C5.55972 35.8397 6.91546 35.8244 8.27003 35.8244C9.74248 35.8244 11.2161 35.822 12.6886 35.8256C13.2792 35.8268 13.3016 35.8515 13.304 36.4551C13.3063 37.0882 13.3087 37.7224 13.3028 38.3555C13.2981 38.866 13.258 38.9084 12.7452 38.9108C11.7289 38.9167 10.7127 38.9119 9.6965 38.9131C9.4454 38.9131 9.19547 38.9237 8.95615 39.011C8.47987 39.1843 8.22759 39.5839 8.28771 40.0767C8.3443 40.5377 8.68147 40.8725 9.16128 40.935C9.36641 40.9621 9.57272 40.9526 9.77903 40.9526C16.2901 40.9526 22.8 40.9526 29.3111 40.9526C29.488 40.9526 29.6648 40.9585 29.8417 40.9432C30.358 40.8996 30.7258 40.5766 30.7907 40.1156C30.8567 39.644 30.5702 39.1866 30.0963 39.0074C29.857 38.9167 29.6059 38.9143 29.3559 38.9131C28.3244 38.9108 27.294 38.9084 26.2625 38.9143C25.9348 38.9167 25.7732 38.8011 25.778 38.4534C25.7874 37.7165 25.785 36.9809 25.7791 36.2441C25.7768 35.9411 25.9088 35.8126 26.2036 35.8256C26.3356 35.8315 26.4688 35.8256 26.6008 35.8256C29.3842 35.8256 32.1688 35.8338 34.9522 35.822C36.7854 35.815 38.3828 34.6372 38.964 32.8972C39.1432 32.3608 39.221 31.8114 39.2199 31.2467C39.2175 27.9623 39.2175 24.6778 39.2199 21.3922C39.2199 20.8252 39.2505 20.798 39.8223 20.7945C40.5591 20.791 41.2947 20.7933 42.0315 20.7933C42.3286 20.7933 42.6186 20.7615 42.9004 20.6601C44.2043 20.1886 45.0684 19.3386 45.2724 17.9168C45.2724 12.9359 45.2724 7.95504 45.2724 2.97417C45.1698 2.63936 45.2052 2.27154 45.0271 1.95441ZM11.8468 33.9275C10.0219 33.9275 8.19693 33.9169 6.37199 33.937C6.03364 33.9405 5.95701 33.8474 5.96762 33.5232C5.99238 32.7439 5.9688 31.9635 5.97706 31.183C5.99474 29.6281 7.00624 28.6295 8.56593 28.6272C10.7587 28.6236 12.9515 28.6236 15.1454 28.6272C16.7204 28.6295 17.7461 29.6481 17.7555 31.2149C17.7602 31.9953 17.739 32.7757 17.7649 33.555C17.7755 33.8792 17.6612 33.9358 17.3665 33.9334C15.5262 33.9205 13.6859 33.9275 11.8468 33.9275ZM7.87745 22.9413C7.86566 20.778 9.65406 18.9873 11.8374 18.979C14.0325 18.9696 15.8245 20.7285 15.8327 22.8989C15.841 25.081 14.0773 26.8494 11.881 26.8576C9.68707 26.8647 7.89042 25.107 7.87745 22.9413ZM23.5404 39.0699C22.2012 39.0581 20.8619 39.064 19.5215 39.064C18.1964 39.064 16.8713 39.057 15.5474 39.0699C15.2739 39.0723 15.1666 39.0204 15.1749 38.7151C15.1973 37.8321 15.1985 36.9491 15.1749 36.0661C15.1666 35.7407 15.2786 35.6865 15.5734 35.6876C18.2224 35.6982 20.8725 35.6982 23.5215 35.6876C23.8021 35.6865 23.8988 35.7478 23.8917 36.046C23.8705 36.9432 23.8705 37.8415 23.8917 38.7398C23.8988 39.0322 23.795 39.0723 23.5404 39.0699ZM37.303 31.3375C37.3018 32.9231 36.2962 33.9264 34.707 33.9275C29.7862 33.9299 24.8643 33.924 19.9436 33.937C19.5911 33.9381 19.5109 33.8403 19.5168 33.5019C19.5321 32.56 19.5757 31.6098 19.4838 30.6761C19.2987 28.7863 18.1056 27.4636 16.2654 26.972C16.1864 26.9508 16.1062 26.9307 16.0178 26.9083C18.5324 24.0778 17.7673 20.5505 15.7584 18.7267C13.5857 16.7532 10.2966 16.7155 8.09319 18.6053C6.06547 20.3454 5.07755 23.9339 7.70179 26.9119C6.68558 27.1264 5.82498 27.5921 5.16715 28.3914C4.5046 29.1966 4.19926 30.1267 4.20634 31.1665C4.21223 31.9623 4.18394 32.7592 4.21695 33.5526C4.23345 33.9393 4.06369 33.9546 3.77486 33.9039C2.63014 33.7 1.78958 32.725 1.7719 31.5497C1.75893 30.7244 1.76836 29.8992 1.76836 29.074C1.76836 22.8411 1.76836 16.6082 1.76836 10.3753C1.76836 8.63763 2.73506 7.66857 4.47277 7.66857C9.1884 7.66739 13.9028 7.67211 18.6185 7.66032C18.9863 7.65914 19.0771 7.75463 19.0759 8.12127C19.0606 11.1275 19.0594 14.1325 19.07 17.1387C19.0759 18.9165 20.1393 20.2758 21.7921 20.62C22.4735 20.7615 23.1738 20.6978 23.8646 20.679C24.2206 20.6695 24.3138 20.7898 24.3279 21.1234C24.3491 21.608 24.4317 22.089 24.4847 22.5723C24.5767 23.4023 25.2333 23.7382 25.9383 23.295C27.1832 22.5122 28.4223 21.72 29.6554 20.9195C29.8994 20.7615 30.1387 20.6837 30.4335 20.6849C32.5696 20.6955 34.707 20.699 36.8432 20.6825C37.1945 20.6802 37.3171 20.7462 37.3147 21.1293C37.2971 24.5293 37.3065 27.9328 37.303 31.3375ZM41.6437 18.9177C37.7981 18.9212 33.9525 18.9224 30.1081 18.913C29.6943 18.9118 29.3383 19.0061 28.9905 19.236C28.0485 19.8573 27.0913 20.4562 26.0986 21.0892C26.0527 20.653 26.0196 20.2758 25.9713 19.8997C25.8817 19.1865 25.5858 18.9236 24.8667 18.9189C24.1157 18.9142 23.3636 18.9236 22.6126 18.9165C21.482 18.9047 20.8372 18.261 20.8372 17.1234C20.8325 12.6447 20.8325 8.16607 20.8372 3.68622C20.8383 2.54858 21.4856 1.89782 22.615 1.89665C28.9799 1.89311 35.3448 1.89311 41.7097 1.89665C42.8521 1.89665 43.5028 2.56391 43.5028 3.71806C43.504 8.16725 43.504 12.6164 43.5028 17.0668C43.5005 18.2728 42.858 18.9165 41.6437 18.9177Z" fill="#FD585B"/>
<path d="M33.2075 4.93842C35.5347 4.93842 37.8607 4.94196 40.1878 4.93489C40.5674 4.93371 40.8881 5.01977 41.0979 5.35811C41.4068 5.85797 41.1522 6.50165 40.5721 6.65727C40.3918 6.7056 40.1937 6.70443 40.0039 6.70443C35.4828 6.70678 30.9617 6.70678 26.4406 6.70678C26.3522 6.70678 26.2638 6.71032 26.1753 6.7056C25.613 6.68085 25.2169 6.30949 25.2192 5.81199C25.2204 5.31214 25.6165 4.94078 26.1836 4.9396C28.5237 4.93489 30.8662 4.93842 33.2075 4.93842Z" fill="#FD585B"/>
<path d="M31.2562 11.0888C29.5786 11.0888 27.8999 11.0959 26.2223 11.0853C25.4796 11.0805 25.0528 10.5276 25.2815 9.90635C25.3912 9.60809 25.5986 9.41357 25.9146 9.35698C26.0726 9.32869 26.2364 9.32161 26.3968 9.32161C29.6494 9.31925 32.902 9.32043 36.1546 9.32161C36.3008 9.32161 36.4505 9.32279 36.5943 9.34755C37.0529 9.42536 37.3417 9.78846 37.3229 10.2494C37.3052 10.6844 37.0034 11.0357 36.553 11.0652C36.0107 11.1006 35.4649 11.0876 34.9203 11.0888C33.7001 11.09 32.4776 11.0888 31.2562 11.0888Z" fill="#FD585B"/>
<path d="M36.4483 15.4779C35.2116 15.4779 33.975 15.4802 32.7383 15.4767C32.0934 15.4743 31.7032 15.1336 31.7056 14.5902C31.7091 14.049 32.1029 13.7107 32.7477 13.7107C35.2211 13.7083 37.6944 13.7083 40.1678 13.7107C40.8303 13.7107 41.2087 14.029 41.217 14.5784C41.2252 15.149 40.8456 15.4755 40.1572 15.4767C38.9217 15.4802 37.685 15.4779 36.4483 15.4779Z" fill="#FD585B"/>
<path d="M27.3625 13.7095C27.7598 13.7095 28.1571 13.6989 28.5532 13.7119C29.0979 13.7296 29.4563 14.0844 29.4586 14.589C29.461 15.0983 29.1085 15.4637 28.5662 15.4732C27.7575 15.4873 26.9487 15.485 26.14 15.4744C25.6119 15.4673 25.224 15.0853 25.2193 14.6031C25.2146 14.1233 25.6036 13.7414 26.127 13.7119C26.1565 13.7107 26.186 13.7107 26.2155 13.7107C26.5974 13.7095 26.9794 13.7095 27.3625 13.7095Z" fill="#FD585B"/>
<path d="M41.219 10.2129C41.2167 10.6962 40.8406 11.0735 40.3596 11.0782C39.8598 11.0841 39.4566 10.688 39.4625 10.1976C39.4684 9.70477 39.8786 9.3122 40.3749 9.32752C40.8524 9.34167 41.2226 9.72953 41.219 10.2129Z" fill="#FD585B"/>
</g>
<defs>
<clipPath id="clip0_4120_1539">
<rect width="45.27" height="40.9552" fill="white"/>
</clipPath>
</defs>
</svg>
