<svg width="17" height="18" viewBox="0 0 17 18" fill="none" xmlns="http://www.w3.org/2000/svg">
<path d="M13.3993 17.1212C13.3341 17.1212 13.2688 17.1184 13.2036 17.1127C9.49848 16.745 6.15368 14.9524 3.79332 12.0596C1.43013 9.16686 0.329384 5.52456 0.695353 1.79961C0.803158 0.702359 1.77056 -0.0984907 2.86563 0.00980924C3.95787 0.118109 4.75506 1.09566 4.64725 2.19006C4.38625 4.85196 5.17209 7.45971 6.86293 9.52596C8.55376 11.5951 10.9425 12.8776 13.5951 13.1398C14.6873 13.2481 15.4845 14.2256 15.3767 15.32C15.2717 16.3517 14.4064 17.1212 13.3993 17.1212Z" fill="#FCB349"/>
<path d="M12.6476 8.59107C14.8725 8.59107 16.6761 6.77917 16.6761 4.54407C16.6761 2.30897 14.8725 0.49707 12.6476 0.49707C10.4228 0.49707 8.61914 2.30897 8.61914 4.54407C8.61914 6.77917 10.4228 8.59107 12.6476 8.59107Z" fill="#FCB349"/>
</svg>
