<svg width="17" height="18" viewBox="0 0 17 18" fill="none" xmlns="http://www.w3.org/2000/svg">
<path d="M3.27678 17.1212C2.26682 17.1212 1.40438 16.3517 1.30224 15.3229C1.19444 14.2256 1.99163 13.2509 3.08386 13.1426C8.55639 12.6011 12.5679 7.68771 12.0288 2.19006C11.921 1.09281 12.7182 0.118109 13.8105 0.00980924C14.9027 -0.0984907 15.8729 0.702359 15.9807 1.79961C16.7382 9.48606 11.1267 16.3546 3.47537 17.1127C3.40728 17.1184 3.34203 17.1212 3.27678 17.1212Z" fill="#50B0BB"/>
<path d="M4.0285 8.59107C6.25338 8.59107 8.057 6.77917 8.057 4.54407C8.057 2.30897 6.25338 0.49707 4.0285 0.49707C1.80362 0.49707 0 2.30897 0 4.54407C0 6.77917 1.80362 8.59107 4.0285 8.59107Z" fill="#50B0BB"/>
</svg>
