<svg width="17" height="18" viewBox="0 0 17 18" fill="none" xmlns="http://www.w3.org/2000/svg">
<path d="M14.0995 17.7613C14.0456 17.7613 13.9889 17.7585 13.9321 17.7556C12.8399 17.6644 12.0257 16.7011 12.1165 15.6039C12.3349 12.9363 11.5094 10.3456 9.78732 8.30218C8.06528 6.26158 5.65669 5.01328 3.00128 4.79383C1.90905 4.70263 1.09484 3.73933 1.18562 2.64208C1.27641 1.54483 2.23814 0.729728 3.32754 0.818078C7.03829 1.12588 10.4086 2.87008 12.8172 5.72293C15.2258 8.57863 16.3804 12.2038 16.0741 15.9316C15.9889 16.9719 15.1208 17.7613 14.0995 17.7613Z" fill="#F15D3B"/>
<path d="M4.07928 17.4194C6.30416 17.4194 8.10778 15.6075 8.10778 13.3724C8.10778 11.1373 6.30416 9.32544 4.07928 9.32544C1.8544 9.32544 0.0507812 11.1373 0.0507812 13.3724C0.0507812 15.6075 1.8544 17.4194 4.07928 17.4194Z" fill="#F15D3B"/>
</svg>
