<svg width="109" height="36" viewBox="0 0 109 36" fill="none" xmlns="http://www.w3.org/2000/svg">
<path d="M15.3904 3.58105C18.4033 3.58105 21.0105 4.228 23.2091 5.5219C25.405 6.8158 27.1015 8.65976 28.2958 11.0566C29.4874 13.4535 30.086 16.3234 30.086 19.6665C30.086 23.0095 29.4902 25.8795 28.2958 28.2763C27.1015 30.6732 25.4078 32.52 23.2091 33.811C21.0105 35.1049 18.4062 35.7519 15.3904 35.7519C12.406 35.7519 9.8158 35.1049 7.61998 33.811C5.42133 32.5171 3.72766 30.6732 2.53329 28.2763C1.33893 25.8795 0.743164 23.0095 0.743164 19.6665C0.743164 16.3234 1.33893 13.4535 2.53329 11.0566C3.72482 8.65976 5.42133 6.8158 7.61998 5.5219C9.8158 4.228 12.406 3.58105 15.3904 3.58105ZM15.3904 7.97861C13.4443 7.97861 11.7705 8.43746 10.3747 9.34946C8.97606 10.2643 7.90084 11.5896 7.14905 13.3224C6.39441 15.058 6.01993 17.1699 6.01993 19.6608C6.01993 22.1203 6.39725 24.2265 7.14905 25.9764C7.90368 27.7263 8.97889 29.0601 10.3747 29.9749C11.7705 30.8898 13.4443 31.3458 15.3904 31.3458C17.3678 31.3458 19.0558 30.8898 20.4544 29.9749C21.8502 29.0601 22.9254 27.7263 23.6801 25.9764C24.4347 24.2265 24.8092 22.1203 24.8092 19.6608C24.8092 17.1699 24.4319 15.0552 23.6801 13.3224C22.9254 11.5896 21.8502 10.2643 20.4544 9.34946C19.0558 8.43746 17.3678 7.97861 15.3904 7.97861Z" fill="#242C33"/>
<path d="M41.7632 0.979004V28.6554C41.7632 29.8239 41.9674 30.6276 42.376 31.0693C42.7845 31.5111 43.4597 31.7305 44.4015 31.7305C44.9661 31.7305 45.4456 31.6906 45.8371 31.6108C46.2286 31.5339 46.725 31.3828 47.3208 31.1605L46.7562 34.9453C46.2229 35.199 45.6101 35.3956 44.9207 35.5381C44.2285 35.6806 43.5391 35.7519 42.8497 35.7519C40.7447 35.7519 39.1985 35.2075 38.2113 34.1188C37.2212 33.0301 36.7275 31.3515 36.7275 29.08V0.979004H41.7632Z" fill="#242C33"/>
<path d="M54.1011 7.64803C53.0004 7.64803 52.1635 7.37158 51.5819 6.81868C51.0003 6.26578 50.7109 5.48773 50.7109 4.47598C50.7109 3.46708 51.0003 2.69472 51.5819 2.15892C52.1635 1.62312 53.0032 1.35522 54.1011 1.35522C55.1678 1.35522 55.9934 1.62312 56.5721 2.15892C57.1537 2.69472 57.4431 3.46708 57.4431 4.47598C57.4431 5.48488 57.1509 6.26578 56.5721 6.81868C55.9905 7.37158 55.1678 7.64803 54.1011 7.64803ZM56.5977 11.6238V35.2788H51.5592V11.6238H56.5977Z" fill="#242C33"/>
<path d="M77.0803 35.7519C75.6987 35.7519 74.4362 35.484 73.2901 34.9482C72.1439 34.4124 71.1794 33.6628 70.3935 32.7024C69.6077 31.7419 69.0289 30.6618 68.6516 29.4619L69.2644 28.6582L68.8871 35.2816H64.4614V0.979004H69.4999V17.586L68.9353 16.7823C69.5311 15.1435 70.5524 13.7955 71.9964 12.7381C73.4404 11.6808 75.1823 11.1535 77.225 11.1535C79.1087 11.1535 80.8421 11.6437 82.428 12.6213C84.0138 13.5988 85.2621 15.0039 86.1728 16.8307C87.0834 18.6604 87.5374 20.8834 87.5374 23.5026C87.5374 26.0562 87.0749 28.2507 86.1472 30.0775C85.2196 31.9072 83.9656 33.3094 82.3797 34.287C80.7939 35.2617 79.0264 35.7519 77.0803 35.7519ZM75.9966 31.6821C78.0363 31.6821 79.6307 30.9496 80.7768 29.4819C81.923 28.0141 82.4961 26.0049 82.4961 23.4484C82.4961 20.892 81.9315 18.8913 80.7996 17.4406C79.6704 15.99 78.0846 15.2632 76.042 15.2632C74.7228 15.2632 73.5766 15.6024 72.6035 16.2807C71.6305 16.959 70.8673 17.9137 70.3198 19.1421C69.7694 20.3733 69.4942 21.8382 69.4942 23.5425C69.4942 25.2154 69.7609 26.6575 70.2942 27.8716C70.8276 29.0857 71.5879 30.0234 72.578 30.6874C73.5738 31.3515 74.7114 31.6821 75.9966 31.6821Z" fill="#242C33"/>
<path d="M93.9888 35.2787V11.6237H98.2754L98.7464 15.8816C99.3733 14.3369 100.307 13.1627 101.549 12.3562C102.789 11.5525 104.321 11.1506 106.142 11.1506C106.613 11.1506 107.084 11.1905 107.555 11.2703C108.026 11.3501 108.418 11.467 108.732 11.6266L108.026 16.0726C107.68 15.9472 107.297 15.8446 106.871 15.7648C106.449 15.6878 105.876 15.6451 105.152 15.6451C104.179 15.6451 103.22 15.9044 102.278 16.426C101.337 16.9475 100.559 17.7256 99.9464 18.7687C99.3336 19.8089 99.0272 21.1342 99.0272 22.7416V35.2787H93.9888Z" fill="#242C33"/>
</svg>
