<svg width="17" height="18" viewBox="0 0 17 18" fill="none" xmlns="http://www.w3.org/2000/svg">
<path d="M2.75524 17.6243C1.75946 17.6243 0.899861 16.8748 0.783545 15.8545C-0.0902424 8.17941 5.41632 1.22541 13.0534 0.347608C14.1428 0.222208 15.1273 1.00881 15.2521 2.10321C15.3769 3.19761 14.5939 4.18656 13.5045 4.31196C8.04052 4.93896 4.10564 9.91507 4.72977 15.4013C4.8546 16.4957 4.0716 17.4847 2.9822 17.6101C2.90844 17.6215 2.83184 17.6243 2.75524 17.6243Z" fill="#747C75"/>
<path d="M12.696 16.9717C14.9209 16.9717 16.7245 15.1598 16.7245 12.9247C16.7245 10.6896 14.9209 8.87769 12.696 8.87769C10.4711 8.87769 8.66748 10.6896 8.66748 12.9247C8.66748 15.1598 10.4711 16.9717 12.696 16.9717Z" fill="#747C75"/>
</svg>
