<svg width="20" height="21" viewBox="0 0 20 21" fill="none" xmlns="http://www.w3.org/2000/svg">
<g clip-path="url(#clip0_4148_1367)">
<path d="M19.9994 10.0006C19.9994 12.7081 19.9994 15.4161 19.9994 18.1236C19.9994 19.2885 19.2879 20.0006 18.123 20.0006C15.0057 20.0006 11.8885 20.0006 8.77184 20.0006C7.60747 20.0006 6.89655 19.2885 6.89598 18.123C6.89598 17.7207 6.8931 17.3184 6.89655 16.9161C6.9023 16.3236 7.34942 15.8667 7.92184 15.8627C8.50575 15.8586 8.95747 16.3161 8.96437 16.9201C8.96724 17.2 8.97414 17.4805 8.96149 17.7604C8.95517 17.9058 9.00402 17.9351 9.14023 17.9339C10.0167 17.9276 10.8925 17.9311 11.769 17.9311C13.7511 17.9311 15.7339 17.9282 17.7161 17.9356C17.8966 17.9362 17.9356 17.892 17.9356 17.7144C17.9305 12.5719 17.9305 7.42933 17.9356 2.2868C17.9356 2.11151 17.9006 2.06381 17.7178 2.06439C14.8736 2.07128 12.0293 2.07071 9.18506 2.06496C9.01207 2.06439 8.94885 2.09485 8.96092 2.28163C8.97931 2.56036 8.97069 2.8414 8.96379 3.12186C8.95057 3.6937 8.48908 4.14082 7.92356 4.13737C7.36781 4.13393 6.90345 3.68852 6.90115 3.1276C6.89885 2.56841 6.84138 2.00347 6.92816 1.45002C7.06437 0.581052 7.76322 0.00346603 8.64253 0.00116718C10.6897 -0.00285581 12.7362 1.77501e-05 14.7833 1.77501e-05C15.9184 1.77501e-05 17.0529 -0.00113168 18.1879 0.000592463C19.2655 0.0023166 19.9994 0.733926 20 1.81209C20.0006 4.54197 19.9994 7.27128 19.9994 10.0006Z" fill="black"/>
<path d="M12.3313 8.96657C11.6048 8.24013 10.9123 7.55277 10.2255 6.85967C9.8215 6.4522 9.78185 5.87174 10.1181 5.4568C10.51 4.97231 11.1991 4.92806 11.6571 5.37289C12.1824 5.88323 12.6956 6.40622 13.214 6.92404C13.9709 7.68094 14.7278 8.43783 15.4836 9.1953C15.991 9.70392 15.9933 10.297 15.4887 10.8028C14.2301 12.0631 12.9721 13.3246 11.71 14.5815C11.11 15.1786 10.183 14.9815 9.94564 14.2068C9.82093 13.8011 9.92437 13.443 10.2249 13.1424C10.8652 12.5028 11.5048 11.8625 12.1451 11.2229C12.1951 11.1729 12.2491 11.1269 12.3468 11.0367C12.2163 11.0367 12.1422 11.0367 12.0681 11.0367C8.41173 11.0367 4.75598 11.0373 1.09966 11.0361C0.453684 11.0361 -0.013557 10.5786 0.000810769 9.97002C0.0134544 9.44358 0.442765 8.9999 0.969776 8.97002C1.04851 8.96542 1.12782 8.96772 1.20656 8.96772C4.81978 8.96772 8.43242 8.96772 12.0456 8.96772C12.1238 8.96657 12.202 8.96657 12.3313 8.96657Z" fill="black"/>
</g>
<defs>
<clipPath id="clip0_4148_1367">
<rect width="20" height="20.0011" fill="white"/>
</clipPath>
</defs>
</svg>
