<svg width="20" height="21" viewBox="0 0 20 21" fill="none" xmlns="http://www.w3.org/2000/svg">
<g clip-path="url(#clip0_4148_1364)">
<path d="M19.7267 18.7235C18.6474 17.6496 17.5742 16.5698 16.4932 15.4977C16.3779 15.383 16.363 15.32 16.473 15.1827C18.21 13.0083 18.8964 10.5384 18.4513 7.78867C17.7215 3.28222 13.8468 0.00118857 9.30055 0C7.71263 0.000594283 6.21147 0.364295 4.8262 1.13983C1.21414 3.16218 -0.586533 7.03156 0.170584 11.1C0.943746 15.2558 4.67881 18.4566 8.90833 18.5844C11.2641 18.6551 13.3637 17.958 15.1929 16.467C15.3141 16.3683 15.3706 16.379 15.4752 16.4848C16.1312 17.1516 16.7957 17.8113 17.4577 18.4727C17.8986 18.9137 18.3384 19.3564 18.7823 19.795C18.9981 20.0077 19.2584 20.0648 19.5412 19.9602C19.8075 19.8615 19.9584 19.6559 19.9947 19.3766C20.028 19.1115 19.9109 18.9065 19.7267 18.7235ZM9.2952 17.1647C4.98368 17.1623 1.47266 13.6459 1.4685 9.32549C1.46434 4.99851 4.97714 1.48036 9.3059 1.4756C13.6251 1.47085 17.1481 4.97831 17.157 9.29043C17.1659 13.6382 13.6424 17.1671 9.2952 17.1647Z" fill="black"/>
<path d="M11.5565 9.13058C11.4198 9.04203 11.3859 9.00756 11.5048 8.86374C12.0408 8.21181 12.2536 7.46183 12.1282 6.62151C11.9541 5.45375 11.0555 4.49517 9.91151 4.25924C8.71344 4.01202 7.48981 4.54331 6.86759 5.58033C6.24954 6.61082 6.33809 7.91646 7.10531 8.84592C7.23011 8.99686 7.21109 9.04381 7.05598 9.14365C5.77827 9.96554 5.10852 11.144 5.03899 12.6588C5.01462 13.1842 5.31236 13.4789 5.83473 13.4789C6.99358 13.4801 8.15243 13.4795 9.31129 13.4795C10.485 13.4795 11.6587 13.4813 12.8324 13.4789C13.3001 13.4778 13.6056 13.1741 13.5889 12.7076C13.5325 11.1636 12.8544 9.96733 11.5565 9.13058ZM9.32674 5.63441C10.1112 5.63857 10.7465 6.28872 10.7388 7.07971C10.7304 7.86535 10.0803 8.49588 9.28811 8.48697C8.51376 8.47746 7.88263 7.83147 7.88738 7.05296C7.89154 6.26435 8.53515 5.63025 9.32674 5.63441ZM6.56392 12.039C6.87294 10.8017 8.00683 9.92038 9.2893 9.91265C10.5973 9.90433 11.7336 10.7708 12.0634 12.039C10.2318 12.039 8.40382 12.039 6.56392 12.039Z" fill="black"/>
</g>
<defs>
<clipPath id="clip0_4148_1364">
<rect width="20" height="20.0107" fill="white"/>
</clipPath>
</defs>
</svg>
