<svg width="20" height="20" viewBox="0 0 20 20" fill="none" xmlns="http://www.w3.org/2000/svg">
<g clip-path="url(#clip0_4148_1361)">
<path d="M19.877 5.25195C19.4383 3.99219 18.2129 3.11172 16.8781 3.10937C16.2207 3.1082 15.5633 3.10937 14.9059 3.10898C14.5285 3.10898 14.1508 3.10508 13.7734 3.11094C13.6211 3.11328 13.5637 3.05312 13.5691 2.90273C13.5766 2.70117 13.5676 2.49922 13.5715 2.29766C13.5793 1.90039 13.516 1.51641 13.325 1.16562C12.9727 0.518359 12.4738 0.0703125 11.698 0.0203125C11.6926 0.0195312 11.6875 0.0195312 11.682 0.0191406C11.6832 0.0242187 11.6844 0.0289062 11.6859 0.0335937C11.6148 0.0460937 11.5453 0.05 11.4844 0C10.4949 0 9.50508 0 8.51562 0C8.45469 0.0511719 8.38437 0.0457031 8.31289 0.0328125C8.31367 0.028125 8.31484 0.0234375 8.31602 0.01875C8.31094 0.0191406 8.30547 0.0191406 8.30039 0.0199219C8.10156 0.0136719 7.91016 0.0527344 7.7332 0.139453C6.92773 0.533984 6.48906 1.17969 6.43203 2.07578C6.41602 2.32852 6.43008 2.5832 6.42891 2.83672C6.42812 3.10586 6.42617 3.1082 6.15625 3.10859C5.11563 3.10898 4.07422 3.09141 3.03398 3.11406C2.16406 3.13359 1.41953 3.47656 0.81875 4.11406C0.345703 4.61641 0.046875 5.2 0 5.89844C0 5.92461 0 5.95039 0 5.97656C0.071875 6.05469 0.05 6.13281 0 6.21094C0 9.40117 0 12.591 0 15.7812C0.0554687 15.9844 0.0988281 16.1922 0.16875 16.3902C0.623438 17.6848 1.77305 18.5062 3.16016 18.5109C5.32109 18.5184 7.48203 18.5129 9.64297 18.5121C9.71406 18.5121 9.78672 18.509 9.85664 18.4957C10.3426 18.4031 10.6227 17.916 10.4547 17.4598C10.3344 17.1328 10.0465 16.9516 9.6375 16.9512C7.49609 16.9504 5.35469 16.9527 3.21328 16.95C2.26094 16.9488 1.57148 16.3 1.56602 15.3703C1.55508 13.4437 1.56328 11.5172 1.56016 9.59023C1.56016 9.48242 1.58516 9.44883 1.69805 9.44922C4.17148 9.45234 6.64492 9.45234 9.11836 9.44961C9.22734 9.44961 9.26172 9.47656 9.25937 9.58867C9.25195 9.91406 9.25469 10.2395 9.25703 10.5648C9.26055 11.0562 9.59023 11.4074 10.0414 11.4035C10.4844 11.3996 10.8117 11.052 10.8176 10.5734C10.8215 10.248 10.825 9.92227 10.8152 9.59727C10.8113 9.47266 10.85 9.44922 10.9672 9.44922C13.4016 9.45273 15.8359 9.45312 18.2703 9.44844C18.4129 9.44805 18.4391 9.49141 18.4371 9.62305C18.4301 10.1109 18.4277 10.5996 18.4387 11.0875C18.4477 11.4844 18.7594 11.7957 19.1562 11.8297C19.5371 11.8621 19.8746 11.6059 19.9641 11.2168C19.9629 9.61484 19.9617 8.01328 19.9625 6.41133C19.9625 6.34414 19.9332 6.26719 20 6.21055C20 6.11953 20 6.02812 20 5.93711C19.9508 5.71055 19.9551 5.47656 19.877 5.25195ZM8.04414 3.00625C8.05352 2.72695 8.04336 2.44687 8.04844 2.16719C8.05508 1.81016 8.29453 1.56562 8.65 1.56406C9.54766 1.55977 10.4453 1.56016 11.3426 1.56406C11.6973 1.56562 11.9379 1.80781 11.9469 2.16602C11.9539 2.4457 11.9422 2.72539 11.9516 3.00508C11.9559 3.13125 11.9219 3.16875 11.7922 3.16719C11.1938 3.16016 10.5953 3.16406 9.99687 3.16406C9.39844 3.16406 8.8 3.15977 8.20156 3.16719C8.07148 3.16914 8.03984 3.13125 8.04414 3.00625ZM18.2387 7.89336C16.2211 7.88711 14.2035 7.88906 12.1859 7.88906C11.4504 7.88906 10.7152 7.88906 9.97969 7.88906C7.23984 7.88906 4.5 7.8875 1.75977 7.89297C1.60039 7.89336 1.55273 7.86055 1.55781 7.69453C1.57109 7.2457 1.55898 6.79648 1.56289 6.34766C1.57109 5.39805 2.23828 4.73516 3.19023 4.72656C3.20312 4.72656 3.21641 4.72656 3.2293 4.72656C7.73945 4.72656 12.2496 4.72695 16.7598 4.72617C17.4359 4.72617 17.9508 5 18.2691 5.6082C18.3957 5.85 18.4309 6.11367 18.4328 6.38203C18.4359 6.81797 18.4258 7.2543 18.4379 7.69023C18.4422 7.85 18.4043 7.89414 18.2387 7.89336Z" fill="black"/>
<path d="M17.6597 16.5609C17.5605 16.464 17.5547 16.3968 17.6211 16.2851C17.948 15.7343 18.0961 15.1293 18.0754 14.4961C18.0058 12.3578 16.1855 10.8238 14.0629 11.0988C11.791 11.3929 10.3988 13.9058 11.3531 15.989C12.2297 17.9019 14.4219 18.634 16.2746 17.6289C16.391 17.566 16.4633 17.5597 16.5668 17.666C17.0937 18.2066 17.6316 18.7367 18.166 19.2703C18.2961 19.4 18.4328 19.5191 18.6254 19.5449C18.7347 19.5449 18.8437 19.5449 18.9531 19.5445C18.9531 19.548 18.9523 19.5511 18.9519 19.5543C19.2914 19.5312 19.4738 19.3535 19.5707 18.9519C19.5707 18.8476 19.5707 18.7437 19.5707 18.6394C19.491 18.4011 19.3324 18.2211 19.1562 18.048C18.6539 17.5547 18.1637 17.0508 17.6597 16.5609ZM14.5601 16.5258C13.5011 16.5222 12.6156 15.632 12.616 14.5707C12.616 13.507 13.4992 12.6226 14.5625 12.6215C15.6242 12.6203 16.5148 13.5039 16.5203 14.5629C16.5254 15.6242 15.6215 16.5293 14.5601 16.5258Z" fill="black"/>
</g>
<defs>
<clipPath id="clip0_4148_1361">
<rect width="20" height="19.5535" fill="white"/>
</clipPath>
</defs>
</svg>
