<svg width="20" height="20" viewBox="0 0 20 20" fill="none" xmlns="http://www.w3.org/2000/svg">
<g clip-path="url(#clip0_4148_1371)">
<path d="M9.19768 19.8315C8.89486 19.7475 8.6026 19.6462 8.36169 19.4293C8.02959 19.1299 7.88706 18.7426 7.82084 18.3155C7.78244 18.0693 7.74645 17.8221 7.69078 17.5798C7.67447 17.5088 7.60584 17.4248 7.53961 17.3945C7.20224 17.2429 6.85959 17.1023 6.51406 16.9698C6.45167 16.9458 6.35185 16.9535 6.29666 16.9895C6.04423 17.1522 5.80284 17.3317 5.55521 17.5025C4.83487 17.9992 4.05503 17.9354 3.42875 17.3264C3.17632 17.0812 2.92773 16.8321 2.6825 16.5801C2.07255 15.9539 2.00776 15.1735 2.5035 14.4537C2.67387 14.2061 2.85383 13.9647 3.01652 13.7127C3.05251 13.6575 3.06163 13.5577 3.03811 13.4953C2.90806 13.1555 2.75929 12.8235 2.62827 12.4846C2.58604 12.3762 2.52893 12.3248 2.41232 12.3061C2.06583 12.2504 1.71694 12.1977 1.37668 12.1142C0.673625 11.9419 0.212917 11.378 0.182203 10.6519C0.164447 10.2238 0.164927 9.7943 0.181243 9.36623C0.211477 8.58686 0.736013 7.99994 1.51298 7.85453C1.81436 7.79838 2.1191 7.75711 2.41808 7.69088C2.4939 7.67408 2.58364 7.60018 2.6158 7.52963C2.76601 7.1985 2.90374 6.86161 3.03235 6.52183C3.05779 6.45465 3.05059 6.34763 3.0122 6.28812C2.84663 6.02993 2.66043 5.78518 2.48814 5.53131C2.02551 4.84697 2.06967 4.0988 2.62348 3.49268C2.89942 3.19082 3.18976 2.90048 3.49162 2.62405C4.09774 2.06928 4.84543 2.02369 5.52977 2.48584C5.78412 2.65765 6.02887 2.84385 6.28658 3.0099C6.34609 3.04829 6.45311 3.05741 6.5203 3.03197C6.85431 2.90576 7.18016 2.75747 7.5137 2.62981C7.62983 2.58518 7.68262 2.52423 7.7023 2.40138C7.75653 2.06113 7.80884 1.71896 7.8909 1.38446C8.06607 0.668925 8.62995 0.208217 9.36469 0.179903C9.78652 0.163586 10.2093 0.164066 10.6312 0.178943C11.4192 0.206777 12.0099 0.734672 12.1539 1.52123C12.2091 1.82309 12.2523 2.12687 12.3175 2.42633C12.3329 2.49688 12.4025 2.58134 12.4692 2.6111C12.8066 2.76275 13.1492 2.90336 13.4947 3.03581C13.5571 3.05981 13.6569 3.05213 13.7121 3.01614C13.9698 2.84961 14.2156 2.66533 14.4689 2.49208C15.1523 2.02561 15.9015 2.06257 16.5071 2.61638C16.8464 2.92687 17.1708 3.25609 17.4755 3.60066C17.895 4.0748 17.9564 4.79706 17.6315 5.33743C17.4343 5.66569 17.1991 5.97042 16.9913 6.29292C16.9553 6.34859 16.9462 6.44841 16.9702 6.51032C17.1003 6.85009 17.2495 7.18218 17.3805 7.52099C17.4228 7.63089 17.4823 7.6808 17.5979 7.69808C17.895 7.74271 18.1911 7.79406 18.4857 7.85165C19.172 7.98602 19.6135 8.38722 19.793 9.06821C19.8045 9.11092 19.8199 9.15315 19.8333 9.19538C19.8333 9.73287 19.8333 10.2704 19.8333 10.8079C19.7445 11.1447 19.6231 11.4624 19.363 11.713C19.1298 11.9376 18.8557 12.0767 18.5429 12.142C18.3019 12.1924 18.0433 12.0331 17.9698 11.7989C17.8974 11.5675 18.025 11.294 18.254 11.1956C18.3005 11.1755 18.3514 11.1644 18.3998 11.1476C18.6873 11.0478 18.8274 10.8683 18.8332 10.5626C18.8404 10.1917 18.8399 9.82021 18.8337 9.44925C18.8279 9.1162 18.6638 8.91128 18.3317 8.84361C17.9185 8.75915 17.5029 8.68476 17.0863 8.62285C16.7922 8.57918 16.6314 8.42609 16.5301 8.14631C16.3521 7.65585 16.151 7.1721 15.9327 6.69796C15.8122 6.43689 15.8074 6.21805 15.9802 5.98434C16.2196 5.66041 16.4466 5.32735 16.676 4.99622C16.9107 4.65789 16.8877 4.40018 16.5973 4.10648C16.3636 3.8694 16.1289 3.63377 15.8914 3.40102C15.6058 3.12123 15.3472 3.10012 15.0156 3.32903C14.6787 3.56179 14.3418 3.79406 14.0111 4.03497C13.7904 4.19574 13.5787 4.19718 13.3306 4.08584C12.8368 3.86413 12.3358 3.65729 11.829 3.46629C11.5804 3.37222 11.4355 3.22297 11.3932 2.96287C11.3294 2.57174 11.2584 2.18206 11.1926 1.79142C11.1178 1.34511 10.9177 1.17234 10.4675 1.17186C10.1412 1.17138 9.81484 1.16946 9.4885 1.17234C9.11946 1.1757 8.91598 1.33503 8.84303 1.69736C8.76145 2.10432 8.68706 2.51368 8.62612 2.92399C8.58244 3.21866 8.42599 3.37702 8.14717 3.4778C7.66199 3.65297 7.18256 3.84829 6.7161 4.06761C6.44063 4.19718 6.21364 4.19766 5.96889 4.01482C5.65167 3.77774 5.32294 3.55507 4.9966 3.32951C4.65923 3.09628 4.40152 3.12027 4.10686 3.41062C3.87458 3.63953 3.64375 3.87036 3.41484 4.10264C3.12449 4.3973 3.1005 4.65501 3.33421 4.99238C3.56697 5.32879 3.79924 5.66569 4.04063 5.99634C4.20188 6.21758 4.19996 6.42969 4.08862 6.67732C3.86883 7.16491 3.66151 7.65921 3.47578 8.16071C3.37452 8.43377 3.20992 8.57822 2.92629 8.61997C2.53469 8.67756 2.14453 8.74955 1.75485 8.82057C1.34405 8.89544 1.17704 9.10036 1.1756 9.52219C1.17464 9.84853 1.17369 10.1749 1.1756 10.5012C1.178 10.8914 1.33781 11.0934 1.72222 11.1687C2.12342 11.2474 2.52605 11.3199 2.93061 11.3804C3.21568 11.4231 3.37644 11.5719 3.47626 11.8435C3.65911 12.3392 3.86211 12.8287 4.08094 13.3096C4.1966 13.563 4.20524 13.7785 4.03823 14.0074C3.79636 14.3376 3.56457 14.6749 3.33181 15.0113C3.1029 15.342 3.12449 15.6016 3.4038 15.8872C3.64087 16.1295 3.88034 16.3695 4.12318 16.6065C4.40248 16.8791 4.66211 16.9017 4.98364 16.6809C5.32629 16.4453 5.66751 16.2082 6.00392 15.9639C6.22563 15.8032 6.43775 15.8075 6.6849 15.9188C7.17249 16.1386 7.66775 16.3431 8.16877 16.5307C8.4236 16.6262 8.57573 16.775 8.61844 17.0447C8.68034 17.4358 8.75233 17.8255 8.81856 18.2161C8.8939 18.6596 9.09402 18.8295 9.54849 18.8304C9.84267 18.8309 10.1369 18.8304 10.4315 18.8304C10.8922 18.8304 11.0247 18.7373 11.1811 18.304C11.2776 18.0366 11.5315 17.8912 11.7839 17.9589C12.0186 18.0218 12.2033 18.2838 12.1433 18.518C12.092 18.7196 12.0186 18.923 11.9135 19.1011C11.7023 19.4576 11.3755 19.6746 10.9748 19.7792C10.9196 19.7936 10.8658 19.8118 10.8111 19.8281C10.2727 19.8315 9.73517 19.8315 9.19768 19.8315Z" fill="black"/>
<path d="M10.8345 19.9995H9.17452L9.15244 19.9932C8.86114 19.9121 8.52761 19.8051 8.24879 19.5541C7.92677 19.2638 7.73769 18.8784 7.65418 18.3414L7.64123 18.2584C7.60859 18.0463 7.57452 17.8265 7.52653 17.6172C7.52173 17.5971 7.48862 17.5563 7.4699 17.5476C7.15268 17.4051 6.82011 17.2669 6.45346 17.1263C6.43859 17.121 6.39971 17.1239 6.3858 17.1311C6.22599 17.2343 6.06522 17.348 5.90973 17.4579C5.82335 17.5188 5.73697 17.5803 5.6501 17.6403C4.86642 18.1811 3.99204 18.1086 3.31105 17.4464C3.06486 17.2069 2.81243 16.9545 2.56144 16.6968C1.89821 16.0158 1.82479 15.1414 2.36468 14.3582C2.42563 14.2694 2.48802 14.1816 2.5504 14.0938C2.65934 13.9397 2.77212 13.7809 2.8753 13.6211C2.88202 13.6081 2.88538 13.5697 2.88058 13.5544C2.81387 13.3797 2.73997 13.2026 2.66894 13.0313C2.60271 12.8724 2.53457 12.7083 2.47122 12.5446C2.44866 12.4861 2.43715 12.4798 2.38532 12.4712L2.28118 12.4544C1.97068 12.4045 1.64914 12.3532 1.33625 12.2764C0.554483 12.0849 0.0477044 11.4648 0.0141111 10.6581C-0.00364535 10.2382 -0.00412525 9.80102 0.0131513 9.35903C0.0462647 8.5048 0.62263 7.84925 1.48166 7.68896C1.59587 7.66785 1.71201 7.64817 1.82431 7.62946C2.00811 7.59874 2.19863 7.56707 2.38148 7.52628C2.40547 7.521 2.4525 7.48213 2.46306 7.45957C2.60415 7.14907 2.73901 6.82274 2.87578 6.46185C2.88298 6.44265 2.8801 6.39466 2.87098 6.37739C2.77596 6.2291 2.67038 6.08033 2.56816 5.93684C2.49617 5.8351 2.42131 5.73048 2.3498 5.62442C1.84303 4.87577 1.89917 4.03642 2.50001 3.37895C2.77596 3.07661 3.07158 2.78099 3.37824 2.50024C4.03571 1.89844 4.87506 1.84133 5.62371 2.34667C5.73121 2.41914 5.83775 2.49496 5.94093 2.56839C6.08298 2.66917 6.22983 2.77379 6.37716 2.86833C6.39348 2.87793 6.44195 2.88177 6.46066 2.87457C6.62959 2.81074 6.80043 2.73923 6.96552 2.67061C7.12437 2.60438 7.2885 2.53575 7.45358 2.47289C7.51885 2.44793 7.52701 2.43306 7.53613 2.37499L7.54525 2.31884C7.59612 1.99874 7.64842 1.66713 7.72761 1.34463C7.92149 0.554231 8.54585 0.0436133 9.35784 0.0119397C9.77008 -0.00389718 10.2006 -0.00437708 10.6368 0.0109798C11.4997 0.0416937 12.16 0.622378 12.3189 1.49052C12.3385 1.59802 12.3568 1.70552 12.375 1.8135C12.4072 2.00402 12.4403 2.20078 12.4815 2.39034C12.4863 2.41002 12.519 2.44937 12.5377 2.45801C12.8554 2.60102 13.188 2.73875 13.5541 2.87937C13.569 2.88465 13.6079 2.88177 13.6218 2.87457C13.7739 2.77619 13.927 2.66773 14.0753 2.56263C14.1746 2.49256 14.2735 2.4225 14.3738 2.35387C15.1244 1.84133 15.9642 1.89364 16.6202 2.49304C16.9648 2.80834 17.295 3.14379 17.6012 3.4898C18.07 4.01962 18.1415 4.8153 17.7754 5.4243C17.6587 5.61866 17.5282 5.80582 17.402 5.98675C17.3118 6.11632 17.2182 6.25069 17.1323 6.38411C17.1251 6.39706 17.1217 6.43593 17.127 6.45129C17.1928 6.62358 17.2657 6.79826 17.3362 6.96719C17.4034 7.12796 17.4725 7.29448 17.5368 7.46101C17.5589 7.5186 17.5709 7.52484 17.6223 7.53252C17.9145 7.57619 18.2159 7.6285 18.5173 7.68752C19.2765 7.83581 19.7598 8.28644 19.9551 9.02646C19.9618 9.05237 19.9704 9.07733 19.9791 9.10276C19.9839 9.11668 19.9887 9.13108 19.993 9.14499L20.0012 9.16995V10.8304L19.9954 10.8515C19.9105 11.1735 19.7828 11.5421 19.4795 11.8349C19.2295 12.0758 18.9257 12.2346 18.5768 12.3076C18.2538 12.3747 17.9093 12.1698 17.8094 11.8502C17.7111 11.5364 17.8809 11.174 18.1876 11.0425C18.2255 11.0262 18.2625 11.0152 18.2951 11.0056C18.3114 11.0008 18.3282 10.996 18.3445 10.9902C18.5706 10.9115 18.6608 10.7911 18.6651 10.5607C18.6718 10.2037 18.6718 9.83126 18.6656 9.45357C18.6608 9.19394 18.5509 9.06101 18.298 9.00918C17.8776 8.92328 17.4615 8.84937 17.0617 8.79034C16.7177 8.73947 16.4988 8.55327 16.3721 8.20534C16.2008 7.73312 16.0012 7.25033 15.7799 6.76995C15.6259 6.43546 15.6465 6.15471 15.8452 5.88597C16.0429 5.61866 16.2358 5.33935 16.422 5.06965L16.5377 4.90216C16.7248 4.63198 16.71 4.46113 16.4777 4.22598C16.2867 4.03258 16.0347 3.77775 15.7737 3.52244C15.5448 3.29832 15.3773 3.28489 15.1109 3.46869L15.0865 3.48597C14.7644 3.70864 14.4314 3.93899 14.1103 4.17271C13.8502 4.36227 13.5805 4.38435 13.2619 4.24085C12.7752 4.0225 12.2733 3.81518 11.7698 3.62514C11.455 3.50612 11.2775 3.2988 11.2275 2.99118C11.1911 2.76755 11.1512 2.54007 11.1129 2.3198C11.0841 2.15327 11.0548 1.98722 11.0269 1.8207C10.9655 1.45405 10.8345 1.34175 10.4669 1.34127L10.2591 1.34079C10.0067 1.34031 9.74609 1.33935 9.48982 1.34175C9.19468 1.34463 9.06414 1.45021 9.00751 1.73192C8.91873 2.17391 8.84818 2.57223 8.79204 2.95039C8.74117 3.29256 8.554 3.51092 8.20367 3.63761C7.70265 3.81854 7.22611 4.01482 6.787 4.22166C6.44147 4.38435 6.1492 4.36179 5.86798 4.15159C5.61027 3.95915 5.33961 3.77247 5.07758 3.59202L4.90097 3.47013C4.63175 3.28393 4.4609 3.29976 4.22479 3.533C3.993 3.76143 3.76072 3.99418 3.53421 4.22358C3.30097 4.45969 3.28562 4.63054 3.47182 4.89976L3.51213 4.95783C3.72713 5.26881 3.9498 5.59034 4.17584 5.90036C4.36444 6.15951 4.38556 6.42922 4.24111 6.74883C4.00307 7.27721 3.80391 7.75903 3.63259 8.22166C3.50781 8.55855 3.2909 8.73851 2.95016 8.7889C2.58736 8.84217 2.21879 8.90936 1.8627 8.97415L1.78448 8.98854C1.45574 9.04853 1.34441 9.18387 1.34345 9.52508C1.34249 9.85381 1.34153 10.1758 1.34345 10.5022C1.34536 10.8151 1.45286 10.9466 1.75472 11.0061C2.19767 11.0929 2.59024 11.162 2.95544 11.2167C3.2933 11.2676 3.50925 11.449 3.63403 11.7883C3.81015 12.2668 4.01219 12.7563 4.23391 13.2429C4.32845 13.4502 4.42539 13.766 4.17392 14.1096C3.95172 14.4129 3.73385 14.7287 3.52317 15.0339L3.47038 15.1102C3.2861 15.3765 3.30001 15.544 3.52413 15.7729C3.778 16.0326 4.01267 16.2668 4.24063 16.4894C4.4633 16.7068 4.63271 16.7212 4.8885 16.5456C5.1942 16.3354 5.5546 16.0858 5.90541 15.831C6.16312 15.6439 6.43283 15.6242 6.75388 15.7691C7.24003 15.9879 7.73577 16.1929 8.22767 16.3771C8.55736 16.5005 8.73397 16.7054 8.78436 17.0221C8.82323 17.2669 8.8669 17.516 8.90913 17.7574C8.93457 17.9023 8.96 18.0472 8.98448 18.1921C9.04591 18.555 9.17788 18.6658 9.54932 18.6663C9.78448 18.6668 10.0201 18.6668 10.2553 18.6663H10.4319C10.8201 18.6663 10.8921 18.6154 11.0231 18.2507C11.1498 17.8989 11.4881 17.7098 11.8274 17.8005C12.1634 17.8908 12.387 18.2473 12.3064 18.5636C12.2445 18.8059 12.161 19.0171 12.0583 19.1908C11.8337 19.5704 11.4833 19.8243 11.0174 19.9457C10.9823 19.9548 10.9478 19.9659 10.9132 19.9764C10.8955 19.9822 10.8777 19.9875 10.8599 19.9927L10.8345 19.9995ZM9.22059 19.6635H10.7851C10.7937 19.6607 10.8028 19.6578 10.8115 19.6554C10.8513 19.6429 10.8907 19.6304 10.931 19.6199C11.3082 19.5215 11.5899 19.319 11.7674 19.0185C11.8538 18.8722 11.9253 18.6908 11.9791 18.4796C12.0141 18.3419 11.8951 18.1662 11.7386 18.124C11.5697 18.0784 11.4046 18.1773 11.3374 18.3635C11.157 18.8635 10.9622 19.0008 10.4299 19.0008H10.2533C10.0177 19.0008 9.78208 19.0008 9.54692 19.0008C9.00847 18.9998 8.74069 18.7743 8.65142 18.2469C8.62695 18.1024 8.60151 17.9584 8.57656 17.814C8.53433 17.5716 8.49018 17.3211 8.45082 17.074C8.41963 16.8791 8.32365 16.7716 8.10817 16.691C7.60955 16.5043 7.10661 16.297 6.61423 16.0748C6.40307 15.9798 6.25958 15.9875 6.10073 16.1026C5.74705 16.3594 5.38472 16.6104 5.0771 16.822C4.69078 17.0879 4.33997 17.0572 4.00403 16.7299C3.77416 16.5053 3.53805 16.2692 3.28178 16.0081C2.94489 15.664 2.91609 15.318 3.19156 14.9192L3.24435 14.8429C3.45646 14.5358 3.67578 14.2185 3.90037 13.9114C4.01843 13.7497 4.02563 13.6019 3.92581 13.3825C3.70025 12.8882 3.49533 12.3911 3.31633 11.9049C3.23379 11.6813 3.11813 11.5819 2.90313 11.5498C2.53313 11.4941 2.13529 11.4245 1.68754 11.3367C1.22491 11.246 1.00799 10.9816 1.00511 10.5055C1.00319 10.1773 1.00367 9.85429 1.00511 9.52508C1.00655 9.02262 1.23451 8.74763 1.72209 8.65885L1.80031 8.64445C2.15928 8.57919 2.53073 8.51152 2.89881 8.45729C3.11669 8.42514 3.23379 8.32676 3.31537 8.106C3.48958 7.63569 3.69162 7.14715 3.93253 6.61158C4.02659 6.40234 4.01843 6.25837 3.90181 6.09856C3.67338 5.78519 3.44974 5.46173 3.23331 5.14931L3.193 5.09124C2.91465 4.68908 2.94632 4.33875 3.29234 3.98794C3.51981 3.75711 3.75304 3.52388 3.98628 3.294C4.33709 2.94799 4.6879 2.91632 5.08958 3.19418L5.2657 3.3156C5.53013 3.49796 5.80415 3.68657 6.06666 3.88285C6.2495 4.01962 6.40547 4.02922 6.64159 3.91788C7.08982 3.70672 7.57644 3.50612 8.08706 3.32184C8.32077 3.23738 8.42491 3.11932 8.45706 2.90144C8.51417 2.518 8.58568 2.11392 8.67542 1.66617C8.76276 1.23234 9.03487 1.01014 9.48406 1.0063C9.74225 1.0039 10.0038 1.00486 10.2572 1.00534L10.4645 1.00582C10.9996 1.00678 11.2659 1.23426 11.3552 1.76551C11.383 1.93156 11.4118 2.09712 11.4411 2.26269C11.4795 2.48345 11.5193 2.71188 11.5563 2.93791C11.587 3.12652 11.6825 3.2345 11.886 3.31128C12.3961 3.50372 12.9043 3.71344 13.3967 3.93468C13.6045 4.02826 13.7485 4.01866 13.9097 3.90108C14.2341 3.66497 14.5686 3.43318 14.8926 3.20954L14.9171 3.19226C15.3159 2.9168 15.6614 2.94559 16.0055 3.28201C16.268 3.53923 16.5219 3.79502 16.7133 3.98938C17.0584 4.33923 17.0891 4.69004 16.8103 5.09316L16.6946 5.26017C16.5065 5.53228 16.3121 5.81398 16.1115 6.08561C15.9853 6.25597 15.9772 6.4033 16.0813 6.62934C16.3069 7.11836 16.5094 7.60978 16.6845 8.09064C16.769 8.32244 16.8875 8.42562 17.1073 8.45825C17.5138 8.51824 17.9356 8.5931 18.3618 8.68045C18.7649 8.76299 18.991 9.03557 18.9982 9.44781C19.0049 9.82982 19.0049 10.2061 18.9977 10.5669C18.9905 10.9398 18.812 11.1822 18.4515 11.3074C18.4304 11.3151 18.4084 11.3214 18.3868 11.3276C18.3608 11.3353 18.3364 11.3425 18.3172 11.3506C18.1694 11.414 18.0806 11.6007 18.1271 11.7494C18.1751 11.9035 18.3522 12.0105 18.5058 11.9783C18.7956 11.9179 19.037 11.7917 19.2439 11.5925C19.4814 11.3641 19.5865 11.0708 19.6628 10.7867V9.2237C19.6614 9.21938 19.6599 9.21458 19.6585 9.21026C19.6479 9.17907 19.6374 9.14739 19.6283 9.11236C19.4665 8.49904 19.0817 8.14103 18.4511 8.0177C18.1545 7.95963 17.8584 7.90828 17.5709 7.86509C17.3972 7.83917 17.2863 7.74943 17.222 7.58243C17.1592 7.42022 17.091 7.25561 17.0248 7.09676C16.9533 6.92544 16.8799 6.74835 16.8117 6.57127C16.7685 6.45801 16.7839 6.303 16.8487 6.2027C16.9379 6.06401 17.0334 5.92724 17.1251 5.79526C17.2479 5.61866 17.3751 5.4363 17.486 5.25153C17.7725 4.77451 17.7144 4.12712 17.3478 3.71248C17.0493 3.37511 16.7277 3.04829 16.3918 2.74115C15.8509 2.24685 15.1839 2.20654 14.5614 2.63174C14.4626 2.69892 14.3652 2.76803 14.2677 2.83713C14.1166 2.94415 13.9606 3.05453 13.8013 3.15771C13.7019 3.22202 13.5469 3.2369 13.4322 3.19322C13.0598 3.05021 12.7215 2.91008 12.398 2.76467C12.2819 2.71236 12.1782 2.58519 12.1514 2.46233C12.1082 2.26461 12.0746 2.06401 12.0419 1.86965C12.0242 1.76359 12.0064 1.65753 11.9868 1.55147C11.8553 0.833535 11.3331 0.371868 10.6234 0.346913C10.1953 0.332036 9.77344 0.332036 9.36936 0.347872C8.71333 0.373307 8.20895 0.786025 8.0525 1.42478C7.97668 1.73384 7.92533 2.05825 7.87542 2.37163L7.8663 2.42778C7.83751 2.60918 7.74633 2.72004 7.57164 2.78674C7.41183 2.84769 7.24962 2.91536 7.09318 2.98063C6.92521 3.05069 6.75196 3.12316 6.57776 3.1889C6.45922 3.23354 6.29797 3.2177 6.19384 3.15099C6.03979 3.05213 5.88958 2.94511 5.74465 2.84193C5.64291 2.76995 5.53781 2.69508 5.43367 2.62454C4.81363 2.20558 4.14608 2.25021 3.60283 2.74739C3.30385 3.02094 3.01495 3.30984 2.74524 3.60498C2.24902 4.14823 2.20535 4.8153 2.62527 5.43582C2.69486 5.53851 2.76828 5.64169 2.83931 5.74151C2.94345 5.88836 3.05142 6.04049 3.15172 6.19598C3.21747 6.29868 3.23283 6.46041 3.18724 6.57991C3.04806 6.94751 2.91033 7.28057 2.76636 7.59778C2.71165 7.71776 2.57968 7.82526 2.45202 7.85357C2.26054 7.89628 2.0657 7.92844 1.87758 7.96011C1.7672 7.97883 1.6525 7.99754 1.54117 8.01866C0.841946 8.14919 0.373079 8.67997 0.346685 9.37151C0.329888 9.80438 0.330368 10.2325 0.347644 10.6437C0.374999 11.295 0.783877 11.7955 1.41447 11.95C1.71441 12.0235 2.02875 12.0738 2.33253 12.1223L2.43715 12.1391C2.60895 12.1669 2.71837 12.2567 2.78268 12.4227C2.84459 12.583 2.91225 12.7448 2.97752 12.9017C3.0495 13.0754 3.12437 13.2544 3.193 13.4344C3.23619 13.5476 3.22083 13.7026 3.15556 13.8029C3.04854 13.9685 2.93385 14.1307 2.82251 14.2872C2.76108 14.374 2.69965 14.4604 2.63967 14.5478C2.19144 15.1985 2.24998 15.8963 2.80043 16.4616C3.0495 16.7174 3.29953 16.9674 3.54381 17.205C4.10913 17.7545 4.80643 17.8125 5.45766 17.3633C5.54357 17.3043 5.62851 17.2439 5.71393 17.1834C5.8723 17.0711 6.03595 16.9554 6.20343 16.8475C6.30277 16.7831 6.45778 16.7687 6.572 16.8124C6.94489 16.9554 7.28274 17.0956 7.60619 17.241C7.72041 17.2923 7.82407 17.419 7.85238 17.5414C7.90325 17.7626 7.93829 17.9887 7.97188 18.2065L7.98484 18.2891C8.05682 18.7517 8.20703 19.0646 8.47242 19.3041C8.69174 19.5008 8.97152 19.5935 9.22059 19.6635Z" fill="black"/>
<path d="M9.64727 6.21708C9.71014 6.24971 9.78549 6.26939 9.83348 6.3169C10.1963 6.67827 10.5557 7.04251 10.9113 7.4106C11.661 8.18612 11.6528 9.2112 10.8902 9.97185C10.5778 10.2838 10.2616 10.5919 9.94386 10.8985C9.17889 11.6371 8.15237 11.6266 7.39796 10.8712C7.0318 10.5045 6.67091 10.1326 6.31002 9.76069C6.26587 9.7151 6.23516 9.65703 6.1982 9.60424C6.17565 9.61432 6.15261 9.62392 6.13006 9.63399C6.13006 9.80676 6.11998 9.98048 6.1315 10.1523C6.26779 12.1602 7.94745 13.705 9.95921 13.6551C10.6584 13.6378 11.3289 13.7127 11.9278 14.0976C12.1625 14.2483 12.387 14.4263 12.5824 14.625C13.6142 15.6741 14.6359 16.7337 15.66 17.79C15.899 18.0366 15.9167 18.3538 15.7056 18.5554C15.4939 18.7574 15.182 18.7296 14.9406 18.4805C13.9554 17.4665 12.9615 16.4601 11.9906 15.4322C11.4676 14.8789 10.8581 14.613 10.0945 14.6519C8.89575 14.7123 7.81356 14.3634 6.89311 13.5956C5.56905 12.4913 4.99269 11.0627 5.16641 9.34413C5.20288 8.9818 5.43084 8.73849 5.76389 8.60892C6.09982 8.4779 6.43288 8.5187 6.69922 8.75913C7.04572 9.07155 7.36293 9.41564 7.69263 9.74629C7.86443 9.91858 8.02904 10.0981 8.20852 10.2612C8.47151 10.4997 8.86119 10.5247 9.12082 10.2891C9.52778 9.91954 9.92322 9.53561 10.299 9.13441C10.5677 8.84791 10.5226 8.44239 10.2241 8.13429C9.79653 7.69326 9.36509 7.25607 8.93414 6.8184C8.67355 6.55349 8.55645 6.24203 8.64428 5.87443C8.74698 5.44395 9.07283 5.18144 9.54026 5.13873C11.5467 4.95397 13.5758 6.219 14.3143 8.09446C14.6095 8.84407 14.693 9.61336 14.6479 10.4076C14.6205 10.8923 14.7635 11.3295 15.0544 11.7163C15.1388 11.8281 15.2362 11.9313 15.3341 12.0321C16.34 13.0706 17.3469 14.1086 18.3556 15.1447C18.4929 15.2858 18.5759 15.4384 18.5361 15.641C18.4617 16.0225 18.0403 16.177 17.7361 15.9323C17.6866 15.8924 17.6425 15.8449 17.5978 15.7993C16.5953 14.7661 15.5966 13.729 14.5898 12.7006C13.9376 12.0345 13.6002 11.2479 13.653 10.3131C13.6929 9.60472 13.6036 8.92661 13.3056 8.27587C12.6908 6.93405 11.1729 6.02272 9.71926 6.13789C9.69527 6.16429 9.67127 6.19068 9.64727 6.21708Z" fill="black"/>
<path d="M15.3804 18.7848C15.2062 18.7848 15.0248 18.7047 14.8717 18.5468C14.6078 18.2751 14.3433 18.0045 14.0789 17.7333C13.3677 17.0044 12.632 16.2509 11.9208 15.4975C11.4025 14.9489 10.8237 14.7109 10.0996 14.7469C8.86429 14.8093 7.76483 14.4465 6.83189 13.6685C5.48624 12.5465 4.89404 11.0886 5.07112 9.33358C5.10904 8.95877 5.34275 8.66891 5.72955 8.51822C6.11108 8.36945 6.47868 8.42944 6.76423 8.68666C7.00946 8.9079 7.24317 9.14737 7.46873 9.37965C7.56567 9.47947 7.66309 9.57881 7.76099 9.67767C7.8157 9.73238 7.86945 9.78804 7.92319 9.84323C8.03597 9.95937 8.15307 10.0798 8.27352 10.1892C8.50532 10.3999 8.84221 10.4119 9.05673 10.2171C9.47952 9.83316 9.87448 9.44635 10.2296 9.06819C10.4552 8.82776 10.4259 8.47887 10.1557 8.20052C9.7905 7.82428 9.41666 7.44419 9.05481 7.07659L8.86621 6.88511C8.56627 6.58037 8.46069 6.23292 8.55139 5.85139C8.66273 5.38445 9.02025 5.0893 9.53183 5.04227C10.5214 4.95109 11.5594 5.2064 12.454 5.76165C13.3466 6.31546 14.0391 7.1313 14.4038 8.05847C14.6822 8.76585 14.7935 9.53561 14.7436 10.4124C14.7182 10.863 14.8482 11.2825 15.1309 11.6582C15.2115 11.7657 15.3056 11.8646 15.4025 11.9649C16.3537 12.9468 17.3783 14.0035 18.4235 15.0775C18.5377 15.1951 18.6836 15.3828 18.6294 15.6592C18.5881 15.8718 18.4475 16.0407 18.2541 16.1117C18.0607 16.1823 17.8442 16.1434 17.6748 16.0071C17.6273 15.9687 17.5856 15.9255 17.5453 15.8843L17.528 15.8665C17.2161 15.545 16.9046 15.2234 16.5931 14.9014C15.915 14.2008 15.2134 13.4761 14.52 12.7678C13.8279 12.0613 13.504 11.2335 13.5558 10.3073C13.5981 9.55721 13.4872 8.90598 13.217 8.31522C12.6339 7.04203 11.2456 6.18205 9.87256 6.22476C9.88168 6.23196 9.8908 6.23963 9.89944 6.24827C10.2747 6.62212 10.638 6.99068 10.9787 7.34293C11.7658 8.15685 11.7567 9.23999 10.9567 10.0386C10.6793 10.3155 10.3784 10.6101 10.0093 10.9662C9.20166 11.7456 8.12475 11.7341 7.32907 10.9374C6.98018 10.588 6.63033 10.2281 6.29248 9.87971L6.24017 9.82596C6.23393 9.81972 6.22817 9.813 6.22241 9.80676C6.22049 9.91858 6.21857 10.0338 6.22577 10.1446C6.35919 12.1074 7.9971 13.6062 9.95511 13.5582C10.5425 13.5433 11.3036 13.5826 11.9779 14.0155C12.2294 14.1772 12.4554 14.3591 12.6493 14.5564C13.4531 15.3736 14.2637 16.2106 15.0474 17.0202C15.2739 17.2544 15.5004 17.4881 15.7274 17.7218C15.8723 17.8711 15.9501 18.051 15.9467 18.2276C15.9438 18.3793 15.8829 18.5161 15.7701 18.6236C15.6588 18.732 15.522 18.7848 15.3804 18.7848ZM10.2373 14.5516C10.9461 14.5516 11.5436 14.8189 12.0604 15.366C12.7707 16.118 13.5059 16.8709 14.2167 17.5994C14.4811 17.8706 14.7455 18.1417 15.0095 18.4134C15.2125 18.6221 15.4654 18.6514 15.6391 18.4853C15.714 18.4138 15.7543 18.3241 15.7562 18.2248C15.7586 18.0995 15.7 17.9685 15.5911 17.8562C15.3646 17.6225 15.1376 17.3883 14.9111 17.1541C14.1274 16.345 13.3173 15.508 12.514 14.6912C12.3302 14.5041 12.1152 14.3313 11.8757 14.1772C11.2489 13.7746 10.5559 13.7353 9.96135 13.7501C9.92871 13.7511 9.89656 13.7516 9.86441 13.7516C7.84641 13.7516 6.17394 12.1909 6.03573 10.1581C6.02757 10.0366 6.02997 9.91426 6.03189 9.7962C6.03285 9.74197 6.03381 9.68775 6.03381 9.63352V9.57065L6.23153 9.48427L6.27664 9.54809C6.28912 9.56585 6.30112 9.58409 6.31264 9.60232C6.33471 9.63639 6.35535 9.66855 6.37886 9.69254L6.43117 9.74629C6.76902 10.0937 7.11792 10.4532 7.46585 10.8021C8.18138 11.5191 9.15031 11.5296 9.87688 10.8285C10.245 10.4729 10.5454 10.1792 10.8223 9.90322C11.5426 9.18481 11.5503 8.20964 10.842 7.47683C10.5022 7.12506 10.1399 6.75745 9.76507 6.38456C9.74539 6.36489 9.7094 6.34953 9.671 6.33322C9.64749 6.32314 9.62445 6.31306 9.60238 6.30202L9.49152 6.24443L9.67388 6.04479L9.7118 6.04191C11.2081 5.92338 12.7563 6.84623 13.3927 8.23556C13.6763 8.85511 13.7929 9.53609 13.7487 10.3183C13.6988 11.2004 13.9964 11.9577 14.6582 12.6334C15.3526 13.3422 16.0537 14.0669 16.7323 14.7675C17.0438 15.0891 17.3552 15.4111 17.6667 15.7321L17.6844 15.7504C17.7224 15.7892 17.7579 15.8262 17.7963 15.8574C17.9143 15.9524 18.0573 15.9793 18.1888 15.9313C18.3203 15.8833 18.4125 15.7705 18.4412 15.6227C18.47 15.4759 18.4235 15.353 18.2862 15.2119C17.2405 14.1379 16.2159 13.0811 15.2648 12.0988C15.163 11.9942 15.0646 11.89 14.9773 11.7739C14.6668 11.3607 14.5233 10.899 14.5516 10.4018C14.5996 9.55337 14.4926 8.81 14.2248 8.12902C13.5045 6.29914 11.4942 5.05427 9.54911 5.23376C9.11815 5.27359 8.83021 5.50874 8.73807 5.8965C8.66273 6.21372 8.74911 6.49302 9.00298 6.75073L9.19158 6.94221C9.55343 7.30982 9.92823 7.69038 10.2934 8.06711C10.6342 8.4184 10.6654 8.88439 10.3697 9.19968C10.0113 9.58217 9.61294 9.97233 9.18582 10.3596C8.89788 10.6212 8.45013 10.6092 8.14443 10.3318C8.01918 10.218 7.90016 10.0957 7.78546 9.97713C7.73219 9.92242 7.67892 9.86723 7.62517 9.81348C7.52631 9.71462 7.42889 9.61432 7.33099 9.51402C7.10736 9.28415 6.87604 9.04659 6.63513 8.82968C6.40286 8.62044 6.11396 8.57437 5.79866 8.69722C5.57502 8.78457 5.30052 8.96885 5.26165 9.35277C5.09128 11.0401 5.66093 12.4424 6.95427 13.5207C7.84881 14.2665 8.90412 14.6144 10.0895 14.5545C10.1394 14.553 10.1888 14.5516 10.2373 14.5516Z" fill="black"/>
</g>
<defs>
<clipPath id="clip0_4148_1371">
<rect width="20" height="19.9995" fill="white"/>
</clipPath>
</defs>
</svg>
