<svg width="15" height="16" viewBox="0 0 15 16" fill="none" xmlns="http://www.w3.org/2000/svg">
<path d="M7.48403 0.494751C7.73438 0.494751 7.90129 0.627241 8.02647 0.848057C8.65236 2.21712 9.31998 3.58618 9.94587 4.99941C9.9876 5.08774 10.0293 5.1319 10.1545 5.17606C11.5732 5.35272 12.9919 5.57353 14.4523 5.79435C14.8278 5.83851 15.0365 6.10349 14.9947 6.4568C14.9947 6.63345 14.8696 6.72178 14.7861 6.85427C13.7429 7.91419 12.6998 9.01827 11.6566 10.0782C11.5732 10.1665 11.5732 10.2107 11.5732 10.299C11.8235 11.8447 12.0739 13.3904 12.3243 14.9362C12.366 15.157 12.2825 15.3778 12.1156 15.5103C11.907 15.6428 11.7401 15.6428 11.5315 15.5103C10.238 14.8037 8.94445 14.0971 7.65094 13.3904C7.52576 13.3021 7.48403 13.3021 7.35885 13.3463C6.06534 14.0971 4.81356 14.8037 3.52005 15.5103C3.31142 15.6428 3.10278 15.6869 2.89415 15.5103C2.68552 15.3336 2.6438 15.157 2.68552 14.892C2.89415 13.5229 3.10278 12.1097 3.35314 10.7406C3.43659 10.3432 3.35314 10.1224 3.10278 9.81321C2.10136 8.84162 1.14166 7.82586 0.181954 6.8101C0.0150496 6.63345 -0.0266763 6.4568 0.0150498 6.19182C0.0985021 5.971 0.265407 5.88268 0.474038 5.83851C0.599216 5.83851 0.724393 5.79435 0.849572 5.79435C2.18481 5.57353 3.52005 5.35272 4.89701 5.17606C5.02219 5.17606 5.02219 5.08774 5.06391 4.99941C5.68981 3.63035 6.35742 2.21712 6.98331 0.848057C7.10849 0.627241 7.2754 0.494751 7.48403 0.494751Z" fill="#CBD4FF"/>
</svg>
