<svg width="15" height="16" viewBox="0 0 15 16" fill="none" xmlns="http://www.w3.org/2000/svg">
<path d="M7.48403 0.802826C7.73438 0.802826 7.90129 0.935316 8.02647 1.15613C8.65236 2.5252 9.31998 3.89426 9.94587 5.30748C9.9876 5.39581 10.0293 5.43997 10.1545 5.48414C11.5732 5.66079 12.9919 5.88161 14.4523 6.10242C14.8278 6.14659 15.0365 6.41157 14.9947 6.76487C14.9947 6.94153 14.8696 7.02985 14.7861 7.16234C13.7429 8.22226 12.6998 9.32635 11.6566 10.3863C11.5732 10.4746 11.5732 10.5188 11.5732 10.6071C11.8235 12.1528 12.0739 13.6985 12.3243 15.2442C12.366 15.465 12.2825 15.6859 12.1156 15.8184C11.907 15.9508 11.7401 15.9508 11.5315 15.8184C10.238 15.1117 8.94445 14.4051 7.65094 13.6985C7.52576 13.6102 7.48403 13.6102 7.35885 13.6544C6.06534 14.4051 4.81356 15.1117 3.52005 15.8184C3.31142 15.9508 3.10278 15.995 2.89415 15.8184C2.68552 15.6417 2.6438 15.465 2.68552 15.2001C2.89415 13.831 3.10278 12.4178 3.35314 11.0487C3.43659 10.6512 3.35314 10.4304 3.10278 10.1213C2.10136 9.14969 1.14166 8.13394 0.181954 7.11818C0.0150496 6.94153 -0.0266763 6.76487 0.0150498 6.49989C0.0985021 6.27908 0.265407 6.19075 0.474038 6.14659C0.599216 6.14659 0.724393 6.10242 0.849572 6.10242C2.18481 5.88161 3.52005 5.66079 4.89701 5.48414C5.02219 5.48414 5.02219 5.39581 5.06391 5.30748C5.68981 3.93842 6.35742 2.5252 6.98331 1.15613C7.10849 0.935316 7.2754 0.802826 7.48403 0.802826Z" fill="#CBD4FF"/>
</svg>
