<svg width="21" height="31" viewBox="0 0 21 31" fill="none" xmlns="http://www.w3.org/2000/svg">
<path d="M10.4749 15.8239C10.395 15.9803 10.3276 16.109 10.2628 16.2391C9.22898 18.3348 8.19548 20.4303 7.16231 22.5255C6.20117 24.4745 5.23903 26.4223 4.27588 28.369C4.2599 28.3995 4.23942 28.4251 4.21579 28.4441C4.19215 28.4631 4.16589 28.475 4.13869 28.479C2.77889 28.4629 1.41943 28.4426 0.0603015 28.4181C0.0452261 28.4181 0.0296482 28.4119 0 28.4057C0.0109775 28.3665 0.023733 28.3284 0.038191 28.2915C0.9866 26.2664 1.93501 24.2417 2.88342 22.2175C3.72462 20.4236 4.56633 18.6301 5.40854 16.8371C6.34188 14.8448 7.27471 12.851 8.20704 10.8559C8.34472 10.5618 8.48794 10.2732 8.61859 9.97348C8.65209 9.89326 8.66216 9.79847 8.64673 9.7084C8.39548 8.60518 8.1392 7.50473 7.88342 6.40428C7.77387 5.93296 7.6593 5.4644 7.55678 4.99031C7.52362 4.83805 7.46884 4.79168 7.35578 4.79237C6.50151 4.79721 5.65226 4.79583 4.8005 4.79583C4.63869 4.79583 4.63819 4.79583 4.63819 4.57574C4.63819 3.13339 4.63819 1.69104 4.63518 0.248691C4.63518 0.0881222 4.67337 0.0521327 4.78291 0.0521327C6.49782 0.0562853 8.21307 0.0562853 9.92864 0.0521327C9.96848 0.0451158 10.0088 0.0583152 10.0421 0.0892652C10.0754 0.120215 10.0994 0.166799 10.1095 0.220315C11.0141 3.35371 11.9186 6.48595 12.8231 9.61704C13.8784 13.2686 14.9337 16.9206 15.9889 20.5731C16.3166 21.7068 16.6467 22.8397 16.9709 23.9762C17.0095 24.1146 17.0497 24.1409 17.1513 24.098C18.0503 23.7152 18.9513 23.3429 19.8497 22.9595C19.9628 22.911 20.004 22.9435 20.0392 23.0979C20.3457 24.4247 20.6583 25.7487 20.9688 27.074C20.9794 27.1197 20.9874 27.1661 21 27.2298C20.9357 27.2623 20.8754 27.299 20.8136 27.3225C18.77 28.2144 16.7276 29.1068 14.6864 29.9996C14.5889 30.0418 14.5598 29.9961 14.5271 29.8833C13.9037 27.7073 13.2787 25.5323 12.6523 23.3581C12.0395 21.2292 11.4265 19.1003 10.8131 16.9714C10.7211 16.6516 10.6307 16.3305 10.5387 16.0107C10.5241 15.956 10.504 15.9083 10.4749 15.8239Z" fill="#FA7E14"/>
</svg>
