<svg width="15" height="16" viewBox="0 0 15 16" fill="none" xmlns="http://www.w3.org/2000/svg">
<path d="M7.48403 0.186646C7.73438 0.186646 7.90129 0.319135 8.02647 0.539952C8.65236 1.90901 9.31998 3.27808 9.94587 4.6913C9.9876 4.77963 10.0293 4.82379 10.1545 4.86796C11.5732 5.04461 12.9919 5.26543 14.4523 5.48624C14.8278 5.53041 15.0365 5.79539 14.9947 6.14869C14.9947 6.32535 14.8696 6.41367 14.7861 6.54616C13.7429 7.60608 12.6998 8.71017 11.6566 9.77008C11.5732 9.85841 11.5732 9.90257 11.5732 9.9909C11.8235 11.5366 12.0739 13.0823 12.3243 14.628C12.366 14.8489 12.2825 15.0697 12.1156 15.2022C11.907 15.3347 11.7401 15.3347 11.5315 15.2022C10.238 14.4956 8.94445 13.7889 7.65094 13.0823C7.52576 12.994 7.48403 12.994 7.35885 13.0382C6.06534 13.7889 4.81356 14.4956 3.52005 15.2022C3.31142 15.3347 3.10278 15.3788 2.89415 15.2022C2.68552 15.0255 2.6438 14.8489 2.68552 14.5839C2.89415 13.2148 3.10278 11.8016 3.35314 10.4325C3.43659 10.0351 3.35314 9.81425 3.10278 9.5051C2.10136 8.53351 1.14166 7.51776 0.181954 6.502C0.0150496 6.32535 -0.0266763 6.14869 0.0150498 5.88371C0.0985021 5.6629 0.265407 5.57457 0.474038 5.53041C0.599216 5.53041 0.724393 5.48624 0.849572 5.48624C2.18481 5.26543 3.52005 5.04461 4.89701 4.86796C5.02219 4.86796 5.02219 4.77963 5.06391 4.6913C5.68981 3.32224 6.35742 1.90901 6.98331 0.539952C7.10849 0.319135 7.2754 0.186646 7.48403 0.186646Z" fill="#CBD4FF"/>
</svg>
